<svg width="197" height="42" viewBox="0 0 197 42" fill="none" xmlns="http://www.w3.org/2000/svg">
<rect width="196.329" height="41.4147" rx="20" fill="#9D5B5B"/>
<path d="M43.475 24.9H36.925L35.875 28H31.4L37.75 10.45H42.7L49.05 28H44.525L43.475 24.9ZM42.375 21.6L40.2 15.175L38.05 21.6H42.375ZM55.2576 16.025C55.6576 15.375 56.2326 14.85 56.9826 14.45C57.7326 14.05 58.591 13.85 59.5576 13.85C60.7076 13.85 61.7493 14.1417 62.6826 14.725C63.616 15.3083 64.3493 16.1417 64.8826 17.225C65.4326 18.3083 65.7076 19.5667 65.7076 21C65.7076 22.4333 65.4326 23.7 64.8826 24.8C64.3493 25.8833 63.616 26.725 62.6826 27.325C61.7493 27.9083 60.7076 28.2 59.5576 28.2C58.5743 28.2 57.716 28.0083 56.9826 27.625C56.2493 27.225 55.6743 26.7 55.2576 26.05V28H50.9826V9.5H55.2576V16.025ZM61.3576 21C61.3576 19.9333 61.0576 19.1 60.4576 18.5C59.8743 17.8833 59.1493 17.575 58.2826 17.575C57.4326 17.575 56.7076 17.8833 56.1076 18.5C55.5243 19.1167 55.2326 19.9583 55.2326 21.025C55.2326 22.0917 55.5243 22.9333 56.1076 23.55C56.7076 24.1667 57.4326 24.475 58.2826 24.475C59.1326 24.475 59.8576 24.1667 60.4576 23.55C61.0576 22.9167 61.3576 22.0667 61.3576 21ZM74.3004 28.2C72.9337 28.2 71.7004 27.9083 70.6004 27.325C69.5171 26.7417 68.6587 25.9083 68.0254 24.825C67.4087 23.7417 67.1004 22.475 67.1004 21.025C67.1004 19.5917 67.4171 18.3333 68.0504 17.25C68.6837 16.15 69.5504 15.3083 70.6504 14.725C71.7504 14.1417 72.9837 13.85 74.3504 13.85C75.7171 13.85 76.9504 14.1417 78.0504 14.725C79.1504 15.3083 80.0171 16.15 80.6504 17.25C81.2837 18.3333 81.6004 19.5917 81.6004 21.025C81.6004 22.4583 81.2754 23.725 80.6254 24.825C79.9921 25.9083 79.1171 26.7417 78.0004 27.325C76.9004 27.9083 75.6671 28.2 74.3004 28.2ZM74.3004 24.5C75.1171 24.5 75.8087 24.2 76.3754 23.6C76.9587 23 77.2504 22.1417 77.2504 21.025C77.2504 19.9083 76.9671 19.05 76.4004 18.45C75.8504 17.85 75.1671 17.55 74.3504 17.55C73.5171 17.55 72.8254 17.85 72.2754 18.45C71.7254 19.0333 71.4504 19.8917 71.4504 21.025C71.4504 22.1417 71.7171 23 72.2504 23.6C72.8004 24.2 73.4837 24.5 74.3004 24.5ZM97.6434 14.05V28H93.3684V26.1C92.935 26.7167 92.3434 27.2167 91.5934 27.6C90.86 27.9667 90.0434 28.15 89.1434 28.15C88.0767 28.15 87.135 27.9167 86.3184 27.45C85.5017 26.9667 84.8684 26.275 84.4184 25.375C83.9684 24.475 83.7434 23.4167 83.7434 22.2V14.05H87.9934V21.625C87.9934 22.5583 88.235 23.2833 88.7184 23.8C89.2017 24.3167 89.8517 24.575 90.6684 24.575C91.5017 24.575 92.16 24.3167 92.6434 23.8C93.1267 23.2833 93.3684 22.5583 93.3684 21.625V14.05H97.6434ZM108.489 24.375V28H106.314C104.764 28 103.556 27.625 102.689 26.875C101.822 26.1083 101.389 24.8667 101.389 23.15V17.6H99.6891V14.05H101.389V10.65H105.664V14.05H108.464V17.6H105.664V23.2C105.664 23.6167 105.764 23.9167 105.964 24.1C106.164 24.2833 106.497 24.375 106.964 24.375H108.489ZM120.368 10.45V20.95C120.368 22 120.626 22.8083 121.143 23.375C121.66 23.9417 122.418 24.225 123.418 24.225C124.418 24.225 125.185 23.9417 125.718 23.375C126.251 22.8083 126.518 22 126.518 20.95V10.45H130.793V20.925C130.793 22.4917 130.46 23.8167 129.793 24.9C129.126 25.9833 128.226 26.8 127.093 27.35C125.976 27.9 124.726 28.175 123.343 28.175C121.96 28.175 120.718 27.9083 119.618 27.375C118.535 26.825 117.676 26.0083 117.043 24.925C116.41 23.825 116.093 22.4917 116.093 20.925V10.45H120.368ZM139.47 28.2C138.253 28.2 137.17 27.9917 136.22 27.575C135.27 27.1583 134.52 26.5917 133.97 25.875C133.42 25.1417 133.112 24.325 133.045 23.425H137.27C137.32 23.9083 137.545 24.3 137.945 24.6C138.345 24.9 138.837 25.05 139.42 25.05C139.953 25.05 140.362 24.95 140.645 24.75C140.945 24.5333 141.095 24.2583 141.095 23.925C141.095 23.525 140.887 23.2333 140.47 23.05C140.053 22.85 139.378 22.6333 138.445 22.4C137.445 22.1667 136.612 21.925 135.945 21.675C135.278 21.4083 134.703 21 134.22 20.45C133.737 19.8833 133.495 19.125 133.495 18.175C133.495 17.375 133.712 16.65 134.145 16C134.595 15.3333 135.245 14.8083 136.095 14.425C136.962 14.0417 137.987 13.85 139.17 13.85C140.92 13.85 142.295 14.2833 143.295 15.15C144.312 16.0167 144.895 17.1667 145.045 18.6H141.095C141.028 18.1167 140.812 17.7333 140.445 17.45C140.095 17.1667 139.628 17.025 139.045 17.025C138.545 17.025 138.162 17.125 137.895 17.325C137.628 17.5083 137.495 17.7667 137.495 18.1C137.495 18.5 137.703 18.8 138.12 19C138.553 19.2 139.22 19.4 140.12 19.6C141.153 19.8667 141.995 20.1333 142.645 20.4C143.295 20.65 143.862 21.0667 144.345 21.65C144.845 22.2167 145.103 22.9833 145.12 23.95C145.12 24.7667 144.887 25.5 144.42 26.15C143.97 26.7833 143.312 27.2833 142.445 27.65C141.595 28.0167 140.603 28.2 139.47 28.2Z" fill="black"/>
</svg>
