<svg width="197" height="42" viewBox="0 0 197 42" fill="none" xmlns="http://www.w3.org/2000/svg">
<rect width="196.329" height="41.4147" rx="20" fill="#9D5B5B"/>
<path d="M58.825 13.875V17.425H64.55V20.725H58.825V24.575H65.3V28H54.55V10.45H65.3V13.875H58.825ZM76.3254 28L73.6504 24.125L71.4004 28H66.7754L71.3754 20.875L66.6504 14.05H71.4504L74.1254 17.9L76.3754 14.05H81.0004L76.3254 21.075L81.1254 28H76.3254ZM87.0477 16.025C87.4643 15.375 88.0393 14.85 88.7727 14.45C89.506 14.05 90.3643 13.85 91.3477 13.85C92.4977 13.85 93.5393 14.1417 94.4727 14.725C95.406 15.3083 96.1393 16.1417 96.6727 17.225C97.2227 18.3083 97.4977 19.5667 97.4977 21C97.4977 22.4333 97.2227 23.7 96.6727 24.8C96.1393 25.8833 95.406 26.725 94.4727 27.325C93.5393 27.9083 92.4977 28.2 91.3477 28.2C90.381 28.2 89.5227 28 88.7727 27.6C88.0393 27.2 87.4643 26.6833 87.0477 26.05V34.65H82.7727V14.05H87.0477V16.025ZM93.1477 21C93.1477 19.9333 92.8477 19.1 92.2477 18.5C91.6643 17.8833 90.9393 17.575 90.0727 17.575C89.2227 17.575 88.4977 17.8833 87.8977 18.5C87.3143 19.1167 87.0227 19.9583 87.0227 21.025C87.0227 22.0917 87.3143 22.9333 87.8977 23.55C88.4977 24.1667 89.2227 24.475 90.0727 24.475C90.9227 24.475 91.6477 24.1667 92.2477 23.55C92.8477 22.9167 93.1477 22.0667 93.1477 21ZM104.015 9.5V28H99.7404V9.5H104.015ZM113.463 28.2C112.097 28.2 110.863 27.9083 109.763 27.325C108.68 26.7417 107.822 25.9083 107.188 24.825C106.572 23.7417 106.263 22.475 106.263 21.025C106.263 19.5917 106.58 18.3333 107.213 17.25C107.847 16.15 108.713 15.3083 109.813 14.725C110.913 14.1417 112.147 13.85 113.513 13.85C114.88 13.85 116.113 14.1417 117.213 14.725C118.313 15.3083 119.18 16.15 119.813 17.25C120.447 18.3333 120.763 19.5917 120.763 21.025C120.763 22.4583 120.438 23.725 119.788 24.825C119.155 25.9083 118.28 26.7417 117.163 27.325C116.063 27.9083 114.83 28.2 113.463 28.2ZM113.463 24.5C114.28 24.5 114.972 24.2 115.538 23.6C116.122 23 116.413 22.1417 116.413 21.025C116.413 19.9083 116.13 19.05 115.563 18.45C115.013 17.85 114.33 17.55 113.513 17.55C112.68 17.55 111.988 17.85 111.438 18.45C110.888 19.0333 110.613 19.8917 110.613 21.025C110.613 22.1417 110.88 23 111.413 23.6C111.963 24.2 112.647 24.5 113.463 24.5ZM127.306 16.375C127.806 15.6083 128.431 15.0083 129.181 14.575C129.931 14.125 130.765 13.9 131.681 13.9V18.425H130.506C129.44 18.425 128.64 18.6583 128.106 19.125C127.573 19.575 127.306 20.375 127.306 21.525V28H123.031V14.05H127.306V16.375ZM146.875 20.8C146.875 21.2 146.85 21.6167 146.8 22.05H137.125C137.191 22.9167 137.466 23.5833 137.95 24.05C138.45 24.5 139.058 24.725 139.775 24.725C140.841 24.725 141.583 24.275 142 23.375H146.55C146.316 24.2917 145.891 25.1167 145.275 25.85C144.675 26.5833 143.916 27.1583 143 27.575C142.083 27.9917 141.058 28.2 139.925 28.2C138.558 28.2 137.341 27.9083 136.275 27.325C135.208 26.7417 134.375 25.9083 133.775 24.825C133.175 23.7417 132.875 22.475 132.875 21.025C132.875 19.575 133.166 18.3083 133.75 17.225C134.35 16.1417 135.183 15.3083 136.25 14.725C137.316 14.1417 138.541 13.85 139.925 13.85C141.275 13.85 142.475 14.1333 143.525 14.7C144.575 15.2667 145.391 16.075 145.975 17.125C146.575 18.175 146.875 19.4 146.875 20.8ZM142.5 19.675C142.5 18.9417 142.25 18.3583 141.75 17.925C141.25 17.4917 140.625 17.275 139.875 17.275C139.158 17.275 138.55 17.4833 138.05 17.9C137.566 18.3167 137.266 18.9083 137.15 19.675H142.5Z" fill="black"/>
</svg>
