<svg width="184" height="82" viewBox="0 0 184 82" fill="none" xmlns="http://www.w3.org/2000/svg">
<g filter="url(#filter0_d_80_127)">
<ellipse cx="40.2992" cy="40.5991" rx="40.2992" ry="36.5991" fill="#9D5B5B"/>
</g>
<path d="M9.71591 53.2258H1.65128V31.4076H9.70526C11.9283 31.4076 13.8423 31.8444 15.4474 32.718C17.0597 33.5845 18.3026 34.8345 19.1761 36.468C20.0497 38.0944 20.4865 40.0405 20.4865 42.3061C20.4865 44.5788 20.0497 46.5319 19.1761 48.1655C18.3097 49.799 17.0703 51.0525 15.4581 51.9261C13.8459 52.7926 11.9318 53.2258 9.71591 53.2258ZM6.92472 48.7301H9.51349C10.7351 48.7301 11.7685 48.5241 12.6136 48.1122C13.4659 47.6932 14.1087 47.0149 14.5419 46.0774C14.9822 45.1328 15.2024 43.8757 15.2024 42.3061C15.2024 40.7365 14.9822 39.4865 14.5419 38.5561C14.1016 37.6186 13.4517 36.9439 12.5923 36.5319C11.7401 36.1129 10.6889 35.9034 9.43892 35.9034H6.92472V48.7301ZM29.8653 53.2258V36.8622H35.0749V53.2258H29.8653ZM32.4754 34.9552C31.7439 34.9552 31.1153 34.7138 30.5898 34.2308C30.0642 33.7407 29.8014 33.1513 29.8014 32.4623C29.8014 31.7805 30.0642 31.1981 30.5898 30.7152C31.1153 30.2251 31.7439 29.9801 32.4754 29.9801C33.2141 29.9801 33.8426 30.2251 34.3611 30.7152C34.8866 31.1981 35.1494 31.7805 35.1494 32.4623C35.1494 33.1513 34.8866 33.7407 34.3611 34.2308C33.8426 34.7138 33.2141 34.9552 32.4754 34.9552ZM52.3186 59.7031C50.7632 59.7031 49.4315 59.4865 48.3235 59.0532C47.2156 58.62 46.3456 58.027 45.7135 57.2741C45.0814 56.5213 44.7014 55.669 44.5735 54.7173L49.5061 54.4403C49.5984 54.7741 49.7689 55.0653 50.0174 55.3139C50.2731 55.5625 50.6034 55.7542 51.0082 55.8892C51.4201 56.0241 51.9031 56.0916 52.4571 56.0916C53.3306 56.0916 54.0515 55.8785 54.6197 55.4524C55.195 55.0334 55.4826 54.2983 55.4826 53.2471V50.3707H55.3015C55.0956 50.875 54.7831 51.326 54.364 51.7237C53.945 52.1214 53.423 52.4339 52.798 52.6612C52.1801 52.8885 51.4698 53.0021 50.6673 53.0021C49.4741 53.0021 48.3804 52.7251 47.386 52.1711C46.3988 51.6101 45.6069 50.7436 45.0103 49.5717C44.4208 48.3927 44.1261 46.8764 44.1261 45.0227C44.1261 43.1122 44.4315 41.539 45.0423 40.3032C45.6531 39.0603 46.4521 38.1406 47.4393 37.544C48.4336 36.9474 49.5025 36.6491 50.646 36.6491C51.5054 36.6491 52.2404 36.7983 52.8512 37.0966C53.4691 37.3878 53.977 37.7642 54.3747 38.2258C54.7724 38.6875 55.0743 39.1669 55.2802 39.664H55.4294V36.8622H60.6176V53.2898C60.6176 54.6747 60.2696 55.843 59.5735 56.7947C58.8775 57.7464 57.9045 58.4673 56.6545 58.9574C55.4045 59.4545 53.9592 59.7031 52.3186 59.7031ZM52.4784 49.2095C53.1105 49.2095 53.6502 49.0426 54.0977 48.7088C54.5451 48.375 54.8896 47.8956 55.1311 47.2706C55.3725 46.6456 55.4933 45.8963 55.4933 45.0227C55.4933 44.1349 55.3725 43.3714 55.1311 42.7322C54.8967 42.0859 54.5522 41.5888 54.0977 41.2407C53.6502 40.8927 53.1105 40.7187 52.4784 40.7187C51.8321 40.7187 51.2852 40.8963 50.8377 41.2514C50.3903 41.6065 50.0494 42.1072 49.815 42.7535C49.5877 43.3927 49.4741 44.1491 49.4741 45.0227C49.4741 45.8963 49.5913 46.6456 49.8257 47.2706C50.06 47.8956 50.3974 48.375 50.8377 48.7088C51.2852 49.0426 51.8321 49.2095 52.4784 49.2095ZM70.2388 53.2258V36.8622H75.4483V53.2258H70.2388ZM72.8489 34.9552C72.1173 34.9552 71.4888 34.7138 70.9632 34.2308C70.4376 33.7407 70.1749 33.1513 70.1749 32.4623C70.1749 31.7805 70.4376 31.1981 70.9632 30.7152C71.4888 30.2251 72.1173 29.9801 72.8489 29.9801C73.5875 29.9801 74.2161 30.2251 74.7345 30.7152C75.2601 31.1981 75.5229 31.7805 75.5229 32.4623C75.5229 33.1513 75.2601 33.7407 74.7345 34.2308C74.2161 34.7138 73.5875 34.9552 72.8489 34.9552ZM103.633 31.4076V53.2258H99.1586L90.4761 40.6335H90.3376V53.2258H85.0642V31.4076H89.6025L98.1892 43.9787H98.3703V31.4076H103.633ZM120.898 53.5348C119.186 53.5348 117.709 53.1974 116.466 52.5227C115.23 51.8409 114.279 50.8714 113.611 49.6143C112.951 48.3501 112.62 46.848 112.62 45.1079C112.62 43.4176 112.954 41.9403 113.622 40.6761C114.289 39.4048 115.23 38.4176 116.445 37.7145C117.659 37.0042 119.091 36.6491 120.738 36.6491C121.903 36.6491 122.968 36.8302 123.934 37.1924C124.9 37.5547 125.735 38.0909 126.438 38.8011C127.141 39.5113 127.688 40.3885 128.078 41.4325C128.469 42.4694 128.664 43.6591 128.664 45.0014V46.3011H114.442V43.2755H123.817C123.81 42.7216 123.679 42.228 123.423 41.7947C123.167 41.3615 122.816 41.0241 122.368 40.7826C121.928 40.5341 121.42 40.4098 120.845 40.4098C120.262 40.4098 119.74 40.5412 119.279 40.804C118.817 41.0596 118.451 41.4112 118.181 41.8586C117.912 42.299 117.77 42.7997 117.755 43.3608V46.4396C117.755 47.1072 117.887 47.6932 118.15 48.1974C118.412 48.6946 118.785 49.0817 119.268 49.3586C119.751 49.6356 120.326 49.7741 120.994 49.7741C121.456 49.7741 121.875 49.7102 122.251 49.5824C122.627 49.4545 122.951 49.2663 123.221 49.0177C123.49 48.7692 123.693 48.4638 123.828 48.1015L128.611 48.24C128.412 49.3125 127.975 50.2464 127.301 51.0419C126.633 51.8302 125.756 52.4446 124.669 52.8849C123.583 53.3182 122.326 53.5348 120.898 53.5348ZM141.823 36.8622L144.518 42.2528L147.309 36.8622H152.561L147.991 45.044L152.732 53.2258H147.522L144.518 47.7926L141.588 53.2258H136.304L141.056 45.044L136.538 36.8622H141.823ZM165.765 53.5028C164.721 53.5028 163.794 53.3288 162.984 52.9808C162.182 52.6257 161.546 52.093 161.077 51.3828C160.615 50.6655 160.385 49.767 160.385 48.6875C160.385 47.7784 160.544 47.0113 160.864 46.3863C161.184 45.7613 161.624 45.2535 162.185 44.8629C162.746 44.4723 163.392 44.1775 164.124 43.9787C164.856 43.7727 165.637 43.6342 166.468 43.5632C167.398 43.478 168.147 43.3892 168.716 43.2969C169.284 43.1974 169.696 43.0589 169.951 42.8814C170.214 42.6967 170.346 42.4375 170.346 42.1037V42.0504C170.346 41.5035 170.157 41.0809 169.781 40.7826C169.405 40.4844 168.897 40.3352 168.257 40.3352C167.569 40.3352 167.015 40.4844 166.596 40.7826C166.177 41.0809 165.91 41.4929 165.797 42.0184L160.992 41.848C161.134 40.8537 161.5 39.9659 162.089 39.1846C162.686 38.3963 163.503 37.7784 164.539 37.3309C165.583 36.8764 166.837 36.6491 168.3 36.6491C169.344 36.6491 170.307 36.7734 171.187 37.022C172.068 37.2635 172.835 37.6186 173.488 38.0873C174.142 38.549 174.646 39.1172 175.001 39.7919C175.363 40.4666 175.544 41.2372 175.544 42.1037V53.2258H170.644V50.946H170.516C170.225 51.5 169.852 51.9687 169.397 52.3523C168.95 52.7358 168.421 53.0234 167.81 53.2152C167.206 53.4069 166.525 53.5028 165.765 53.5028ZM167.373 50.0937C167.934 50.0937 168.439 49.9801 168.886 49.7528C169.341 49.5255 169.703 49.213 169.973 48.8153C170.243 48.4105 170.378 47.9417 170.378 47.4091V45.8537C170.228 45.9318 170.047 46.0028 169.834 46.0667C169.628 46.1307 169.401 46.191 169.152 46.2478C168.904 46.3047 168.648 46.3544 168.385 46.397C168.123 46.4396 167.87 46.4787 167.629 46.5142C167.139 46.5923 166.72 46.713 166.372 46.8764C166.031 47.0398 165.768 47.2528 165.583 47.5156C165.406 47.7713 165.317 48.0767 165.317 48.4318C165.317 48.9716 165.509 49.3835 165.892 49.6676C166.283 49.9517 166.777 50.0937 167.373 50.0937Z" fill="#191A1C"/>
<defs>
<filter id="filter0_d_80_127" x="0" y="0" width="101.598" height="81.1982" filterUnits="userSpaceOnUse" color-interpolation-filters="sRGB">
<feFlood flood-opacity="0" result="BackgroundImageFix"/>
<feColorMatrix in="SourceAlpha" type="matrix" values="0 0 0 0 0 0 0 0 0 0 0 0 0 0 0 0 0 0 127 0" result="hardAlpha"/>
<feOffset dx="17"/>
<feGaussianBlur stdDeviation="2"/>
<feComposite in2="hardAlpha" operator="out"/>
<feColorMatrix type="matrix" values="0 0 0 0 0.488462 0 0 0 0 0.27382 0 0 0 0 0.27382 0 0 0 0.47 0"/>
<feBlend mode="normal" in2="BackgroundImageFix" result="effect1_dropShadow_80_127"/>
<feBlend mode="normal" in="SourceGraphic" in2="effect1_dropShadow_80_127" result="shape"/>
</filter>
</defs>
</svg>
