<svg width="1422" height="191" viewBox="0 0 1422 191" fill="none" xmlns="http://www.w3.org/2000/svg">
<g filter="url(#filter0_d_74_113)">
<rect x="13" y="9" width="1396" height="165" rx="20" fill="#F3F4F6"/>
</g>
<path d="M61.0114 42.7273V66H56.0909V47.3977H55.9545L50.625 50.7386V46.375L56.3864 42.7273H61.0114ZM75.6676 66.5114C73.7131 66.5038 72.0313 66.0227 70.6222 65.0682C69.2206 64.1136 68.1411 62.7311 67.3835 60.9205C66.6335 59.1098 66.2623 56.9318 66.2699 54.3864C66.2699 51.8485 66.6449 49.6856 67.3949 47.8977C68.1525 46.1098 69.232 44.75 70.6335 43.8182C72.0426 42.8788 73.7206 42.4091 75.6676 42.4091C77.6146 42.4091 79.2888 42.8788 80.6903 43.8182C82.0994 44.7576 83.1828 46.1212 83.9403 47.9091C84.6979 49.6894 85.0729 51.8485 85.0653 54.3864C85.0653 56.9394 84.6866 59.1212 83.929 60.9318C83.179 62.7424 82.1032 64.125 80.7017 65.0795C79.3002 66.0341 77.6222 66.5114 75.6676 66.5114ZM75.6676 62.4318C77.0009 62.4318 78.0653 61.7614 78.8608 60.4205C79.6563 59.0795 80.0502 57.0682 80.0426 54.3864C80.0426 52.6212 79.8608 51.1515 79.4972 49.9773C79.1411 48.803 78.6335 47.9205 77.9744 47.3295C77.3229 46.7386 76.554 46.4432 75.6676 46.4432C74.3419 46.4432 73.2813 47.1061 72.4858 48.4318C71.6903 49.7576 71.2888 51.7424 71.2812 54.3864C71.2812 56.1742 71.4593 57.6667 71.8153 58.8636C72.179 60.053 72.6903 60.947 73.3494 61.5455C74.0085 62.1364 74.7812 62.4318 75.6676 62.4318ZM97.6989 66.5114C95.7443 66.5038 94.0625 66.0227 92.6534 65.0682C91.2519 64.1136 90.1723 62.7311 89.4148 60.9205C88.6648 59.1098 88.2936 56.9318 88.3011 54.3864C88.3011 51.8485 88.6761 49.6856 89.4261 47.8977C90.1837 46.1098 91.2633 44.75 92.6648 43.8182C94.0739 42.8788 95.7519 42.4091 97.6989 42.4091C99.6458 42.4091 101.32 42.8788 102.722 43.8182C104.131 44.7576 105.214 46.1212 105.972 47.9091C106.729 49.6894 107.104 51.8485 107.097 54.3864C107.097 56.9394 106.718 59.1212 105.96 60.9318C105.21 62.7424 104.134 64.125 102.733 65.0795C101.331 66.0341 99.6534 66.5114 97.6989 66.5114ZM97.6989 62.4318C99.0322 62.4318 100.097 61.7614 100.892 60.4205C101.688 59.0795 102.081 57.0682 102.074 54.3864C102.074 52.6212 101.892 51.1515 101.528 49.9773C101.172 48.803 100.665 47.9205 100.006 47.3295C99.3542 46.7386 98.5852 46.4432 97.6989 46.4432C96.3731 46.4432 95.3125 47.1061 94.517 48.4318C93.7216 49.7576 93.3201 51.7424 93.3125 54.3864C93.3125 56.1742 93.4905 57.6667 93.8466 58.8636C94.2102 60.053 94.7216 60.947 95.3807 61.5455C96.0398 62.1364 96.8125 62.4318 97.6989 62.4318ZM119.73 66.5114C117.776 66.5038 116.094 66.0227 114.685 65.0682C113.283 64.1136 112.204 62.7311 111.446 60.9205C110.696 59.1098 110.325 56.9318 110.332 54.3864C110.332 51.8485 110.707 49.6856 111.457 47.8977C112.215 46.1098 113.295 44.75 114.696 43.8182C116.105 42.8788 117.783 42.4091 119.73 42.4091C121.677 42.4091 123.351 42.8788 124.753 43.8182C126.162 44.7576 127.245 46.1212 128.003 47.9091C128.76 49.6894 129.135 51.8485 129.128 54.3864C129.128 56.9394 128.749 59.1212 127.991 60.9318C127.241 62.7424 126.166 64.125 124.764 65.0795C123.363 66.0341 121.685 66.5114 119.73 66.5114ZM119.73 62.4318C121.063 62.4318 122.128 61.7614 122.923 60.4205C123.719 59.0795 124.113 57.0682 124.105 54.3864C124.105 52.6212 123.923 51.1515 123.56 49.9773C123.204 48.803 122.696 47.9205 122.037 47.3295C121.385 46.7386 120.616 46.4432 119.73 46.4432C118.404 46.4432 117.344 47.1061 116.548 48.4318C115.753 49.7576 115.351 51.7424 115.344 54.3864C115.344 56.1742 115.522 57.6667 115.878 58.8636C116.241 60.053 116.753 60.947 117.412 61.5455C118.071 62.1364 118.844 62.4318 119.73 62.4318ZM139.591 62.4545V46.3636H143.659V62.4545H139.591ZM133.58 56.4432V52.375H149.67V56.4432H133.58Z" fill="#9D5B5B"/>
<path d="M60.4375 82.1307C60.3466 81.3239 59.9716 80.6989 59.3125 80.2557C58.6534 79.8068 57.8239 79.5824 56.8239 79.5824C56.108 79.5824 55.4886 79.696 54.9659 79.9233C54.4432 80.1449 54.0369 80.4517 53.7472 80.8438C53.4631 81.2301 53.321 81.6705 53.321 82.1648C53.321 82.5795 53.4176 82.9375 53.6108 83.2386C53.8097 83.5398 54.0682 83.7926 54.3864 83.9972C54.7102 84.196 55.0568 84.3636 55.4261 84.5C55.7955 84.6307 56.1506 84.7386 56.4915 84.8239L58.196 85.267C58.7528 85.4034 59.3239 85.5881 59.9091 85.821C60.4943 86.054 61.0369 86.3608 61.5369 86.7415C62.0369 87.1222 62.4403 87.5938 62.7472 88.1562C63.0597 88.7188 63.2159 89.392 63.2159 90.1761C63.2159 91.1648 62.9602 92.0426 62.4489 92.8097C61.9432 93.5767 61.2074 94.1818 60.2415 94.625C59.2813 95.0682 58.1193 95.2898 56.7557 95.2898C55.4489 95.2898 54.3182 95.0824 53.3636 94.6676C52.4091 94.2528 51.6619 93.6648 51.1222 92.9034C50.5824 92.1364 50.2841 91.2273 50.2273 90.1761H52.8693C52.9205 90.8068 53.125 91.3324 53.483 91.7528C53.8466 92.1676 54.3097 92.4773 54.8722 92.6818C55.4403 92.8807 56.0625 92.9801 56.7386 92.9801C57.483 92.9801 58.1449 92.8636 58.7244 92.6307C59.3097 92.392 59.7699 92.0625 60.1051 91.642C60.4403 91.2159 60.608 90.7187 60.608 90.1506C60.608 89.6335 60.4602 89.2102 60.1648 88.8807C59.875 88.5511 59.4801 88.2784 58.9801 88.0625C58.4858 87.8466 57.9261 87.6562 57.3011 87.4915L55.2386 86.929C53.8409 86.5483 52.733 85.9886 51.9148 85.25C51.1023 84.5114 50.696 83.5341 50.696 82.3182C50.696 81.3125 50.9688 80.4347 51.5142 79.6847C52.0597 78.9347 52.7983 78.3523 53.7301 77.9375C54.6619 77.517 55.7131 77.3068 56.8835 77.3068C58.0653 77.3068 59.108 77.5142 60.0114 77.929C60.9205 78.3438 61.6364 78.9148 62.1591 79.642C62.6818 80.3636 62.9545 81.1932 62.9773 82.1307H60.4375ZM72.2692 81.9091V83.9545H65.1186V81.9091H72.2692ZM67.0362 78.7727H69.5845V91.1562C69.5845 91.6506 69.6584 92.0227 69.8061 92.2727C69.9538 92.517 70.1442 92.6847 70.3771 92.7756C70.6158 92.8608 70.8743 92.9034 71.1527 92.9034C71.3572 92.9034 71.5362 92.8892 71.6896 92.8608C71.843 92.8324 71.9624 92.8097 72.0476 92.7926L72.5078 94.8977C72.3601 94.9545 72.1499 95.0114 71.8771 95.0682C71.6044 95.1307 71.2635 95.1648 70.8544 95.1705C70.1839 95.1818 69.5589 95.0625 68.9794 94.8125C68.3999 94.5625 67.9311 94.1761 67.5732 93.6534C67.2152 93.1307 67.0362 92.4744 67.0362 91.6847V78.7727ZM83.3807 89.571V81.9091H85.9375V95H83.4318V92.733H83.2955C82.9943 93.4318 82.5114 94.0142 81.8466 94.4801C81.1875 94.9403 80.3665 95.1705 79.3835 95.1705C78.5426 95.1705 77.7983 94.9858 77.1506 94.6165C76.5085 94.2415 76.0028 93.6875 75.6335 92.9545C75.2699 92.2216 75.0881 91.3153 75.0881 90.2358V81.9091H77.6364V89.929C77.6364 90.821 77.8835 91.5312 78.3778 92.0597C78.8722 92.5881 79.5142 92.8523 80.304 92.8523C80.7813 92.8523 81.2557 92.733 81.7273 92.4943C82.2045 92.2557 82.5994 91.8949 82.9119 91.4119C83.2301 90.929 83.3864 90.3153 83.3807 89.571ZM94.2621 95.2557C93.2053 95.2557 92.2621 94.9858 91.4325 94.446C90.6087 93.9006 89.9609 93.125 89.4893 92.1193C89.0234 91.108 88.7905 89.8949 88.7905 88.4801C88.7905 87.0653 89.0263 85.8551 89.4979 84.8494C89.9751 83.8437 90.6286 83.0739 91.4581 82.5398C92.2876 82.0057 93.228 81.7386 94.2791 81.7386C95.0916 81.7386 95.745 81.875 96.2393 82.1477C96.7393 82.4148 97.1257 82.7273 97.3984 83.0852C97.6768 83.4432 97.8928 83.7585 98.0462 84.0312H98.1996V77.5455H100.748V95H98.2592V92.9631H98.0462C97.8928 93.2415 97.6712 93.5597 97.3814 93.9176C97.0973 94.2756 96.7053 94.5881 96.2053 94.8551C95.7053 95.1222 95.0575 95.2557 94.2621 95.2557ZM94.8246 93.0824C95.5575 93.0824 96.1768 92.8892 96.6825 92.5028C97.1939 92.1108 97.5803 91.5682 97.8416 90.875C98.1087 90.1818 98.2422 89.375 98.2422 88.4545C98.2422 87.5455 98.1115 86.75 97.8501 86.0682C97.5888 85.3864 97.2053 84.8551 96.6996 84.4744C96.1939 84.0937 95.5689 83.9034 94.8246 83.9034C94.0575 83.9034 93.4183 84.1023 92.907 84.5C92.3956 84.8977 92.0092 85.4403 91.7479 86.1278C91.4922 86.8153 91.3643 87.5909 91.3643 88.4545C91.3643 89.3295 91.495 90.1165 91.7564 90.8153C92.0178 91.5142 92.4041 92.0682 92.9155 92.4773C93.4325 92.8807 94.0689 93.0824 94.8246 93.0824ZM110.027 95.2642C108.737 95.2642 107.626 94.9886 106.695 94.4375C105.768 93.8807 105.053 93.0994 104.547 92.0938C104.047 91.0824 103.797 89.8977 103.797 88.5398C103.797 87.1989 104.047 86.017 104.547 84.9943C105.053 83.9716 105.757 83.1733 106.661 82.5994C107.57 82.0256 108.632 81.7386 109.848 81.7386C110.587 81.7386 111.303 81.8608 111.996 82.1051C112.689 82.3494 113.311 82.733 113.862 83.2557C114.413 83.7784 114.848 84.4574 115.166 85.2926C115.484 86.1222 115.643 87.1307 115.643 88.3182V89.2216H105.237V87.3125H113.146C113.146 86.642 113.01 86.0483 112.737 85.5312C112.464 85.0085 112.081 84.5966 111.587 84.2955C111.098 83.9943 110.524 83.8438 109.865 83.8438C109.149 83.8438 108.524 84.0199 107.99 84.3722C107.462 84.7187 107.053 85.1733 106.763 85.7358C106.479 86.2926 106.337 86.8977 106.337 87.5511V89.0426C106.337 89.9176 106.49 90.6619 106.797 91.2756C107.109 91.8892 107.544 92.358 108.101 92.6818C108.658 93 109.308 93.1591 110.053 93.1591C110.536 93.1591 110.976 93.0909 111.374 92.9545C111.771 92.8125 112.115 92.6023 112.405 92.3239C112.695 92.0455 112.916 91.7017 113.07 91.2926L115.482 91.7273C115.288 92.4375 114.942 93.0597 114.442 93.5938C113.947 94.1222 113.325 94.5341 112.575 94.8295C111.831 95.1193 110.982 95.2642 110.027 95.2642ZM121.019 87.2273V95H118.471V81.9091H120.917V84.0398H121.079C121.38 83.3466 121.852 82.7898 122.494 82.3693C123.141 81.9489 123.957 81.7386 124.94 81.7386C125.832 81.7386 126.613 81.9261 127.283 82.3011C127.954 82.6705 128.474 83.2216 128.843 83.9545C129.212 84.6875 129.397 85.5937 129.397 86.6733V95H126.849V86.9801C126.849 86.0312 126.602 85.2898 126.107 84.7557C125.613 84.2159 124.934 83.946 124.07 83.946C123.479 83.946 122.954 84.0739 122.494 84.3295C122.039 84.5852 121.678 84.9602 121.411 85.4545C121.15 85.9432 121.019 86.5341 121.019 87.2273ZM138.925 81.9091V83.9545H131.775V81.9091H138.925ZM133.692 78.7727H136.241V91.1562C136.241 91.6506 136.315 92.0227 136.462 92.2727C136.61 92.517 136.8 92.6847 137.033 92.7756C137.272 92.8608 137.531 92.9034 137.809 92.9034C138.013 92.9034 138.192 92.8892 138.346 92.8608C138.499 92.8324 138.619 92.8097 138.704 92.7926L139.164 94.8977C139.016 94.9545 138.806 95.0114 138.533 95.0682C138.261 95.1307 137.92 95.1648 137.511 95.1705C136.84 95.1818 136.215 95.0625 135.636 94.8125C135.056 94.5625 134.587 94.1761 134.229 93.6534C133.871 93.1307 133.692 92.4744 133.692 91.6847V78.7727ZM151.343 85.1051L149.033 85.5142C148.937 85.2187 148.783 84.9375 148.573 84.6705C148.369 84.4034 148.09 84.1847 147.738 84.0142C147.386 83.8437 146.945 83.7585 146.417 83.7585C145.695 83.7585 145.093 83.9205 144.61 84.2443C144.127 84.5625 143.886 84.9744 143.886 85.4801C143.886 85.9176 144.048 86.2699 144.371 86.5369C144.695 86.804 145.218 87.0227 145.94 87.1932L148.019 87.6705C149.224 87.9489 150.121 88.3778 150.712 88.9574C151.303 89.5369 151.599 90.2898 151.599 91.2159C151.599 92 151.371 92.6989 150.917 93.3125C150.468 93.9205 149.84 94.3977 149.033 94.7443C148.232 95.0909 147.303 95.2642 146.246 95.2642C144.781 95.2642 143.585 94.9517 142.658 94.3267C141.732 93.696 141.164 92.8011 140.954 91.642L143.417 91.267C143.57 91.9091 143.886 92.3949 144.363 92.7244C144.84 93.0483 145.462 93.2102 146.229 93.2102C147.065 93.2102 147.732 93.0369 148.232 92.6903C148.732 92.3381 148.982 91.9091 148.982 91.4034C148.982 90.9943 148.829 90.6506 148.522 90.3722C148.221 90.0937 147.758 89.8835 147.133 89.7415L144.917 89.2557C143.695 88.9773 142.792 88.5341 142.207 87.9261C141.627 87.3182 141.337 86.5483 141.337 85.6165C141.337 84.8437 141.553 84.1676 141.985 83.5881C142.417 83.0085 143.013 82.5568 143.775 82.233C144.536 81.9034 145.408 81.7386 146.391 81.7386C147.806 81.7386 148.92 82.0455 149.732 82.6591C150.545 83.267 151.082 84.0824 151.343 85.1051ZM160.096 79.8125V77.5455H173.604V79.8125H168.158V95H165.533V79.8125H160.096ZM175.026 95V81.9091H177.489V83.9886H177.625C177.864 83.2841 178.284 82.7301 178.886 82.3267C179.494 81.9176 180.182 81.7131 180.949 81.7131C181.108 81.7131 181.295 81.7187 181.511 81.7301C181.733 81.7415 181.906 81.7557 182.031 81.7727V84.2102C181.929 84.1818 181.747 84.1506 181.486 84.1165C181.224 84.0767 180.963 84.0568 180.702 84.0568C180.099 84.0568 179.563 84.1847 179.091 84.4403C178.625 84.6903 178.256 85.0398 177.983 85.4886C177.71 85.9318 177.574 86.4375 177.574 87.0057V95H175.026ZM187.929 95.2898C187.099 95.2898 186.349 95.1364 185.679 94.8295C185.009 94.517 184.477 94.0653 184.085 93.4744C183.699 92.8835 183.506 92.1591 183.506 91.3011C183.506 90.5625 183.648 89.9545 183.932 89.4773C184.216 89 184.599 88.6222 185.082 88.3438C185.565 88.0653 186.105 87.8551 186.702 87.7131C187.298 87.571 187.906 87.4631 188.526 87.3892C189.31 87.2983 189.946 87.2244 190.435 87.1676C190.923 87.1051 191.278 87.0057 191.5 86.8693C191.722 86.733 191.832 86.5114 191.832 86.2045V86.1449C191.832 85.4006 191.622 84.8239 191.202 84.4148C190.787 84.0057 190.168 83.8011 189.344 83.8011C188.486 83.8011 187.81 83.9915 187.315 84.3722C186.827 84.7472 186.489 85.1648 186.301 85.625L183.906 85.0795C184.19 84.2841 184.605 83.642 185.151 83.1534C185.702 82.6591 186.335 82.3011 187.051 82.0795C187.767 81.8523 188.52 81.7386 189.31 81.7386C189.832 81.7386 190.386 81.8011 190.972 81.9261C191.563 82.0455 192.114 82.267 192.625 82.5909C193.142 82.9148 193.565 83.3778 193.895 83.9801C194.224 84.5767 194.389 85.3523 194.389 86.3068V95H191.901V93.2102H191.798C191.634 93.5398 191.386 93.8636 191.057 94.1818C190.727 94.5 190.304 94.7642 189.787 94.9744C189.27 95.1847 188.651 95.2898 187.929 95.2898ZM188.483 93.2443C189.188 93.2443 189.79 93.1051 190.29 92.8267C190.795 92.5483 191.179 92.1847 191.44 91.7358C191.707 91.2812 191.841 90.7955 191.841 90.2784V88.5909C191.75 88.6818 191.574 88.767 191.312 88.8466C191.057 88.9205 190.764 88.9858 190.435 89.0426C190.105 89.0937 189.784 89.142 189.472 89.1875C189.159 89.2273 188.898 89.2614 188.688 89.2898C188.193 89.3523 187.741 89.4574 187.332 89.6051C186.929 89.7528 186.605 89.9659 186.361 90.2443C186.122 90.517 186.003 90.8807 186.003 91.3352C186.003 91.9659 186.236 92.4432 186.702 92.767C187.168 93.0852 187.761 93.2443 188.483 93.2443ZM197.783 95V81.9091H200.332V95H197.783ZM199.07 79.8892C198.627 79.8892 198.246 79.7415 197.928 79.446C197.616 79.1449 197.46 78.7869 197.46 78.3722C197.46 77.9517 197.616 77.5937 197.928 77.2983C198.246 76.9972 198.627 76.8466 199.07 76.8466C199.513 76.8466 199.891 76.9972 200.204 77.2983C200.522 77.5937 200.681 77.9517 200.681 78.3722C200.681 78.7869 200.522 79.1449 200.204 79.446C199.891 79.7415 199.513 79.8892 199.07 79.8892ZM206.308 87.2273V95H203.76V81.9091H206.206V84.0398H206.368C206.669 83.3466 207.141 82.7898 207.783 82.3693C208.43 81.9489 209.246 81.7386 210.229 81.7386C211.121 81.7386 211.902 81.9261 212.572 82.3011C213.243 82.6705 213.763 83.2216 214.132 83.9545C214.501 84.6875 214.686 85.5937 214.686 86.6733V95H212.138V86.9801C212.138 86.0312 211.891 85.2898 211.396 84.7557C210.902 84.2159 210.223 83.946 209.359 83.946C208.768 83.946 208.243 84.0739 207.783 84.3295C207.328 84.5852 206.967 84.9602 206.7 85.4545C206.439 85.9432 206.308 86.5341 206.308 87.2273ZM223.746 95.2642C222.456 95.2642 221.345 94.9886 220.413 94.4375C219.487 93.8807 218.771 93.0994 218.266 92.0938C217.766 91.0824 217.516 89.8977 217.516 88.5398C217.516 87.1989 217.766 86.017 218.266 84.9943C218.771 83.9716 219.476 83.1733 220.379 82.5994C221.288 82.0256 222.351 81.7386 223.567 81.7386C224.305 81.7386 225.021 81.8608 225.714 82.1051C226.408 82.3494 227.03 82.733 227.581 83.2557C228.132 83.7784 228.567 84.4574 228.885 85.2926C229.203 86.1222 229.362 87.1307 229.362 88.3182V89.2216H218.956V87.3125H226.865C226.865 86.642 226.729 86.0483 226.456 85.5312C226.183 85.0085 225.8 84.5966 225.305 84.2955C224.817 83.9943 224.243 83.8438 223.584 83.8438C222.868 83.8438 222.243 84.0199 221.709 84.3722C221.18 84.7187 220.771 85.1733 220.482 85.7358C220.197 86.2926 220.055 86.8977 220.055 87.5511V89.0426C220.055 89.9176 220.209 90.6619 220.516 91.2756C220.828 91.8892 221.263 92.358 221.82 92.6818C222.376 93 223.027 93.1591 223.771 93.1591C224.254 93.1591 224.695 93.0909 225.092 92.9545C225.49 92.8125 225.834 92.6023 226.124 92.3239C226.413 92.0455 226.635 91.7017 226.788 91.2926L229.2 91.7273C229.007 92.4375 228.661 93.0597 228.161 93.5938C227.666 94.1222 227.044 94.5341 226.294 94.8295C225.55 95.1193 224.7 95.2642 223.746 95.2642ZM237.09 95.2557C236.033 95.2557 235.09 94.9858 234.261 94.446C233.437 93.9006 232.789 93.125 232.317 92.1193C231.852 91.108 231.619 89.8949 231.619 88.4801C231.619 87.0653 231.854 85.8551 232.326 84.8494C232.803 83.8437 233.457 83.0739 234.286 82.5398C235.116 82.0057 236.056 81.7386 237.107 81.7386C237.92 81.7386 238.573 81.875 239.067 82.1477C239.567 82.4148 239.954 82.7273 240.227 83.0852C240.505 83.4432 240.721 83.7585 240.874 84.0312H241.028V77.5455H243.576V95H241.087V92.9631H240.874C240.721 93.2415 240.499 93.5597 240.21 93.9176C239.925 94.2756 239.533 94.5881 239.033 94.8551C238.533 95.1222 237.886 95.2557 237.09 95.2557ZM237.653 93.0824C238.386 93.0824 239.005 92.8892 239.511 92.5028C240.022 92.1108 240.408 91.5682 240.67 90.875C240.937 90.1818 241.07 89.375 241.07 88.4545C241.07 87.5455 240.94 86.75 240.678 86.0682C240.417 85.3864 240.033 84.8551 239.528 84.4744C239.022 84.0937 238.397 83.9034 237.653 83.9034C236.886 83.9034 236.246 84.1023 235.735 84.5C235.224 84.8977 234.837 85.4403 234.576 86.1278C234.32 86.8153 234.192 87.5909 234.192 88.4545C234.192 89.3295 234.323 90.1165 234.585 90.8153C234.846 91.5142 235.232 92.0682 235.744 92.4773C236.261 92.8807 236.897 93.0824 237.653 93.0824Z" fill="black"/>
<path d="M335.227 48.5L334.398 51.6591H319.159L319.977 48.5H335.227ZM327.307 66L319.534 56.75L319.545 53.9091H323.386C324.242 53.9091 324.958 53.75 325.534 53.4318C326.11 53.1136 326.542 52.6818 326.83 52.1364C327.117 51.5909 327.265 50.9697 327.273 50.2727C327.265 49.2273 326.958 48.375 326.352 47.7159C325.754 47.0492 324.765 46.7159 323.386 46.7159H319.159L320.091 42.7273H323.386C325.318 42.7273 326.928 43.0189 328.216 43.6023C329.511 44.178 330.481 45 331.125 46.0682C331.777 47.1364 332.106 48.4091 332.114 49.8864C332.106 51.197 331.886 52.3409 331.455 53.3182C331.03 54.2955 330.36 55.1098 329.443 55.7614C328.534 56.4129 327.348 56.8977 325.886 57.2159L325.705 57.2841L332.659 65.7955V66H327.307ZM335.25 42.7273L334.398 45.9318H321.852L322.705 42.7273H335.25ZM346.761 66.3182C345.155 66.3182 343.723 66.0227 342.466 65.4318C341.216 64.8409 340.223 64.0265 339.489 62.9886C338.754 61.9508 338.371 60.7614 338.341 59.4205H343.114C343.167 60.322 343.545 61.053 344.25 61.6136C344.955 62.1742 345.792 62.4545 346.761 62.4545C347.534 62.4545 348.216 62.2841 348.807 61.9432C349.405 61.5947 349.871 61.1136 350.205 60.5C350.545 59.8788 350.716 59.1667 350.716 58.3636C350.716 57.5455 350.542 56.8258 350.193 56.2045C349.852 55.5833 349.379 55.0985 348.773 54.75C348.167 54.4015 347.473 54.2235 346.693 54.2159C346.011 54.2159 345.348 54.3561 344.705 54.6364C344.068 54.9167 343.572 55.2992 343.216 55.7841L338.841 55L339.943 42.7273H354.17V46.75H344L343.398 52.5795H343.534C343.943 52.0038 344.561 51.5265 345.386 51.1477C346.212 50.7689 347.136 50.5795 348.159 50.5795C349.561 50.5795 350.811 50.9091 351.909 51.5682C353.008 52.2273 353.875 53.1326 354.511 54.2841C355.148 55.428 355.462 56.7462 355.455 58.2386C355.462 59.8068 355.098 61.2008 354.364 62.4205C353.636 63.6326 352.617 64.5871 351.307 65.2841C350.004 65.9735 348.489 66.3182 346.761 66.3182ZM366.429 66V42.7273H371.349V61.9432H381.327V66H366.429ZM384.585 66V42.7273H393.767C395.532 42.7273 397.036 43.0644 398.278 43.7386C399.521 44.4053 400.468 45.3333 401.119 46.5227C401.778 47.7045 402.108 49.0682 402.108 50.6136C402.108 52.1591 401.775 53.5227 401.108 54.7045C400.441 55.8864 399.475 56.8068 398.21 57.4659C396.953 58.125 395.43 58.4545 393.642 58.4545H387.79V54.5114H392.847C393.794 54.5114 394.574 54.3485 395.188 54.0227C395.809 53.6894 396.271 53.2311 396.574 52.6477C396.884 52.0568 397.04 51.3788 397.04 50.6136C397.04 49.8409 396.884 49.1667 396.574 48.5909C396.271 48.0076 395.809 47.5568 395.188 47.2386C394.566 46.9129 393.778 46.75 392.824 46.75H389.506V66H384.585ZM406.628 66H401.355L409.389 42.7273H415.73L423.753 66H418.48L412.651 48.0455H412.469L406.628 66ZM406.298 56.8523H418.753V60.6932H406.298V56.8523Z" fill="#9D5B5B"/>
<path d="M319.918 95V77.5455H326.139C327.497 77.5455 328.622 77.7926 329.514 78.2869C330.406 78.7812 331.074 79.4574 331.517 80.3153C331.96 81.1676 332.182 82.1278 332.182 83.196C332.182 84.2699 331.957 85.2358 331.509 86.0938C331.065 86.946 330.395 87.6222 329.497 88.1222C328.605 88.6165 327.483 88.8636 326.131 88.8636H321.852V86.6307H325.892C326.75 86.6307 327.446 86.483 327.98 86.1875C328.514 85.8864 328.906 85.4773 329.156 84.9602C329.406 84.4432 329.531 83.8551 329.531 83.196C329.531 82.5369 329.406 81.9517 329.156 81.4403C328.906 80.929 328.511 80.5284 327.972 80.2386C327.438 79.9489 326.733 79.804 325.858 79.804H322.551V95H319.918ZM338.757 95.2898C337.928 95.2898 337.178 95.1364 336.507 94.8295C335.837 94.517 335.305 94.0653 334.913 93.4744C334.527 92.8835 334.334 92.1591 334.334 91.3011C334.334 90.5625 334.476 89.9545 334.76 89.4773C335.044 89 335.428 88.6222 335.911 88.3438C336.393 88.0653 336.933 87.8551 337.53 87.7131C338.126 87.571 338.734 87.4631 339.354 87.3892C340.138 87.2983 340.774 87.2244 341.263 87.1676C341.751 87.1051 342.107 87.0057 342.328 86.8693C342.55 86.733 342.661 86.5114 342.661 86.2045V86.1449C342.661 85.4006 342.45 84.8239 342.03 84.4148C341.615 84.0057 340.996 83.8011 340.172 83.8011C339.314 83.8011 338.638 83.9915 338.143 84.3722C337.655 84.7472 337.317 85.1648 337.129 85.625L334.734 85.0795C335.018 84.2841 335.433 83.642 335.979 83.1534C336.53 82.6591 337.163 82.3011 337.879 82.0795C338.595 81.8523 339.348 81.7386 340.138 81.7386C340.661 81.7386 341.214 81.8011 341.8 81.9261C342.391 82.0455 342.942 82.267 343.453 82.5909C343.97 82.9148 344.393 83.3778 344.723 83.9801C345.053 84.5767 345.217 85.3523 345.217 86.3068V95H342.729V93.2102H342.626C342.462 93.5398 342.214 93.8636 341.885 94.1818C341.555 94.5 341.132 94.7642 340.615 94.9744C340.098 95.1847 339.479 95.2898 338.757 95.2898ZM339.311 93.2443C340.016 93.2443 340.618 93.1051 341.118 92.8267C341.624 92.5483 342.007 92.1847 342.268 91.7358C342.536 91.2812 342.669 90.7955 342.669 90.2784V88.5909C342.578 88.6818 342.402 88.767 342.141 88.8466C341.885 88.9205 341.592 88.9858 341.263 89.0426C340.933 89.0937 340.612 89.142 340.3 89.1875C339.987 89.2273 339.726 89.2614 339.516 89.2898C339.021 89.3523 338.57 89.4574 338.161 89.6051C337.757 89.7528 337.433 89.9659 337.189 90.2443C336.95 90.517 336.831 90.8807 336.831 91.3352C336.831 91.9659 337.064 92.4432 337.53 92.767C337.996 93.0852 338.589 93.2443 339.311 93.2443ZM354.126 95.2642C352.859 95.2642 351.768 94.9773 350.853 94.4034C349.944 93.8239 349.245 93.0256 348.756 92.0085C348.268 90.9915 348.023 89.8267 348.023 88.5142C348.023 87.1847 348.273 86.0114 348.773 84.9943C349.273 83.9716 349.978 83.1733 350.887 82.5994C351.796 82.0256 352.867 81.7386 354.1 81.7386C355.094 81.7386 355.981 81.9233 356.759 82.2926C357.538 82.6562 358.165 83.1676 358.643 83.8267C359.126 84.4858 359.413 85.2557 359.504 86.1364H357.023C356.887 85.5227 356.575 84.9943 356.086 84.5511C355.603 84.108 354.955 83.8864 354.143 83.8864C353.433 83.8864 352.81 84.0739 352.276 84.4489C351.748 84.8182 351.336 85.3466 351.04 86.0341C350.745 86.7159 350.597 87.5227 350.597 88.4545C350.597 89.4091 350.742 90.233 351.032 90.9261C351.322 91.6193 351.731 92.1562 352.259 92.5369C352.793 92.9176 353.421 93.108 354.143 93.108C354.626 93.108 355.063 93.0199 355.455 92.8438C355.853 92.6619 356.185 92.4034 356.452 92.0682C356.725 91.733 356.915 91.3295 357.023 90.858H359.504C359.413 91.7045 359.137 92.4602 358.677 93.125C358.217 93.7898 357.6 94.3125 356.827 94.6932C356.06 95.0739 355.16 95.2642 354.126 95.2642ZM364.572 90.5597L364.555 87.4489H364.999L370.214 81.9091H373.266L367.317 88.2159H366.916L364.572 90.5597ZM362.229 95V77.5455H364.777V95H362.229ZM370.496 95L365.808 88.7784L367.564 86.9972L373.624 95H370.496ZM379.398 95.2898C378.568 95.2898 377.818 95.1364 377.148 94.8295C376.477 94.517 375.946 94.0653 375.554 93.4744C375.168 92.8835 374.974 92.1591 374.974 91.3011C374.974 90.5625 375.116 89.9545 375.401 89.4773C375.685 89 376.068 88.6222 376.551 88.3438C377.034 88.0653 377.574 87.8551 378.17 87.7131C378.767 87.571 379.375 87.4631 379.994 87.3892C380.778 87.2983 381.415 87.2244 381.903 87.1676C382.392 87.1051 382.747 87.0057 382.969 86.8693C383.19 86.733 383.301 86.5114 383.301 86.2045V86.1449C383.301 85.4006 383.091 84.8239 382.67 84.4148C382.256 84.0057 381.636 83.8011 380.812 83.8011C379.955 83.8011 379.278 83.9915 378.784 84.3722C378.295 84.7472 377.957 85.1648 377.77 85.625L375.375 85.0795C375.659 84.2841 376.074 83.642 376.619 83.1534C377.17 82.6591 377.804 82.3011 378.52 82.0795C379.236 81.8523 379.989 81.7386 380.778 81.7386C381.301 81.7386 381.855 81.8011 382.44 81.9261C383.031 82.0455 383.582 82.267 384.094 82.5909C384.611 82.9148 385.034 83.3778 385.364 83.9801C385.693 84.5767 385.858 85.3523 385.858 86.3068V95H383.369V93.2102H383.267C383.102 93.5398 382.855 93.8636 382.526 94.1818C382.196 94.5 381.773 94.7642 381.256 94.9744C380.739 95.1847 380.119 95.2898 379.398 95.2898ZM379.952 93.2443C380.656 93.2443 381.259 93.1051 381.759 92.8267C382.264 92.5483 382.648 92.1847 382.909 91.7358C383.176 91.2812 383.31 90.7955 383.31 90.2784V88.5909C383.219 88.6818 383.043 88.767 382.781 88.8466C382.526 88.9205 382.233 88.9858 381.903 89.0426C381.574 89.0937 381.253 89.142 380.94 89.1875C380.628 89.2273 380.366 89.2614 380.156 89.2898C379.662 89.3523 379.21 89.4574 378.801 89.6051C378.398 89.7528 378.074 89.9659 377.83 90.2443C377.591 90.517 377.472 90.8807 377.472 91.3352C377.472 91.9659 377.705 92.4432 378.17 92.767C378.636 93.0852 379.23 93.2443 379.952 93.2443ZM394.741 100.182C393.701 100.182 392.806 100.045 392.056 99.7727C391.312 99.5 390.704 99.1392 390.232 98.6903C389.761 98.2415 389.408 97.75 389.175 97.2159L391.366 96.3125C391.519 96.5625 391.724 96.8267 391.979 97.1051C392.241 97.3892 392.593 97.6307 393.036 97.8295C393.485 98.0284 394.062 98.1278 394.766 98.1278C395.732 98.1278 396.531 97.892 397.161 97.4205C397.792 96.9545 398.107 96.2102 398.107 95.1875V92.6136H397.945C397.792 92.892 397.57 93.2017 397.281 93.5426C396.996 93.8835 396.604 94.179 396.104 94.429C395.604 94.679 394.954 94.804 394.153 94.804C393.119 94.804 392.187 94.5625 391.357 94.0795C390.533 93.5909 389.88 92.8722 389.397 91.9233C388.92 90.9687 388.681 89.7955 388.681 88.4034C388.681 87.0114 388.917 85.8182 389.388 84.8239C389.866 83.8295 390.519 83.0682 391.349 82.5398C392.178 82.0057 393.119 81.7386 394.17 81.7386C394.982 81.7386 395.638 81.875 396.138 82.1477C396.638 82.4148 397.028 82.7273 397.306 83.0852C397.59 83.4432 397.809 83.7585 397.962 84.0312H398.15V81.9091H400.647V95.2898C400.647 96.4148 400.386 97.3381 399.863 98.0597C399.34 98.7813 398.633 99.3153 397.741 99.6619C396.854 100.009 395.854 100.182 394.741 100.182ZM394.715 92.6903C395.448 92.6903 396.067 92.5199 396.573 92.179C397.085 91.8324 397.471 91.3381 397.732 90.696C397.999 90.0483 398.133 89.2727 398.133 88.3693C398.133 87.4886 398.002 86.7131 397.741 86.0426C397.479 85.3722 397.096 84.8494 396.59 84.4744C396.085 84.0937 395.46 83.9034 394.715 83.9034C393.948 83.9034 393.309 84.1023 392.798 84.5C392.286 84.892 391.9 85.4261 391.638 86.1023C391.383 86.7784 391.255 87.5341 391.255 88.3693C391.255 89.2273 391.386 89.9801 391.647 90.6278C391.908 91.2756 392.295 91.7812 392.806 92.1449C393.323 92.5085 393.96 92.6903 394.715 92.6903ZM409.707 95.2642C408.417 95.2642 407.306 94.9886 406.374 94.4375C405.448 93.8807 404.732 93.0994 404.227 92.0938C403.727 91.0824 403.477 89.8977 403.477 88.5398C403.477 87.1989 403.727 86.017 404.227 84.9943C404.732 83.9716 405.437 83.1733 406.34 82.5994C407.249 82.0256 408.312 81.7386 409.528 81.7386C410.266 81.7386 410.982 81.8608 411.675 82.1051C412.369 82.3494 412.991 82.733 413.542 83.2557C414.093 83.7784 414.528 84.4574 414.846 85.2926C415.164 86.1222 415.323 87.1307 415.323 88.3182V89.2216H404.917V87.3125H412.826C412.826 86.642 412.69 86.0483 412.417 85.5312C412.144 85.0085 411.761 84.5966 411.266 84.2955C410.778 83.9943 410.204 83.8438 409.545 83.8438C408.829 83.8438 408.204 84.0199 407.67 84.3722C407.141 84.7187 406.732 85.1733 406.442 85.7358C406.158 86.2926 406.016 86.8977 406.016 87.5511V89.0426C406.016 89.9176 406.17 90.6619 406.477 91.2756C406.789 91.8892 407.224 92.358 407.781 92.6818C408.337 93 408.988 93.1591 409.732 93.1591C410.215 93.1591 410.656 93.0909 411.053 92.9545C411.451 92.8125 411.795 92.6023 412.085 92.3239C412.374 92.0455 412.596 91.7017 412.749 91.2926L415.161 91.7273C414.968 92.4375 414.621 93.0597 414.121 93.5938C413.627 94.1222 413.005 94.5341 412.255 94.8295C411.511 95.1193 410.661 95.2642 409.707 95.2642Z" fill="black"/>
<path d="M524.489 66.3182C522.792 66.3182 521.28 66.0265 519.955 65.4432C518.636 64.8523 517.595 64.0417 516.83 63.0114C516.072 61.9735 515.682 60.7765 515.659 59.4205H520.614C520.644 59.9886 520.83 60.4886 521.17 60.9205C521.519 61.3447 521.981 61.6742 522.557 61.9091C523.133 62.1439 523.78 62.2614 524.5 62.2614C525.25 62.2614 525.913 62.1288 526.489 61.8636C527.064 61.5985 527.515 61.2311 527.841 60.7614C528.167 60.2917 528.33 59.75 528.33 59.1364C528.33 58.5152 528.155 57.9659 527.807 57.4886C527.466 57.0038 526.973 56.625 526.33 56.3523C525.693 56.0795 524.936 55.9432 524.057 55.9432H521.886V52.3295H524.057C524.799 52.3295 525.455 52.2008 526.023 51.9432C526.598 51.6856 527.045 51.3295 527.364 50.875C527.682 50.4129 527.841 49.875 527.841 49.2614C527.841 48.678 527.701 48.1667 527.42 47.7273C527.148 47.2803 526.761 46.9318 526.261 46.6818C525.769 46.4318 525.193 46.3068 524.534 46.3068C523.867 46.3068 523.258 46.428 522.705 46.6705C522.152 46.9053 521.708 47.2424 521.375 47.6818C521.042 48.1212 520.864 48.6364 520.841 49.2273H516.125C516.148 47.8864 516.53 46.7045 517.273 45.6818C518.015 44.6591 519.015 43.8598 520.273 43.2841C521.538 42.7008 522.966 42.4091 524.557 42.4091C526.163 42.4091 527.568 42.7008 528.773 43.2841C529.977 43.8674 530.913 44.6553 531.58 45.6477C532.254 46.6326 532.587 47.7386 532.58 48.9659C532.587 50.2689 532.182 51.3561 531.364 52.2273C530.553 53.0985 529.496 53.6515 528.193 53.8864V54.0682C529.905 54.2879 531.208 54.8826 532.102 55.8523C533.004 56.8144 533.451 58.0189 533.443 59.4659C533.451 60.7917 533.068 61.9697 532.295 63C531.53 64.0303 530.473 64.8409 529.125 65.4318C527.777 66.0227 526.231 66.3182 524.489 66.3182ZM536.98 66V62.4545L545.264 54.7841C545.969 54.1023 546.56 53.4886 547.037 52.9432C547.522 52.3977 547.889 51.8636 548.139 51.3409C548.389 50.8106 548.514 50.2386 548.514 49.625C548.514 48.9432 548.359 48.3561 548.048 47.8636C547.738 47.3636 547.313 46.9811 546.776 46.7159C546.238 46.4432 545.628 46.3068 544.946 46.3068C544.234 46.3068 543.613 46.4508 543.082 46.7386C542.552 47.0265 542.143 47.4394 541.855 47.9773C541.567 48.5152 541.423 49.1553 541.423 49.8977H536.753C536.753 48.375 537.098 47.053 537.787 45.9318C538.476 44.8106 539.442 43.9432 540.685 43.3295C541.927 42.7159 543.359 42.4091 544.98 42.4091C546.647 42.4091 548.098 42.7045 549.332 43.2955C550.575 43.8788 551.541 44.6894 552.23 45.7273C552.92 46.7652 553.264 47.9545 553.264 49.2955C553.264 50.1742 553.09 51.0417 552.741 51.8977C552.401 52.7538 551.791 53.7045 550.912 54.75C550.033 55.7879 548.795 57.0341 547.196 58.4886L543.798 61.8182V61.9773H553.571V66H536.98ZM566.261 66.5114C564.307 66.5038 562.625 66.0227 561.216 65.0682C559.814 64.1136 558.735 62.7311 557.977 60.9205C557.227 59.1098 556.856 56.9318 556.864 54.3864C556.864 51.8485 557.239 49.6856 557.989 47.8977C558.746 46.1098 559.826 44.75 561.227 43.8182C562.636 42.8788 564.314 42.4091 566.261 42.4091C568.208 42.4091 569.883 42.8788 571.284 43.8182C572.693 44.7576 573.777 46.1212 574.534 47.9091C575.292 49.6894 575.667 51.8485 575.659 54.3864C575.659 56.9394 575.28 59.1212 574.523 60.9318C573.773 62.7424 572.697 64.125 571.295 65.0795C569.894 66.0341 568.216 66.5114 566.261 66.5114ZM566.261 62.4318C567.595 62.4318 568.659 61.7614 569.455 60.4205C570.25 59.0795 570.644 57.0682 570.636 54.3864C570.636 52.6212 570.455 51.1515 570.091 49.9773C569.735 48.803 569.227 47.9205 568.568 47.3295C567.917 46.7386 567.148 46.4432 566.261 46.4432C564.936 46.4432 563.875 47.1061 563.08 48.4318C562.284 49.7576 561.883 51.7424 561.875 54.3864C561.875 56.1742 562.053 57.6667 562.409 58.8636C562.773 60.053 563.284 60.947 563.943 61.5455C564.602 62.1364 565.375 62.4318 566.261 62.4318ZM586.122 62.4545V46.3636H590.19V62.4545H586.122ZM580.111 56.4432V52.375H596.202V56.4432H580.111Z" fill="#9D5B5B"/>
<path d="M515.918 95V77.5455H522.139C523.491 77.5455 524.614 77.7784 525.506 78.2443C526.403 78.7102 527.074 79.3551 527.517 80.179C527.96 80.9972 528.182 81.9432 528.182 83.017C528.182 84.0852 527.957 85.0256 527.509 85.8381C527.065 86.6449 526.395 87.2727 525.497 87.7216C524.605 88.1705 523.483 88.3949 522.131 88.3949H517.418V86.1278H521.892C522.744 86.1278 523.438 86.0057 523.972 85.7614C524.511 85.517 524.906 85.1619 525.156 84.696C525.406 84.2301 525.531 83.6705 525.531 83.017C525.531 82.358 525.403 81.7869 525.148 81.304C524.898 80.821 524.503 80.4517 523.963 80.196C523.429 79.9347 522.727 79.804 521.858 79.804H518.551V95H515.918ZM524.534 87.125L528.847 95H525.847L521.619 87.125H524.534ZM536.66 95.2642C535.37 95.2642 534.259 94.9886 533.327 94.4375C532.401 93.8807 531.685 93.0994 531.18 92.0938C530.68 91.0824 530.43 89.8977 530.43 88.5398C530.43 87.1989 530.68 86.017 531.18 84.9943C531.685 83.9716 532.39 83.1733 533.293 82.5994C534.202 82.0256 535.265 81.7386 536.481 81.7386C537.219 81.7386 537.935 81.8608 538.629 82.1051C539.322 82.3494 539.944 82.733 540.495 83.2557C541.046 83.7784 541.481 84.4574 541.799 85.2926C542.117 86.1222 542.276 87.1307 542.276 88.3182V89.2216H531.87V87.3125H539.779C539.779 86.642 539.643 86.0483 539.37 85.5312C539.097 85.0085 538.714 84.5966 538.219 84.2955C537.731 83.9943 537.157 83.8438 536.498 83.8438C535.782 83.8438 535.157 84.0199 534.623 84.3722C534.094 84.7187 533.685 85.1733 533.396 85.7358C533.112 86.2926 532.969 86.8977 532.969 87.5511V89.0426C532.969 89.9176 533.123 90.6619 533.43 91.2756C533.742 91.8892 534.177 92.358 534.734 92.6818C535.29 93 535.941 93.1591 536.685 93.1591C537.168 93.1591 537.609 93.0909 538.006 92.9545C538.404 92.8125 538.748 92.6023 539.038 92.3239C539.327 92.0455 539.549 91.7017 539.702 91.2926L542.114 91.7273C541.921 92.4375 541.575 93.0597 541.075 93.5938C540.58 94.1222 539.958 94.5341 539.208 94.8295C538.464 95.1193 537.614 95.2642 536.66 95.2642ZM550.618 95.2642C549.351 95.2642 548.26 94.9773 547.345 94.4034C546.436 93.8239 545.737 93.0256 545.249 92.0085C544.76 90.9915 544.516 89.8267 544.516 88.5142C544.516 87.1847 544.766 86.0114 545.266 84.9943C545.766 83.9716 546.47 83.1733 547.379 82.5994C548.288 82.0256 549.359 81.7386 550.592 81.7386C551.587 81.7386 552.473 81.9233 553.251 82.2926C554.03 82.6562 554.658 83.1676 555.135 83.8267C555.618 84.4858 555.905 85.2557 555.996 86.1364H553.516C553.379 85.5227 553.067 84.9943 552.578 84.5511C552.095 84.108 551.447 83.8864 550.635 83.8864C549.925 83.8864 549.303 84.0739 548.768 84.4489C548.24 84.8182 547.828 85.3466 547.533 86.0341C547.237 86.7159 547.089 87.5227 547.089 88.4545C547.089 89.4091 547.234 90.233 547.524 90.9261C547.814 91.6193 548.223 92.1562 548.751 92.5369C549.286 92.9176 549.913 93.108 550.635 93.108C551.118 93.108 551.555 93.0199 551.947 92.8438C552.345 92.6619 552.678 92.4034 552.945 92.0682C553.217 91.733 553.408 91.3295 553.516 90.858H555.996C555.905 91.7045 555.629 92.4602 555.169 93.125C554.709 93.7898 554.092 94.3125 553.32 94.6932C552.553 95.0739 551.652 95.2642 550.618 95.2642ZM558.721 95V81.9091H561.184V83.9886H561.32C561.559 83.2841 561.979 82.7301 562.582 82.3267C563.19 81.9176 563.877 81.7131 564.644 81.7131C564.803 81.7131 564.991 81.7187 565.207 81.7301C565.428 81.7415 565.602 81.7557 565.727 81.7727V84.2102C565.624 84.1818 565.442 84.1506 565.181 84.1165C564.92 84.0767 564.658 84.0568 564.397 84.0568C563.795 84.0568 563.258 84.1847 562.786 84.4403C562.32 84.6903 561.951 85.0398 561.678 85.4886C561.406 85.9318 561.269 86.4375 561.269 87.0057V95H558.721ZM576.224 89.571V81.9091H578.781V95H576.276V92.733H576.139C575.838 93.4318 575.355 94.0142 574.69 94.4801C574.031 94.9403 573.21 95.1705 572.227 95.1705C571.386 95.1705 570.642 94.9858 569.994 94.6165C569.352 94.2415 568.847 93.6875 568.477 92.9545C568.114 92.2216 567.932 91.3153 567.932 90.2358V81.9091H570.48V89.929C570.48 90.821 570.727 91.5312 571.222 92.0597C571.716 92.5881 572.358 92.8523 573.148 92.8523C573.625 92.8523 574.099 92.733 574.571 92.4943C575.048 92.2557 575.443 91.8949 575.756 91.4119C576.074 90.929 576.23 90.3153 576.224 89.571ZM582.205 95V81.9091H584.754V95H582.205ZM583.492 79.8892C583.049 79.8892 582.668 79.7415 582.35 79.446C582.038 79.1449 581.881 78.7869 581.881 78.3722C581.881 77.9517 582.038 77.5937 582.35 77.2983C582.668 76.9972 583.049 76.8466 583.492 76.8466C583.935 76.8466 584.313 76.9972 584.626 77.2983C584.944 77.5937 585.103 77.9517 585.103 78.3722C585.103 78.7869 584.944 79.1449 584.626 79.446C584.313 79.7415 583.935 79.8892 583.492 79.8892ZM594.293 81.9091V83.9545H587.142V81.9091H594.293ZM589.06 78.7727H591.608V91.1562C591.608 91.6506 591.682 92.0227 591.83 92.2727C591.977 92.517 592.168 92.6847 592.401 92.7756C592.639 92.8608 592.898 92.9034 593.176 92.9034C593.381 92.9034 593.56 92.8892 593.713 92.8608C593.866 92.8324 593.986 92.8097 594.071 92.7926L594.531 94.8977C594.384 94.9545 594.173 95.0114 593.901 95.0682C593.628 95.1307 593.287 95.1648 592.878 95.1705C592.207 95.1818 591.582 95.0625 591.003 94.8125C590.423 94.5625 589.955 94.1761 589.597 93.6534C589.239 93.1307 589.06 92.4744 589.06 91.6847V78.7727ZM597.112 95V81.9091H599.66V95H597.112ZM598.398 79.8892C597.955 79.8892 597.575 79.7415 597.256 79.446C596.944 79.1449 596.788 78.7869 596.788 78.3722C596.788 77.9517 596.944 77.5937 597.256 77.2983C597.575 76.9972 597.955 76.8466 598.398 76.8466C598.842 76.8466 599.219 76.9972 599.532 77.2983C599.85 77.5937 600.009 77.9517 600.009 78.3722C600.009 78.7869 599.85 79.1449 599.532 79.446C599.219 79.7415 598.842 79.8892 598.398 79.8892ZM605.636 87.2273V95H603.088V81.9091H605.534V84.0398H605.696C605.997 83.3466 606.469 82.7898 607.111 82.3693C607.759 81.9489 608.574 81.7386 609.557 81.7386C610.449 81.7386 611.23 81.9261 611.901 82.3011C612.571 82.6705 613.091 83.2216 613.46 83.9545C613.83 84.6875 614.014 85.5937 614.014 86.6733V95H611.466V86.9801C611.466 86.0312 611.219 85.2898 610.724 84.7557C610.23 84.2159 609.551 83.946 608.688 83.946C608.097 83.946 607.571 84.0739 607.111 84.3295C606.656 84.5852 606.295 84.9602 606.028 85.4545C605.767 85.9432 605.636 86.5341 605.636 87.2273ZM622.92 100.182C621.881 100.182 620.986 100.045 620.236 99.7727C619.491 99.5 618.884 99.1392 618.412 98.6903C617.94 98.2415 617.588 97.75 617.355 97.2159L619.545 96.3125C619.699 96.5625 619.903 96.8267 620.159 97.1051C620.42 97.3892 620.773 97.6307 621.216 97.8295C621.665 98.0284 622.241 98.1278 622.946 98.1278C623.912 98.1278 624.71 97.892 625.341 97.4205C625.972 96.9545 626.287 96.2102 626.287 95.1875V92.6136H626.125C625.972 92.892 625.75 93.2017 625.46 93.5426C625.176 93.8835 624.784 94.179 624.284 94.429C623.784 94.679 623.134 94.804 622.332 94.804C621.298 94.804 620.366 94.5625 619.537 94.0795C618.713 93.5909 618.06 92.8722 617.577 91.9233C617.099 90.9687 616.861 89.7955 616.861 88.4034C616.861 87.0114 617.097 85.8182 617.568 84.8239C618.045 83.8295 618.699 83.0682 619.528 82.5398C620.358 82.0057 621.298 81.7386 622.349 81.7386C623.162 81.7386 623.818 81.875 624.318 82.1477C624.818 82.4148 625.207 82.7273 625.486 83.0852C625.77 83.4432 625.989 83.7585 626.142 84.0312H626.33V81.9091H628.827V95.2898C628.827 96.4148 628.565 97.3381 628.043 98.0597C627.52 98.7813 626.813 99.3153 625.92 99.6619C625.034 100.009 624.034 100.182 622.92 100.182ZM622.895 92.6903C623.628 92.6903 624.247 92.5199 624.753 92.179C625.264 91.8324 625.651 91.3381 625.912 90.696C626.179 90.0483 626.312 89.2727 626.312 88.3693C626.312 87.4886 626.182 86.7131 625.92 86.0426C625.659 85.3722 625.276 84.8494 624.77 84.4744C624.264 84.0937 623.639 83.9034 622.895 83.9034C622.128 83.9034 621.489 84.1023 620.977 84.5C620.466 84.892 620.08 85.4261 619.818 86.1023C619.563 86.7784 619.435 87.5341 619.435 88.3693C619.435 89.2273 619.565 89.9801 619.827 90.6278C620.088 91.2756 620.474 91.7812 620.986 92.1449C621.503 92.5085 622.139 92.6903 622.895 92.6903ZM638.8 95V77.5455H645.022C646.38 77.5455 647.505 77.7926 648.397 78.2869C649.289 78.7812 649.957 79.4574 650.4 80.3153C650.843 81.1676 651.065 82.1278 651.065 83.196C651.065 84.2699 650.84 85.2358 650.391 86.0938C649.948 86.946 649.278 87.6222 648.38 88.1222C647.488 88.6165 646.366 88.8636 645.013 88.8636H640.735V86.6307H644.775C645.633 86.6307 646.329 86.483 646.863 86.1875C647.397 85.8864 647.789 85.4773 648.039 84.9602C648.289 84.4432 648.414 83.8551 648.414 83.196C648.414 82.5369 648.289 81.9517 648.039 81.4403C647.789 80.929 647.394 80.5284 646.854 80.2386C646.32 79.9489 645.616 79.804 644.741 79.804H641.434V95H638.8ZM657.64 95.2898C656.81 95.2898 656.06 95.1364 655.39 94.8295C654.719 94.517 654.188 94.0653 653.796 93.4744C653.41 92.8835 653.217 92.1591 653.217 91.3011C653.217 90.5625 653.359 89.9545 653.643 89.4773C653.927 89 654.31 88.6222 654.793 88.3438C655.276 88.0653 655.816 87.8551 656.413 87.7131C657.009 87.571 657.617 87.4631 658.237 87.3892C659.021 87.2983 659.657 87.2244 660.146 87.1676C660.634 87.1051 660.989 87.0057 661.211 86.8693C661.433 86.733 661.543 86.5114 661.543 86.2045V86.1449C661.543 85.4006 661.333 84.8239 660.913 84.4148C660.498 84.0057 659.879 83.8011 659.055 83.8011C658.197 83.8011 657.521 83.9915 657.026 84.3722C656.538 84.7472 656.2 85.1648 656.012 85.625L653.617 85.0795C653.901 84.2841 654.316 83.642 654.862 83.1534C655.413 82.6591 656.046 82.3011 656.762 82.0795C657.478 81.8523 658.231 81.7386 659.021 81.7386C659.543 81.7386 660.097 81.8011 660.683 81.9261C661.273 82.0455 661.825 82.267 662.336 82.5909C662.853 82.9148 663.276 83.3778 663.606 83.9801C663.935 84.5767 664.1 85.3523 664.1 86.3068V95H661.612V93.2102H661.509C661.344 93.5398 661.097 93.8636 660.768 94.1818C660.438 94.5 660.015 94.7642 659.498 94.9744C658.981 95.1847 658.362 95.2898 657.64 95.2898ZM658.194 93.2443C658.898 93.2443 659.501 93.1051 660.001 92.8267C660.506 92.5483 660.89 92.1847 661.151 91.7358C661.418 91.2812 661.552 90.7955 661.552 90.2784V88.5909C661.461 88.6818 661.285 88.767 661.023 88.8466C660.768 88.9205 660.475 88.9858 660.146 89.0426C659.816 89.0937 659.495 89.142 659.183 89.1875C658.87 89.2273 658.609 89.2614 658.398 89.2898C657.904 89.3523 657.452 89.4574 657.043 89.6051C656.64 89.7528 656.316 89.9659 656.072 90.2443C655.833 90.517 655.714 90.8807 655.714 91.3352C655.714 91.9659 655.947 92.4432 656.413 92.767C656.879 93.0852 657.472 93.2443 658.194 93.2443ZM667.494 95V81.9091H669.957V83.9886H670.094C670.332 83.2841 670.753 82.7301 671.355 82.3267C671.963 81.9176 672.651 81.7131 673.418 81.7131C673.577 81.7131 673.764 81.7187 673.98 81.7301C674.202 81.7415 674.375 81.7557 674.5 81.7727V84.2102C674.398 84.1818 674.216 84.1506 673.955 84.1165C673.693 84.0767 673.432 84.0568 673.17 84.0568C672.568 84.0568 672.031 84.1847 671.56 84.4403C671.094 84.6903 670.724 85.0398 670.452 85.4886C670.179 85.9318 670.043 86.4375 670.043 87.0057V95H667.494ZM683.589 81.9091V83.9545H676.439V81.9091H683.589ZM678.357 78.7727H680.905V91.1562C680.905 91.6506 680.979 92.0227 681.126 92.2727C681.274 92.517 681.464 92.6847 681.697 92.7756C681.936 92.8608 682.195 92.9034 682.473 92.9034C682.678 92.9034 682.857 92.8892 683.01 92.8608C683.163 92.8324 683.283 92.8097 683.368 92.7926L683.828 94.8977C683.68 94.9545 683.47 95.0114 683.197 95.0682C682.925 95.1307 682.584 95.1648 682.175 95.1705C681.504 95.1818 680.879 95.0625 680.3 94.8125C679.72 94.5625 679.251 94.1761 678.893 93.6534C678.536 93.1307 678.357 92.4744 678.357 91.6847V78.7727ZM688.957 87.2273V95H686.408V81.9091H688.854V84.0398H689.016C689.317 83.3466 689.789 82.7898 690.431 82.3693C691.079 81.9489 691.894 81.7386 692.877 81.7386C693.769 81.7386 694.55 81.9261 695.221 82.3011C695.891 82.6705 696.411 83.2216 696.781 83.9545C697.15 84.6875 697.335 85.5937 697.335 86.6733V95H694.786V86.9801C694.786 86.0312 694.539 85.2898 694.045 84.7557C693.55 84.2159 692.871 83.946 692.008 83.946C691.417 83.946 690.891 84.0739 690.431 84.3295C689.977 84.5852 689.616 84.9602 689.349 85.4545C689.087 85.9432 688.957 86.5341 688.957 87.2273ZM706.394 95.2642C705.104 95.2642 703.994 94.9886 703.062 94.4375C702.136 93.8807 701.42 93.0994 700.914 92.0938C700.414 91.0824 700.164 89.8977 700.164 88.5398C700.164 87.1989 700.414 86.017 700.914 84.9943C701.42 83.9716 702.124 83.1733 703.028 82.5994C703.937 82.0256 704.999 81.7386 706.215 81.7386C706.954 81.7386 707.67 81.8608 708.363 82.1051C709.056 82.3494 709.678 82.733 710.229 83.2557C710.781 83.7784 711.215 84.4574 711.533 85.2926C711.852 86.1222 712.011 87.1307 712.011 88.3182V89.2216H701.604V87.3125H709.513C709.513 86.642 709.377 86.0483 709.104 85.5312C708.832 85.0085 708.448 84.5966 707.954 84.2955C707.465 83.9943 706.891 83.8438 706.232 83.8438C705.516 83.8438 704.891 84.0199 704.357 84.3722C703.829 84.7187 703.42 85.1733 703.13 85.7358C702.846 86.2926 702.704 86.8977 702.704 87.5511V89.0426C702.704 89.9176 702.857 90.6619 703.164 91.2756C703.477 91.8892 703.911 92.358 704.468 92.6818C705.025 93 705.675 93.1591 706.42 93.1591C706.903 93.1591 707.343 93.0909 707.741 92.9545C708.138 92.8125 708.482 92.6023 708.772 92.3239C709.062 92.0455 709.283 91.7017 709.437 91.2926L711.849 91.7273C711.656 92.4375 711.309 93.0597 710.809 93.5938C710.315 94.1222 709.692 94.5341 708.942 94.8295C708.198 95.1193 707.349 95.2642 706.394 95.2642ZM714.838 95V81.9091H717.301V83.9886H717.438C717.676 83.2841 718.097 82.7301 718.699 82.3267C719.307 81.9176 719.994 81.7131 720.761 81.7131C720.92 81.7131 721.108 81.7187 721.324 81.7301C721.545 81.7415 721.719 81.7557 721.844 81.7727V84.2102C721.741 84.1818 721.56 84.1506 721.298 84.1165C721.037 84.0767 720.776 84.0568 720.514 84.0568C719.912 84.0568 719.375 84.1847 718.903 84.4403C718.438 84.6903 718.068 85.0398 717.795 85.4886C717.523 85.9318 717.386 86.4375 717.386 87.0057V95H714.838ZM733.859 85.1051L731.549 85.5142C731.452 85.2187 731.299 84.9375 731.089 84.6705C730.884 84.4034 730.606 84.1847 730.254 84.0142C729.901 83.8437 729.461 83.7585 728.933 83.7585C728.211 83.7585 727.609 83.9205 727.126 84.2443C726.643 84.5625 726.401 84.9744 726.401 85.4801C726.401 85.9176 726.563 86.2699 726.887 86.5369C727.211 86.804 727.734 87.0227 728.455 87.1932L730.535 87.6705C731.739 87.9489 732.637 88.3778 733.228 88.9574C733.819 89.5369 734.114 90.2898 734.114 91.2159C734.114 92 733.887 92.6989 733.433 93.3125C732.984 93.9205 732.356 94.3977 731.549 94.7443C730.748 95.0909 729.819 95.2642 728.762 95.2642C727.296 95.2642 726.1 94.9517 725.174 94.3267C724.248 93.696 723.68 92.8011 723.469 91.642L725.933 91.267C726.086 91.9091 726.401 92.3949 726.879 92.7244C727.356 93.0483 727.978 93.2102 728.745 93.2102C729.58 93.2102 730.248 93.0369 730.748 92.6903C731.248 92.3381 731.498 91.9091 731.498 91.4034C731.498 90.9943 731.344 90.6506 731.038 90.3722C730.737 90.0937 730.273 89.8835 729.648 89.7415L727.433 89.2557C726.211 88.9773 725.308 88.5341 724.722 87.9261C724.143 87.3182 723.853 86.5483 723.853 85.6165C723.853 84.8437 724.069 84.1676 724.501 83.5881C724.933 83.0085 725.529 82.5568 726.29 82.233C727.052 81.9034 727.924 81.7386 728.907 81.7386C730.322 81.7386 731.435 82.0455 732.248 82.6591C733.06 83.267 733.597 84.0824 733.859 85.1051Z" fill="black"/>
<path d="M831.011 42.7273V66H826.091V47.3977H825.955L820.625 50.7386V46.375L826.386 42.7273H831.011ZM845.668 66.5114C843.713 66.5038 842.031 66.0227 840.622 65.0682C839.221 64.1136 838.141 62.7311 837.384 60.9205C836.634 59.1098 836.262 56.9318 836.27 54.3864C836.27 51.8485 836.645 49.6856 837.395 47.8977C838.152 46.1098 839.232 44.75 840.634 43.8182C842.043 42.8788 843.721 42.4091 845.668 42.4091C847.615 42.4091 849.289 42.8788 850.69 43.8182C852.099 44.7576 853.183 46.1212 853.94 47.9091C854.698 49.6894 855.073 51.8485 855.065 54.3864C855.065 56.9394 854.687 59.1212 853.929 60.9318C853.179 62.7424 852.103 64.125 850.702 65.0795C849.3 66.0341 847.622 66.5114 845.668 66.5114ZM845.668 62.4318C847.001 62.4318 848.065 61.7614 848.861 60.4205C849.656 59.0795 850.05 57.0682 850.043 54.3864C850.043 52.6212 849.861 51.1515 849.497 49.9773C849.141 48.803 848.634 47.9205 847.974 47.3295C847.323 46.7386 846.554 46.4432 845.668 46.4432C844.342 46.4432 843.281 47.1061 842.486 48.4318C841.69 49.7576 841.289 51.7424 841.281 54.3864C841.281 56.1742 841.459 57.6667 841.815 58.8636C842.179 60.053 842.69 60.947 843.349 61.5455C844.009 62.1364 844.781 62.4318 845.668 62.4318ZM861.449 63.2955C860.699 63.2955 860.055 63.0303 859.517 62.5C858.987 61.9697 858.722 61.3258 858.722 60.5682C858.722 59.8258 858.987 59.1894 859.517 58.6591C860.055 58.1288 860.699 57.8636 861.449 57.8636C862.176 57.8636 862.813 58.1288 863.358 58.6591C863.903 59.1894 864.176 59.8258 864.176 60.5682C864.176 61.0682 864.047 61.5265 863.79 61.9432C863.54 62.3523 863.21 62.6818 862.801 62.9318C862.392 63.1742 861.941 63.2955 861.449 63.2955ZM861.449 51.875C860.699 51.875 860.055 51.6098 859.517 51.0795C858.987 50.5492 858.722 49.9053 858.722 49.1477C858.722 48.4053 858.987 47.7727 859.517 47.25C860.055 46.7197 860.699 46.4545 861.449 46.4545C862.176 46.4545 862.813 46.7197 863.358 47.25C863.903 47.7727 864.176 48.4053 864.176 49.1477C864.176 49.6553 864.047 50.1174 863.79 50.5341C863.54 50.9432 863.21 51.2689 862.801 51.5114C862.392 51.7538 861.941 51.875 861.449 51.875ZM877.23 66.5114C875.276 66.5038 873.594 66.0227 872.185 65.0682C870.783 64.1136 869.704 62.7311 868.946 60.9205C868.196 59.1098 867.825 56.9318 867.832 54.3864C867.832 51.8485 868.207 49.6856 868.957 47.8977C869.715 46.1098 870.795 44.75 872.196 43.8182C873.605 42.8788 875.283 42.4091 877.23 42.4091C879.177 42.4091 880.851 42.8788 882.253 43.8182C883.662 44.7576 884.745 46.1212 885.503 47.9091C886.26 49.6894 886.635 51.8485 886.628 54.3864C886.628 56.9394 886.249 59.1212 885.491 60.9318C884.741 62.7424 883.666 64.125 882.264 65.0795C880.863 66.0341 879.185 66.5114 877.23 66.5114ZM877.23 62.4318C878.563 62.4318 879.628 61.7614 880.423 60.4205C881.219 59.0795 881.613 57.0682 881.605 54.3864C881.605 52.6212 881.423 51.1515 881.06 49.9773C880.704 48.803 880.196 47.9205 879.537 47.3295C878.885 46.7386 878.116 46.4432 877.23 46.4432C875.904 46.4432 874.844 47.1061 874.048 48.4318C873.253 49.7576 872.851 51.7424 872.844 54.3864C872.844 56.1742 873.022 57.6667 873.378 58.8636C873.741 60.053 874.253 60.947 874.912 61.5455C875.571 62.1364 876.344 62.4318 877.23 62.4318ZM899.261 66.5114C897.307 66.5038 895.625 66.0227 894.216 65.0682C892.814 64.1136 891.735 62.7311 890.977 60.9205C890.227 59.1098 889.856 56.9318 889.864 54.3864C889.864 51.8485 890.239 49.6856 890.989 47.8977C891.746 46.1098 892.826 44.75 894.227 43.8182C895.636 42.8788 897.314 42.4091 899.261 42.4091C901.208 42.4091 902.883 42.8788 904.284 43.8182C905.693 44.7576 906.777 46.1212 907.534 47.9091C908.292 49.6894 908.667 51.8485 908.659 54.3864C908.659 56.9394 908.28 59.1212 907.523 60.9318C906.773 62.7424 905.697 64.125 904.295 65.0795C902.894 66.0341 901.216 66.5114 899.261 66.5114ZM899.261 62.4318C900.595 62.4318 901.659 61.7614 902.455 60.4205C903.25 59.0795 903.644 57.0682 903.636 54.3864C903.636 52.6212 903.455 51.1515 903.091 49.9773C902.735 48.803 902.227 47.9205 901.568 47.3295C900.917 46.7386 900.148 46.4432 899.261 46.4432C897.936 46.4432 896.875 47.1061 896.08 48.4318C895.284 49.7576 894.883 51.7424 894.875 54.3864C894.875 56.1742 895.053 57.6667 895.409 58.8636C895.773 60.053 896.284 60.947 896.943 61.5455C897.602 62.1364 898.375 62.4318 899.261 62.4318ZM924.597 66.3295C923.483 66.3295 922.491 66.1364 921.619 65.75C920.748 65.3561 920.059 64.7765 919.551 64.0114C919.051 63.2386 918.801 62.2765 918.801 61.125C918.801 60.1553 918.979 59.3409 919.335 58.6818C919.691 58.0227 920.176 57.4924 920.79 57.0909C921.403 56.6894 922.1 56.3864 922.881 56.1818C923.669 55.9773 924.494 55.8333 925.358 55.75C926.373 55.6439 927.191 55.5455 927.812 55.4545C928.434 55.3561 928.884 55.2121 929.165 55.0227C929.445 54.8333 929.585 54.553 929.585 54.1818V54.1136C929.585 53.3939 929.358 52.8371 928.903 52.4432C928.456 52.0492 927.82 51.8523 926.994 51.8523C926.123 51.8523 925.43 52.0455 924.915 52.4318C924.4 52.8106 924.059 53.2879 923.892 53.8636L919.415 53.5C919.642 52.4394 920.089 51.5227 920.756 50.75C921.422 49.9697 922.282 49.3712 923.335 48.9545C924.396 48.5303 925.623 48.3182 927.017 48.3182C927.987 48.3182 928.915 48.4318 929.801 48.6591C930.695 48.8864 931.487 49.2386 932.176 49.7159C932.873 50.1932 933.422 50.8068 933.824 51.5568C934.225 52.2992 934.426 53.1894 934.426 54.2273V66H929.835V63.5795H929.699C929.419 64.125 929.044 64.6061 928.574 65.0227C928.104 65.4318 927.54 65.7538 926.881 65.9886C926.222 66.2159 925.46 66.3295 924.597 66.3295ZM925.983 62.9886C926.695 62.9886 927.324 62.8485 927.869 62.5682C928.415 62.2803 928.843 61.8939 929.153 61.4091C929.464 60.9242 929.619 60.375 929.619 59.7614V57.9091C929.468 58.0076 929.259 58.0985 928.994 58.1818C928.737 58.2576 928.445 58.3295 928.119 58.3977C927.794 58.4583 927.468 58.5152 927.142 58.5682C926.816 58.6136 926.521 58.6553 926.256 58.6932C925.688 58.7765 925.191 58.9091 924.767 59.0909C924.343 59.2727 924.013 59.5189 923.778 59.8295C923.544 60.1326 923.426 60.5114 923.426 60.9659C923.426 61.625 923.665 62.1288 924.142 62.4773C924.627 62.8182 925.241 62.9886 925.983 62.9886ZM938.182 66V48.5455H942.795V51.625H943C943.364 50.6023 943.97 49.7955 944.818 49.2045C945.667 48.6136 946.682 48.3182 947.864 48.3182C949.061 48.3182 950.08 48.6174 950.92 49.2159C951.761 49.8068 952.322 50.6098 952.602 51.625H952.784C953.14 50.625 953.784 49.8258 954.716 49.2273C955.655 48.6212 956.765 48.3182 958.045 48.3182C959.674 48.3182 960.996 48.8371 962.011 49.875C963.034 50.9053 963.545 52.3674 963.545 54.2614V66H958.716V55.2159C958.716 54.2462 958.458 53.5189 957.943 53.0341C957.428 52.5492 956.784 52.3068 956.011 52.3068C955.133 52.3068 954.447 52.5871 953.955 53.1477C953.462 53.7008 953.216 54.4318 953.216 55.3409V66H948.523V55.1136C948.523 54.2576 948.277 53.5758 947.784 53.0682C947.299 52.5606 946.659 52.3068 945.864 52.3068C945.326 52.3068 944.841 52.4432 944.409 52.7159C943.985 52.9811 943.648 53.3561 943.398 53.8409C943.148 54.3182 943.023 54.8788 943.023 55.5227V66H938.182Z" fill="#9D5B5B"/>
<path d="M820.918 95V77.5455H827.139C828.497 77.5455 829.622 77.7926 830.514 78.2869C831.406 78.7812 832.074 79.4574 832.517 80.3153C832.96 81.1676 833.182 82.1278 833.182 83.196C833.182 84.2699 832.957 85.2358 832.509 86.0938C832.065 86.946 831.395 87.6222 830.497 88.1222C829.605 88.6165 828.483 88.8636 827.131 88.8636H822.852V86.6307H826.892C827.75 86.6307 828.446 86.483 828.98 86.1875C829.514 85.8864 829.906 85.4773 830.156 84.9602C830.406 84.4432 830.531 83.8551 830.531 83.196C830.531 82.5369 830.406 81.9517 830.156 81.4403C829.906 80.929 829.511 80.5284 828.972 80.2386C828.438 79.9489 827.733 79.804 826.858 79.804H823.551V95H820.918ZM836.065 95V81.9091H838.528V83.9886H838.664C838.903 83.2841 839.323 82.7301 839.925 82.3267C840.533 81.9176 841.221 81.7131 841.988 81.7131C842.147 81.7131 842.335 81.7187 842.55 81.7301C842.772 81.7415 842.945 81.7557 843.07 81.7727V84.2102C842.968 84.1818 842.786 84.1506 842.525 84.1165C842.263 84.0767 842.002 84.0568 841.741 84.0568C841.138 84.0568 840.602 84.1847 840.13 84.4403C839.664 84.6903 839.295 85.0398 839.022 85.4886C838.749 85.9318 838.613 86.4375 838.613 87.0057V95H836.065ZM850.321 95.2642C849.094 95.2642 848.023 94.983 847.108 94.4205C846.193 93.858 845.483 93.071 844.977 92.0597C844.472 91.0483 844.219 89.8665 844.219 88.5142C844.219 87.1562 844.472 85.9687 844.977 84.9517C845.483 83.9347 846.193 83.1449 847.108 82.5824C848.023 82.0199 849.094 81.7386 850.321 81.7386C851.548 81.7386 852.619 82.0199 853.534 82.5824C854.449 83.1449 855.159 83.9347 855.665 84.9517C856.17 85.9687 856.423 87.1562 856.423 88.5142C856.423 89.8665 856.17 91.0483 855.665 92.0597C855.159 93.071 854.449 93.858 853.534 94.4205C852.619 94.983 851.548 95.2642 850.321 95.2642ZM850.33 93.125C851.125 93.125 851.784 92.9148 852.307 92.4943C852.83 92.0739 853.216 91.5142 853.466 90.8153C853.722 90.1165 853.849 89.3466 853.849 88.5057C853.849 87.6705 853.722 86.9034 853.466 86.2045C853.216 85.5 852.83 84.9347 852.307 84.5085C851.784 84.0824 851.125 83.8693 850.33 83.8693C849.528 83.8693 848.864 84.0824 848.335 84.5085C847.813 84.9347 847.423 85.5 847.168 86.2045C846.918 86.9034 846.793 87.6705 846.793 88.5057C846.793 89.3466 846.918 90.1165 847.168 90.8153C847.423 91.5142 847.813 92.0739 848.335 92.4943C848.864 92.9148 849.528 93.125 850.33 93.125ZM864.756 100.182C863.717 100.182 862.822 100.045 862.072 99.7727C861.327 99.5 860.719 99.1392 860.248 98.6903C859.776 98.2415 859.424 97.75 859.191 97.2159L861.381 96.3125C861.535 96.5625 861.739 96.8267 861.995 97.1051C862.256 97.3892 862.609 97.6307 863.052 97.8295C863.501 98.0284 864.077 98.1278 864.782 98.1278C865.748 98.1278 866.546 97.892 867.177 97.4205C867.808 96.9545 868.123 96.2102 868.123 95.1875V92.6136H867.961C867.808 92.892 867.586 93.2017 867.296 93.5426C867.012 93.8835 866.62 94.179 866.12 94.429C865.62 94.679 864.969 94.804 864.168 94.804C863.134 94.804 862.202 94.5625 861.373 94.0795C860.549 93.5909 859.896 92.8722 859.413 91.9233C858.935 90.9687 858.697 89.7955 858.697 88.4034C858.697 87.0114 858.933 85.8182 859.404 84.8239C859.881 83.8295 860.535 83.0682 861.364 82.5398C862.194 82.0057 863.134 81.7386 864.185 81.7386C864.998 81.7386 865.654 81.875 866.154 82.1477C866.654 82.4148 867.043 82.7273 867.322 83.0852C867.606 83.4432 867.825 83.7585 867.978 84.0312H868.165V81.9091H870.663V95.2898C870.663 96.4148 870.401 97.3381 869.879 98.0597C869.356 98.7813 868.648 99.3153 867.756 99.6619C866.87 100.009 865.87 100.182 864.756 100.182ZM864.731 92.6903C865.464 92.6903 866.083 92.5199 866.589 92.179C867.1 91.8324 867.487 91.3381 867.748 90.696C868.015 90.0483 868.148 89.2727 868.148 88.3693C868.148 87.4886 868.018 86.7131 867.756 86.0426C867.495 85.3722 867.112 84.8494 866.606 84.4744C866.1 84.0937 865.475 83.9034 864.731 83.9034C863.964 83.9034 863.325 84.1023 862.813 84.5C862.302 84.892 861.915 85.4261 861.654 86.1023C861.398 86.7784 861.271 87.5341 861.271 88.3693C861.271 89.2273 861.401 89.9801 861.663 90.6278C861.924 91.2756 862.31 91.7812 862.822 92.1449C863.339 92.5085 863.975 92.6903 864.731 92.6903ZM874.08 95V81.9091H876.543V83.9886H876.68C876.918 83.2841 877.339 82.7301 877.941 82.3267C878.549 81.9176 879.237 81.7131 880.004 81.7131C880.163 81.7131 880.35 81.7187 880.566 81.7301C880.788 81.7415 880.961 81.7557 881.086 81.7727V84.2102C880.984 84.1818 880.802 84.1506 880.54 84.1165C880.279 84.0767 880.018 84.0568 879.756 84.0568C879.154 84.0568 878.617 84.1847 878.146 84.4403C877.68 84.6903 877.31 85.0398 877.038 85.4886C876.765 85.9318 876.629 86.4375 876.629 87.0057V95H874.08ZM886.984 95.2898C886.154 95.2898 885.404 95.1364 884.734 94.8295C884.063 94.517 883.532 94.0653 883.14 93.4744C882.754 92.8835 882.56 92.1591 882.56 91.3011C882.56 90.5625 882.702 89.9545 882.987 89.4773C883.271 89 883.654 88.6222 884.137 88.3438C884.62 88.0653 885.16 87.8551 885.756 87.7131C886.353 87.571 886.961 87.4631 887.58 87.3892C888.364 87.2983 889.001 87.2244 889.489 87.1676C889.978 87.1051 890.333 87.0057 890.555 86.8693C890.776 86.733 890.887 86.5114 890.887 86.2045V86.1449C890.887 85.4006 890.677 84.8239 890.256 84.4148C889.842 84.0057 889.222 83.8011 888.398 83.8011C887.54 83.8011 886.864 83.9915 886.37 84.3722C885.881 84.7472 885.543 85.1648 885.356 85.625L882.961 85.0795C883.245 84.2841 883.66 83.642 884.205 83.1534C884.756 82.6591 885.39 82.3011 886.106 82.0795C886.822 81.8523 887.575 81.7386 888.364 81.7386C888.887 81.7386 889.441 81.8011 890.026 81.9261C890.617 82.0455 891.168 82.267 891.68 82.5909C892.197 82.9148 892.62 83.3778 892.95 83.9801C893.279 84.5767 893.444 85.3523 893.444 86.3068V95H890.955V93.2102H890.853C890.688 93.5398 890.441 93.8636 890.112 94.1818C889.782 94.5 889.359 94.7642 888.842 94.9744C888.325 95.1847 887.705 95.2898 886.984 95.2898ZM887.538 93.2443C888.242 93.2443 888.844 93.1051 889.344 92.8267C889.85 92.5483 890.234 92.1847 890.495 91.7358C890.762 91.2812 890.896 90.7955 890.896 90.2784V88.5909C890.805 88.6818 890.629 88.767 890.367 88.8466C890.112 88.9205 889.819 88.9858 889.489 89.0426C889.16 89.0937 888.839 89.142 888.526 89.1875C888.214 89.2273 887.952 89.2614 887.742 89.2898C887.248 89.3523 886.796 89.4574 886.387 89.6051C885.984 89.7528 885.66 89.9659 885.415 90.2443C885.177 90.517 885.058 90.8807 885.058 91.3352C885.058 91.9659 885.29 92.4432 885.756 92.767C886.222 93.0852 886.816 93.2443 887.538 93.2443ZM896.838 95V81.9091H899.284V84.0398H899.446C899.719 83.3182 900.165 82.7557 900.784 82.3523C901.403 81.9432 902.145 81.7386 903.009 81.7386C903.884 81.7386 904.616 81.9432 905.207 82.3523C905.804 82.7614 906.244 83.3239 906.528 84.0398H906.665C906.977 83.3409 907.474 82.7841 908.156 82.3693C908.838 81.9489 909.651 81.7386 910.594 81.7386C911.781 81.7386 912.75 82.1108 913.5 82.8551C914.256 83.5994 914.634 84.7216 914.634 86.2216V95H912.085V86.4602C912.085 85.5739 911.844 84.9318 911.361 84.5341C910.878 84.1364 910.301 83.9375 909.631 83.9375C908.801 83.9375 908.156 84.1932 907.696 84.7045C907.236 85.2102 907.006 85.8608 907.006 86.6562V95H904.466V86.2983C904.466 85.5881 904.244 85.017 903.801 84.5852C903.358 84.1534 902.781 83.9375 902.071 83.9375C901.588 83.9375 901.142 84.0653 900.733 84.321C900.33 84.571 900.003 84.9205 899.753 85.3693C899.509 85.8182 899.386 86.3381 899.386 86.929V95H896.838ZM923.744 79.8125V77.5455H937.253V79.8125H931.807V95H929.182V79.8125H923.744ZM938.674 95V81.9091H941.137V83.9886H941.273C941.512 83.2841 941.933 82.7301 942.535 82.3267C943.143 81.9176 943.83 81.7131 944.597 81.7131C944.756 81.7131 944.944 81.7187 945.16 81.7301C945.381 81.7415 945.555 81.7557 945.68 81.7727V84.2102C945.577 84.1818 945.396 84.1506 945.134 84.1165C944.873 84.0767 944.612 84.0568 944.35 84.0568C943.748 84.0568 943.211 84.1847 942.739 84.4403C942.273 84.6903 941.904 85.0398 941.631 85.4886C941.359 85.9318 941.222 86.4375 941.222 87.0057V95H938.674ZM951.577 95.2898C950.748 95.2898 949.998 95.1364 949.327 94.8295C948.657 94.517 948.126 94.0653 947.734 93.4744C947.347 92.8835 947.154 92.1591 947.154 91.3011C947.154 90.5625 947.296 89.9545 947.58 89.4773C947.864 89 948.248 88.6222 948.731 88.3438C949.214 88.0653 949.754 87.8551 950.35 87.7131C950.947 87.571 951.555 87.4631 952.174 87.3892C952.958 87.2983 953.594 87.2244 954.083 87.1676C954.572 87.1051 954.927 87.0057 955.148 86.8693C955.37 86.733 955.481 86.5114 955.481 86.2045V86.1449C955.481 85.4006 955.271 84.8239 954.85 84.4148C954.435 84.0057 953.816 83.8011 952.992 83.8011C952.134 83.8011 951.458 83.9915 950.964 84.3722C950.475 84.7472 950.137 85.1648 949.95 85.625L947.555 85.0795C947.839 84.2841 948.254 83.642 948.799 83.1534C949.35 82.6591 949.984 82.3011 950.7 82.0795C951.415 81.8523 952.168 81.7386 952.958 81.7386C953.481 81.7386 954.035 81.8011 954.62 81.9261C955.211 82.0455 955.762 82.267 956.273 82.5909C956.79 82.9148 957.214 83.3778 957.543 83.9801C957.873 84.5767 958.038 85.3523 958.038 86.3068V95H955.549V93.2102H955.447C955.282 93.5398 955.035 93.8636 954.705 94.1818C954.376 94.5 953.952 94.7642 953.435 94.9744C952.918 95.1847 952.299 95.2898 951.577 95.2898ZM952.131 93.2443C952.836 93.2443 953.438 93.1051 953.938 92.8267C954.444 92.5483 954.827 92.1847 955.089 91.7358C955.356 91.2812 955.489 90.7955 955.489 90.2784V88.5909C955.398 88.6818 955.222 88.767 954.961 88.8466C954.705 88.9205 954.413 88.9858 954.083 89.0426C953.754 89.0937 953.433 89.142 953.12 89.1875C952.808 89.2273 952.546 89.2614 952.336 89.2898C951.842 89.3523 951.39 89.4574 950.981 89.6051C950.577 89.7528 950.254 89.9659 950.009 90.2443C949.771 90.517 949.651 90.8807 949.651 91.3352C949.651 91.9659 949.884 92.4432 950.35 92.767C950.816 93.0852 951.41 93.2443 952.131 93.2443ZM961.432 95V81.9091H963.98V95H961.432ZM962.719 79.8892C962.276 79.8892 961.895 79.7415 961.577 79.446C961.264 79.1449 961.108 78.7869 961.108 78.3722C961.108 77.9517 961.264 77.5937 961.577 77.2983C961.895 76.9972 962.276 76.8466 962.719 76.8466C963.162 76.8466 963.54 76.9972 963.852 77.2983C964.17 77.5937 964.33 77.9517 964.33 78.3722C964.33 78.7869 964.17 79.1449 963.852 79.446C963.54 79.7415 963.162 79.8892 962.719 79.8892ZM969.957 87.2273V95H967.408V81.9091H969.854V84.0398H970.016C970.317 83.3466 970.789 82.7898 971.431 82.3693C972.079 81.9489 972.894 81.7386 973.877 81.7386C974.769 81.7386 975.55 81.9261 976.221 82.3011C976.891 82.6705 977.411 83.2216 977.781 83.9545C978.15 84.6875 978.335 85.5937 978.335 86.6733V95H975.786V86.9801C975.786 86.0312 975.539 85.2898 975.045 84.7557C974.55 84.2159 973.871 83.946 973.008 83.946C972.417 83.946 971.891 84.0739 971.431 84.3295C970.977 84.5852 970.616 84.9602 970.349 85.4545C970.087 85.9432 969.957 86.5341 969.957 87.2273ZM981.752 95V81.9091H984.3V95H981.752ZM983.039 79.8892C982.596 79.8892 982.215 79.7415 981.897 79.446C981.585 79.1449 981.428 78.7869 981.428 78.3722C981.428 77.9517 981.585 77.5937 981.897 77.2983C982.215 76.9972 982.596 76.8466 983.039 76.8466C983.482 76.8466 983.86 76.9972 984.173 77.2983C984.491 77.5937 984.65 77.9517 984.65 78.3722C984.65 78.7869 984.491 79.1449 984.173 79.446C983.86 79.7415 983.482 79.8892 983.039 79.8892ZM990.277 87.2273V95H987.729V81.9091H990.175V84.0398H990.337C990.638 83.3466 991.109 82.7898 991.751 82.3693C992.399 81.9489 993.214 81.7386 994.197 81.7386C995.089 81.7386 995.871 81.9261 996.541 82.3011C997.212 82.6705 997.732 83.2216 998.101 83.9545C998.47 84.6875 998.655 85.5937 998.655 86.6733V95H996.107V86.9801C996.107 86.0312 995.859 85.2898 995.365 84.7557C994.871 84.2159 994.192 83.946 993.328 83.946C992.737 83.946 992.212 84.0739 991.751 84.3295C991.297 84.5852 990.936 84.9602 990.669 85.4545C990.408 85.9432 990.277 86.5341 990.277 87.2273ZM1007.56 100.182C1006.52 100.182 1005.63 100.045 1004.88 99.7727C1004.13 99.5 1003.52 99.1392 1003.05 98.6903C1002.58 98.2415 1002.23 97.75 1002 97.2159L1004.19 96.3125C1004.34 96.5625 1004.54 96.8267 1004.8 97.1051C1005.06 97.3892 1005.41 97.6307 1005.86 97.8295C1006.31 98.0284 1006.88 98.1278 1007.59 98.1278C1008.55 98.1278 1009.35 97.892 1009.98 97.4205C1010.61 96.9545 1010.93 96.2102 1010.93 95.1875V92.6136H1010.77C1010.61 92.892 1010.39 93.2017 1010.1 93.5426C1009.82 93.8835 1009.42 94.179 1008.92 94.429C1008.42 94.679 1007.77 94.804 1006.97 94.804C1005.94 94.804 1005.01 94.5625 1004.18 94.0795C1003.35 93.5909 1002.7 92.8722 1002.22 91.9233C1001.74 90.9687 1001.5 89.7955 1001.5 88.4034C1001.5 87.0114 1001.74 85.8182 1002.21 84.8239C1002.69 83.8295 1003.34 83.0682 1004.17 82.5398C1005 82.0057 1005.94 81.7386 1006.99 81.7386C1007.8 81.7386 1008.46 81.875 1008.96 82.1477C1009.46 82.4148 1009.85 82.7273 1010.13 83.0852C1010.41 83.4432 1010.63 83.7585 1010.78 84.0312H1010.97V81.9091H1013.47V95.2898C1013.47 96.4148 1013.21 97.3381 1012.68 98.0597C1012.16 98.7813 1011.45 99.3153 1010.56 99.6619C1009.67 100.009 1008.67 100.182 1007.56 100.182ZM1007.54 92.6903C1008.27 92.6903 1008.89 92.5199 1009.39 92.179C1009.9 91.8324 1010.29 91.3381 1010.55 90.696C1010.82 90.0483 1010.95 89.2727 1010.95 88.3693C1010.95 87.4886 1010.82 86.7131 1010.56 86.0426C1010.3 85.3722 1009.92 84.8494 1009.41 84.4744C1008.9 84.0937 1008.28 83.9034 1007.54 83.9034C1006.77 83.9034 1006.13 84.1023 1005.62 84.5C1005.11 84.892 1004.72 85.4261 1004.46 86.1023C1004.2 86.7784 1004.08 87.5341 1004.08 88.3693C1004.08 89.2273 1004.21 89.9801 1004.47 90.6278C1004.73 91.2756 1005.12 91.7812 1005.63 92.1449C1006.14 92.5085 1006.78 92.6903 1007.54 92.6903Z" fill="black"/>
<path d="M1117.01 39.7273V63H1112.09V44.3977H1111.95L1106.62 47.7386V43.375L1112.39 39.7273H1117.01ZM1132.67 39.7273V63H1127.75V44.3977H1127.61L1122.28 47.7386V43.375L1128.04 39.7273H1132.67ZM1147.53 45.5455V49.1818H1137.02V45.5455H1147.53ZM1139.4 41.3636H1144.24V57.6364C1144.24 58.0833 1144.31 58.4318 1144.45 58.6818C1144.59 58.9242 1144.77 59.0947 1145.02 59.1932C1145.27 59.2917 1145.55 59.3409 1145.88 59.3409C1146.11 59.3409 1146.34 59.322 1146.56 59.2841C1146.79 59.2386 1146.96 59.2045 1147.09 59.1818L1147.85 62.7841C1147.6 62.8598 1147.26 62.947 1146.82 63.0455C1146.38 63.1515 1145.85 63.2159 1145.22 63.2386C1144.05 63.2841 1143.03 63.1288 1142.15 62.7727C1141.28 62.4167 1140.6 61.8636 1140.12 61.1136C1139.63 60.3636 1139.4 59.4167 1139.4 58.2727V41.3636ZM1155.9 52.9091V63H1151.06V39.7273H1155.76V48.625H1155.97C1156.36 47.5947 1157 46.7879 1157.88 46.2045C1158.75 45.6136 1159.86 45.3182 1161.18 45.3182C1162.39 45.3182 1163.45 45.5833 1164.35 46.1136C1165.26 46.6364 1165.97 47.3902 1166.47 48.375C1166.97 49.3523 1167.22 50.5227 1167.22 51.8864V63H1162.38V52.75C1162.38 51.6742 1162.11 50.8371 1161.56 50.2386C1161.01 49.6402 1160.25 49.3409 1159.26 49.3409C1158.6 49.3409 1158.02 49.4811 1157.51 49.7614C1157.01 50.0417 1156.62 50.4508 1156.33 50.9886C1156.05 51.5189 1155.91 52.1591 1155.9 52.9091ZM1178.52 39.7273H1184.59L1191 55.3636H1191.27L1197.68 39.7273H1203.75V63H1198.98V47.8523H1198.78L1192.76 62.8864H1189.51L1183.49 47.7955H1183.3V63H1178.52V39.7273ZM1212.69 63.3295C1211.58 63.3295 1210.58 63.1364 1209.71 62.75C1208.84 62.3561 1208.15 61.7765 1207.64 61.0114C1207.14 60.2386 1206.89 59.2765 1206.89 58.125C1206.89 57.1553 1207.07 56.3409 1207.43 55.6818C1207.79 55.0227 1208.27 54.4924 1208.88 54.0909C1209.5 53.6894 1210.19 53.3864 1210.97 53.1818C1211.76 52.9773 1212.59 52.8333 1213.45 52.75C1214.47 52.6439 1215.29 52.5455 1215.91 52.4545C1216.53 52.3561 1216.98 52.2121 1217.26 52.0227C1217.54 51.8333 1217.68 51.553 1217.68 51.1818V51.1136C1217.68 50.3939 1217.45 49.8371 1217 49.4432C1216.55 49.0492 1215.91 48.8523 1215.09 48.8523C1214.22 48.8523 1213.52 49.0455 1213.01 49.4318C1212.49 49.8106 1212.15 50.2879 1211.99 50.8636L1207.51 50.5C1207.74 49.4394 1208.18 48.5227 1208.85 47.75C1209.52 46.9697 1210.38 46.3712 1211.43 45.9545C1212.49 45.5303 1213.72 45.3182 1215.11 45.3182C1216.08 45.3182 1217.01 45.4318 1217.89 45.6591C1218.79 45.8864 1219.58 46.2386 1220.27 46.7159C1220.97 47.1932 1221.52 47.8068 1221.92 48.5568C1222.32 49.2992 1222.52 50.1894 1222.52 51.2273V63H1217.93V60.5795H1217.79C1217.51 61.125 1217.14 61.6061 1216.67 62.0227C1216.2 62.4318 1215.63 62.7538 1214.97 62.9886C1214.32 63.2159 1213.55 63.3295 1212.69 63.3295ZM1214.08 59.9886C1214.79 59.9886 1215.42 59.8485 1215.96 59.5682C1216.51 59.2803 1216.94 58.8939 1217.25 58.4091C1217.56 57.9242 1217.71 57.375 1217.71 56.7614V54.9091C1217.56 55.0076 1217.35 55.0985 1217.09 55.1818C1216.83 55.2576 1216.54 55.3295 1216.21 55.3977C1215.89 55.4583 1215.56 55.5152 1215.24 55.5682C1214.91 55.6136 1214.61 55.6553 1214.35 55.6932C1213.78 55.7765 1213.29 55.9091 1212.86 56.0909C1212.44 56.2727 1212.11 56.5189 1211.87 56.8295C1211.64 57.1326 1211.52 57.5114 1211.52 57.9659C1211.52 58.625 1211.76 59.1288 1212.24 59.4773C1212.72 59.8182 1213.33 59.9886 1214.08 59.9886ZM1228.64 69.5455C1228.03 69.5455 1227.45 69.4962 1226.91 69.3977C1226.38 69.3068 1225.94 69.1894 1225.59 69.0455L1226.68 65.4318C1227.25 65.6061 1227.76 65.7008 1228.22 65.7159C1228.68 65.7311 1229.08 65.625 1229.41 65.3977C1229.75 65.1705 1230.03 64.7841 1230.24 64.2386L1230.53 63.5L1224.26 45.5455H1229.36L1232.97 58.3636H1233.15L1236.8 45.5455H1241.92L1235.14 64.8864C1234.81 65.8258 1234.37 66.6439 1233.81 67.3409C1233.26 68.0455 1232.56 68.5871 1231.71 68.9659C1230.86 69.3523 1229.84 69.5455 1228.64 69.5455Z" fill="#9D5B5B"/>
<path d="M1121.01 74.5455V92H1118.59L1109.71 79.1989H1109.55V92H1106.92V74.5455H1109.36L1118.24 87.3636H1118.4V74.5455H1121.01ZM1130.28 92.2642C1129 92.2642 1127.88 91.9886 1126.95 91.4375C1126.03 90.8807 1125.31 90.0994 1124.8 89.0938C1124.3 88.0824 1124.05 86.8977 1124.05 85.5398C1124.05 84.1989 1124.3 83.017 1124.8 81.9943C1125.31 80.9716 1126.01 80.1733 1126.92 79.5994C1127.83 79.0256 1128.89 78.7386 1130.11 78.7386C1130.84 78.7386 1131.56 78.8608 1132.25 79.1051C1132.95 79.3494 1133.57 79.733 1134.12 80.2557C1134.67 80.7784 1135.11 81.4574 1135.42 82.2926C1135.74 83.1222 1135.9 84.1307 1135.9 85.3182V86.2216H1125.5V84.3125H1133.4C1133.4 83.642 1133.27 83.0483 1133 82.5312C1132.72 82.0085 1132.34 81.5966 1131.84 81.2955C1131.36 80.9943 1130.78 80.8438 1130.12 80.8438C1129.41 80.8438 1128.78 81.0199 1128.25 81.3722C1127.72 81.7187 1127.31 82.1733 1127.02 82.7358C1126.74 83.2926 1126.59 83.8977 1126.59 84.5511V86.0426C1126.59 86.9176 1126.75 87.6619 1127.05 88.2756C1127.37 88.8892 1127.8 89.358 1128.36 89.6818C1128.92 90 1129.57 90.1591 1130.31 90.1591C1130.79 90.1591 1131.23 90.0909 1131.63 89.9545C1132.03 89.8125 1132.37 89.6023 1132.66 89.3239C1132.95 89.0455 1133.17 88.7017 1133.33 88.2926L1135.74 88.7273C1135.55 89.4375 1135.2 90.0597 1134.7 90.5938C1134.21 91.1222 1133.58 91.5341 1132.83 91.8295C1132.09 92.1193 1131.24 92.2642 1130.28 92.2642ZM1141.54 92L1137.69 78.9091H1140.32L1142.89 88.5227H1143.02L1145.59 78.9091H1148.23L1150.78 88.4801H1150.91L1153.46 78.9091H1156.09L1152.25 92H1149.65L1146.99 82.5483H1146.79L1144.13 92H1141.54ZM1165.07 92V74.5455H1171.46C1172.7 74.5455 1173.72 74.75 1174.53 75.1591C1175.35 75.5625 1175.96 76.1108 1176.36 76.804C1176.76 77.4915 1176.96 78.267 1176.96 79.1307C1176.96 79.858 1176.83 80.4716 1176.56 80.9716C1176.3 81.4659 1175.94 81.8636 1175.49 82.1648C1175.05 82.4602 1174.56 82.6761 1174.02 82.8125V82.983C1174.6 83.0114 1175.17 83.1989 1175.72 83.5455C1176.28 83.8864 1176.74 84.3722 1177.1 85.0028C1177.46 85.6335 1177.65 86.4006 1177.65 87.304C1177.65 88.196 1177.44 88.9972 1177.01 89.7074C1176.6 90.4119 1175.96 90.9716 1175.09 91.3864C1174.22 91.7955 1173.11 92 1171.76 92H1165.07ZM1167.7 89.7415H1171.5C1172.76 89.7415 1173.67 89.4972 1174.21 89.0085C1174.76 88.5199 1175.03 87.9091 1175.03 87.1761C1175.03 86.625 1174.89 86.1193 1174.61 85.6591C1174.33 85.1989 1173.94 84.8324 1173.42 84.5597C1172.91 84.2869 1172.3 84.1506 1171.59 84.1506H1167.7V89.7415ZM1167.7 82.0966H1171.23C1171.82 82.0966 1172.35 81.983 1172.82 81.7557C1173.3 81.5284 1173.68 81.2102 1173.96 80.8011C1174.24 80.3864 1174.38 79.8977 1174.38 79.3352C1174.38 78.6136 1174.13 78.0085 1173.62 77.5199C1173.12 77.0312 1172.34 76.7869 1171.3 76.7869H1167.7V82.0966ZM1184.37 92.2898C1183.54 92.2898 1182.79 92.1364 1182.12 91.8295C1181.45 91.517 1180.92 91.0653 1180.53 90.4744C1180.14 89.8835 1179.95 89.1591 1179.95 88.3011C1179.95 87.5625 1180.09 86.9545 1180.38 86.4773C1180.66 86 1181.04 85.6222 1181.53 85.3438C1182.01 85.0653 1182.55 84.8551 1183.15 84.7131C1183.74 84.571 1184.35 84.4631 1184.97 84.3892C1185.75 84.2983 1186.39 84.2244 1186.88 84.1676C1187.37 84.1051 1187.72 84.0057 1187.95 83.8693C1188.17 83.733 1188.28 83.5114 1188.28 83.2045V83.1449C1188.28 82.4006 1188.07 81.8239 1187.65 81.4148C1187.23 81.0057 1186.61 80.8011 1185.79 80.8011C1184.93 80.8011 1184.25 80.9915 1183.76 81.3722C1183.27 81.7472 1182.93 82.1648 1182.75 82.625L1180.35 82.0795C1180.64 81.2841 1181.05 80.642 1181.6 80.1534C1182.15 79.6591 1182.78 79.3011 1183.5 79.0795C1184.21 78.8523 1184.97 78.7386 1185.75 78.7386C1186.28 78.7386 1186.83 78.8011 1187.42 78.9261C1188.01 79.0455 1188.56 79.267 1189.07 79.5909C1189.59 79.9148 1190.01 80.3778 1190.34 80.9801C1190.67 81.5767 1190.83 82.3523 1190.83 83.3068V92H1188.35V90.2102H1188.24C1188.08 90.5398 1187.83 90.8636 1187.5 91.1818C1187.17 91.5 1186.75 91.7642 1186.23 91.9744C1185.72 92.1847 1185.1 92.2898 1184.37 92.2898ZM1184.93 90.2443C1185.63 90.2443 1186.24 90.1051 1186.74 89.8267C1187.24 89.5483 1187.62 89.1847 1187.89 88.7358C1188.15 88.2812 1188.29 87.7955 1188.29 87.2784V85.5909C1188.2 85.6818 1188.02 85.767 1187.76 85.8466C1187.5 85.9205 1187.21 85.9858 1186.88 86.0426C1186.55 86.0937 1186.23 86.142 1185.92 86.1875C1185.6 86.2273 1185.34 86.2614 1185.13 86.2898C1184.64 86.3523 1184.19 86.4574 1183.78 86.6051C1183.37 86.7528 1183.05 86.9659 1182.81 87.2443C1182.57 87.517 1182.45 87.8807 1182.45 88.3352C1182.45 88.9659 1182.68 89.4432 1183.15 89.767C1183.61 90.0852 1184.21 90.2443 1184.93 90.2443ZM1200.34 78.9091V80.9545H1193.19V78.9091H1200.34ZM1195.11 75.7727H1197.65V88.1562C1197.65 88.6506 1197.73 89.0227 1197.88 89.2727C1198.02 89.517 1198.21 89.6847 1198.45 89.7756C1198.69 89.8608 1198.94 89.9034 1199.22 89.9034C1199.43 89.9034 1199.61 89.8892 1199.76 89.8608C1199.91 89.8324 1200.03 89.8097 1200.12 89.7926L1200.58 91.8977C1200.43 91.9545 1200.22 92.0114 1199.95 92.0682C1199.67 92.1307 1199.33 92.1648 1198.92 92.1705C1198.25 92.1818 1197.63 92.0625 1197.05 91.8125C1196.47 91.5625 1196 91.1761 1195.64 90.6534C1195.29 90.1307 1195.11 89.4744 1195.11 88.6847V75.7727ZM1208.53 92.2642C1207.26 92.2642 1206.17 91.9773 1205.26 91.4034C1204.35 90.8239 1203.65 90.0256 1203.16 89.0085C1202.67 87.9915 1202.43 86.8267 1202.43 85.5142C1202.43 84.1847 1202.68 83.0114 1203.18 81.9943C1203.68 80.9716 1204.38 80.1733 1205.29 79.5994C1206.2 79.0256 1207.27 78.7386 1208.51 78.7386C1209.5 78.7386 1210.39 78.9233 1211.17 79.2926C1211.94 79.6562 1212.57 80.1676 1213.05 80.8267C1213.53 81.4858 1213.82 82.2557 1213.91 83.1364H1211.43C1211.29 82.5227 1210.98 81.9943 1210.49 81.5511C1210.01 81.108 1209.36 80.8864 1208.55 80.8864C1207.84 80.8864 1207.22 81.0739 1206.68 81.4489C1206.15 81.8182 1205.74 82.3466 1205.45 83.0341C1205.15 83.7159 1205 84.5227 1205 85.4545C1205 86.4091 1205.15 87.233 1205.44 87.9261C1205.73 88.6193 1206.14 89.1562 1206.67 89.5369C1207.2 89.9176 1207.83 90.108 1208.55 90.108C1209.03 90.108 1209.47 90.0199 1209.86 89.8438C1210.26 89.6619 1210.59 89.4034 1210.86 89.0682C1211.13 88.733 1211.32 88.3295 1211.43 87.858H1213.91C1213.82 88.7045 1213.54 89.4602 1213.08 90.125C1212.62 90.7898 1212.01 91.3125 1211.23 91.6932C1210.47 92.0739 1209.57 92.2642 1208.53 92.2642ZM1219.18 84.2273V92H1216.63V74.5455H1219.15V81.0398H1219.31C1219.62 80.3352 1220.09 79.7756 1220.72 79.3608C1221.35 78.946 1222.17 78.7386 1223.19 78.7386C1224.09 78.7386 1224.87 78.9233 1225.54 79.2926C1226.22 79.6619 1226.74 80.2131 1227.11 80.946C1227.48 81.6733 1227.67 82.5824 1227.67 83.6733V92H1225.12V83.9801C1225.12 83.0199 1224.88 82.2756 1224.38 81.7472C1223.89 81.2131 1223.2 80.946 1222.32 80.946C1221.72 80.946 1221.18 81.0739 1220.7 81.3295C1220.23 81.5852 1219.86 81.9602 1219.58 82.4545C1219.32 82.9432 1219.18 83.5341 1219.18 84.2273ZM1247.15 79.1307C1247.06 78.3239 1246.68 77.6989 1246.02 77.2557C1245.36 76.8068 1244.53 76.5824 1243.53 76.5824C1242.82 76.5824 1242.2 76.696 1241.68 76.9233C1241.15 77.1449 1240.75 77.4517 1240.46 77.8438C1240.17 78.2301 1240.03 78.6705 1240.03 79.1648C1240.03 79.5795 1240.13 79.9375 1240.32 80.2386C1240.52 80.5398 1240.78 80.7926 1241.1 80.9972C1241.42 81.196 1241.77 81.3636 1242.14 81.5C1242.51 81.6307 1242.86 81.7386 1243.2 81.8239L1244.91 82.267C1245.46 82.4034 1246.03 82.5881 1246.62 82.821C1247.21 83.054 1247.75 83.3608 1248.25 83.7415C1248.75 84.1222 1249.15 84.5938 1249.46 85.1562C1249.77 85.7188 1249.93 86.392 1249.93 87.1761C1249.93 88.1648 1249.67 89.0426 1249.16 89.8097C1248.65 90.5767 1247.92 91.1818 1246.95 91.625C1245.99 92.0682 1244.83 92.2898 1243.47 92.2898C1242.16 92.2898 1241.03 92.0824 1240.07 91.6676C1239.12 91.2528 1238.37 90.6648 1237.83 89.9034C1237.29 89.1364 1237 88.2273 1236.94 87.1761H1239.58C1239.63 87.8068 1239.84 88.3324 1240.19 88.7528C1240.56 89.1676 1241.02 89.4773 1241.58 89.6818C1242.15 89.8807 1242.77 89.9801 1243.45 89.9801C1244.19 89.9801 1244.86 89.8636 1245.44 89.6307C1246.02 89.392 1246.48 89.0625 1246.82 88.642C1247.15 88.2159 1247.32 87.7187 1247.32 87.1506C1247.32 86.6335 1247.17 86.2102 1246.88 85.8807C1246.59 85.5511 1246.19 85.2784 1245.69 85.0625C1245.2 84.8466 1244.64 84.6562 1244.01 84.4915L1241.95 83.929C1240.55 83.5483 1239.44 82.9886 1238.63 82.25C1237.81 81.5114 1237.41 80.5341 1237.41 79.3182C1237.41 78.3125 1237.68 77.4347 1238.23 76.6847C1238.77 75.9347 1239.51 75.3523 1240.44 74.9375C1241.37 74.517 1242.42 74.3068 1243.59 74.3068C1244.78 74.3068 1245.82 74.5142 1246.72 74.929C1247.63 75.3438 1248.35 75.9148 1248.87 76.642C1249.39 77.3636 1249.67 78.1932 1249.69 79.1307H1247.15ZM1258.98 78.9091V80.9545H1251.83V78.9091H1258.98ZM1253.75 75.7727H1256.3V88.1562C1256.3 88.6506 1256.37 89.0227 1256.52 89.2727C1256.66 89.517 1256.86 89.6847 1257.09 89.7756C1257.33 89.8608 1257.59 89.9034 1257.86 89.9034C1258.07 89.9034 1258.25 89.8892 1258.4 89.8608C1258.55 89.8324 1258.67 89.8097 1258.76 89.7926L1259.22 91.8977C1259.07 91.9545 1258.86 92.0114 1258.59 92.0682C1258.32 92.1307 1257.97 92.1648 1257.57 92.1705C1256.89 92.1818 1256.27 92.0625 1255.69 91.8125C1255.11 91.5625 1254.64 91.1761 1254.28 90.6534C1253.93 90.1307 1253.75 89.4744 1253.75 88.6847V75.7727ZM1265.61 92.2898C1264.78 92.2898 1264.03 92.1364 1263.36 91.8295C1262.69 91.517 1262.16 91.0653 1261.76 90.4744C1261.38 89.8835 1261.19 89.1591 1261.19 88.3011C1261.19 87.5625 1261.33 86.9545 1261.61 86.4773C1261.9 86 1262.28 85.6222 1262.76 85.3438C1263.25 85.0653 1263.78 84.8551 1264.38 84.7131C1264.98 84.571 1265.59 84.4631 1266.21 84.3892C1266.99 84.2983 1267.63 84.2244 1268.11 84.1676C1268.6 84.1051 1268.96 84.0057 1269.18 83.8693C1269.4 83.733 1269.51 83.5114 1269.51 83.2045V83.1449C1269.51 82.4006 1269.3 81.8239 1268.88 81.4148C1268.47 81.0057 1267.85 80.8011 1267.02 80.8011C1266.17 80.8011 1265.49 80.9915 1265 81.3722C1264.51 81.7472 1264.17 82.1648 1263.98 82.625L1261.59 82.0795C1261.87 81.2841 1262.28 80.642 1262.83 80.1534C1263.38 79.6591 1264.01 79.3011 1264.73 79.0795C1265.45 78.8523 1266.2 78.7386 1266.99 78.7386C1267.51 78.7386 1268.07 78.8011 1268.65 78.9261C1269.24 79.0455 1269.79 79.267 1270.3 79.5909C1270.82 79.9148 1271.25 80.3778 1271.57 80.9801C1271.9 81.5767 1272.07 82.3523 1272.07 83.3068V92H1269.58V90.2102H1269.48C1269.31 90.5398 1269.07 90.8636 1268.74 91.1818C1268.41 91.5 1267.98 91.7642 1267.47 91.9744C1266.95 92.1847 1266.33 92.2898 1265.61 92.2898ZM1266.16 90.2443C1266.87 90.2443 1267.47 90.1051 1267.97 89.8267C1268.48 89.5483 1268.86 89.1847 1269.12 88.7358C1269.39 88.2812 1269.52 87.7955 1269.52 87.2784V85.5909C1269.43 85.6818 1269.25 85.767 1268.99 85.8466C1268.74 85.9205 1268.44 85.9858 1268.11 86.0426C1267.78 86.0937 1267.46 86.142 1267.15 86.1875C1266.84 86.2273 1266.58 86.2614 1266.37 86.2898C1265.87 86.3523 1265.42 86.4574 1265.01 86.6051C1264.61 86.7528 1264.28 86.9659 1264.04 87.2443C1263.8 87.517 1263.68 87.8807 1263.68 88.3352C1263.68 88.9659 1263.92 89.4432 1264.38 89.767C1264.85 90.0852 1265.44 90.2443 1266.16 90.2443ZM1275.46 92V78.9091H1277.93V80.9886H1278.06C1278.3 80.2841 1278.72 79.7301 1279.32 79.3267C1279.93 78.9176 1280.62 78.7131 1281.39 78.7131C1281.55 78.7131 1281.73 78.7187 1281.95 78.7301C1282.17 78.7415 1282.34 78.7557 1282.47 78.7727V81.2102C1282.37 81.1818 1282.18 81.1506 1281.92 81.1165C1281.66 81.0767 1281.4 81.0568 1281.14 81.0568C1280.54 81.0568 1280 81.1847 1279.53 81.4403C1279.06 81.6903 1278.69 82.0398 1278.42 82.4886C1278.15 82.9318 1278.01 83.4375 1278.01 84.0057V92H1275.46ZM1291.56 78.9091V80.9545H1284.41V78.9091H1291.56ZM1286.33 75.7727H1288.87V88.1562C1288.87 88.6506 1288.95 89.0227 1289.1 89.2727C1289.24 89.517 1289.43 89.6847 1289.67 89.7756C1289.9 89.8608 1290.16 89.9034 1290.44 89.9034C1290.65 89.9034 1290.83 89.8892 1290.98 89.8608C1291.13 89.8324 1291.25 89.8097 1291.34 89.7926L1291.8 91.8977C1291.65 91.9545 1291.44 92.0114 1291.17 92.0682C1290.89 92.1307 1290.55 92.1648 1290.14 92.1705C1289.47 92.1818 1288.85 92.0625 1288.27 91.8125C1287.69 91.5625 1287.22 91.1761 1286.86 90.6534C1286.5 90.1307 1286.33 89.4744 1286.33 88.6847V75.7727ZM1303.98 82.1051L1301.67 82.5142C1301.57 82.2187 1301.42 81.9375 1301.21 81.6705C1301 81.4034 1300.72 81.1847 1300.37 81.0142C1300.02 80.8437 1299.58 80.7585 1299.05 80.7585C1298.33 80.7585 1297.73 80.9205 1297.24 81.2443C1296.76 81.5625 1296.52 81.9744 1296.52 82.4801C1296.52 82.9176 1296.68 83.2699 1297 83.5369C1297.33 83.804 1297.85 84.0227 1298.57 84.1932L1300.65 84.6705C1301.86 84.9489 1302.75 85.3778 1303.35 85.9574C1303.94 86.5369 1304.23 87.2898 1304.23 88.2159C1304.23 89 1304 89.6989 1303.55 90.3125C1303.1 90.9205 1302.47 91.3977 1301.67 91.7443C1300.87 92.0909 1299.94 92.2642 1298.88 92.2642C1297.41 92.2642 1296.22 91.9517 1295.29 91.3267C1294.37 90.696 1293.8 89.8011 1293.59 88.642L1296.05 88.267C1296.2 88.9091 1296.52 89.3949 1297 89.7244C1297.47 90.0483 1298.1 90.2102 1298.86 90.2102C1299.7 90.2102 1300.37 90.0369 1300.87 89.6903C1301.37 89.3381 1301.62 88.9091 1301.62 88.4034C1301.62 87.9943 1301.46 87.6506 1301.15 87.3722C1300.85 87.0937 1300.39 86.8835 1299.77 86.7415L1297.55 86.2557C1296.33 85.9773 1295.42 85.5341 1294.84 84.9261C1294.26 84.3182 1293.97 83.5483 1293.97 82.6165C1293.97 81.8437 1294.19 81.1676 1294.62 80.5881C1295.05 80.0085 1295.65 79.5568 1296.41 79.233C1297.17 78.9034 1298.04 78.7386 1299.02 78.7386C1300.44 78.7386 1301.55 79.0455 1302.37 79.6591C1303.18 80.267 1303.71 81.0824 1303.98 82.1051Z" fill="black"/>
<defs>
<filter id="filter0_d_74_113" x="0.6" y="0.6" width="1420.8" height="189.8" filterUnits="userSpaceOnUse" color-interpolation-filters="sRGB">
<feFlood flood-opacity="0" result="BackgroundImageFix"/>
<feColorMatrix in="SourceAlpha" type="matrix" values="0 0 0 0 0 0 0 0 0 0 0 0 0 0 0 0 0 0 127 0" result="hardAlpha"/>
<feOffset dy="4"/>
<feGaussianBlur stdDeviation="6.2"/>
<feComposite in2="hardAlpha" operator="out"/>
<feColorMatrix type="matrix" values="0 0 0 0 0.614423 0 0 0 0 0.356247 0 0 0 0 0.356247 0 0 0 0.24 0"/>
<feBlend mode="normal" in2="BackgroundImageFix" result="effect1_dropShadow_74_113"/>
<feBlend mode="normal" in="SourceGraphic" in2="effect1_dropShadow_74_113" result="shape"/>
</filter>
</defs>
</svg>
