<svg width="198" height="41" viewBox="0 0 198 41" fill="none" xmlns="http://www.w3.org/2000/svg">
<rect width="197.481" height="40.7143" rx="20" fill="#9D5B5B"/>
<path d="M74.955 10.45V28H70.68V20.775H64.03V28H59.755V10.45H64.03V17.325H70.68V10.45H74.955ZM84.3911 28.2C83.0244 28.2 81.7911 27.9083 80.6911 27.325C79.6078 26.7417 78.7494 25.9083 78.1161 24.825C77.4994 23.7417 77.1911 22.475 77.1911 21.025C77.1911 19.5917 77.5078 18.3333 78.1411 17.25C78.7744 16.15 79.6411 15.3083 80.7411 14.725C81.8411 14.1417 83.0744 13.85 84.4411 13.85C85.8078 13.85 87.0411 14.1417 88.1411 14.725C89.2411 15.3083 90.1078 16.15 90.7411 17.25C91.3744 18.3333 91.6911 19.5917 91.6911 21.025C91.6911 22.4583 91.3661 23.725 90.7161 24.825C90.0828 25.9083 89.2078 26.7417 88.0911 27.325C86.9911 27.9083 85.7578 28.2 84.3911 28.2ZM84.3911 24.5C85.2078 24.5 85.8994 24.2 86.4661 23.6C87.0494 23 87.3411 22.1417 87.3411 21.025C87.3411 19.9083 87.0578 19.05 86.4911 18.45C85.9411 17.85 85.2578 17.55 84.4411 17.55C83.6078 17.55 82.9161 17.85 82.3661 18.45C81.8161 19.0333 81.5411 19.8917 81.5411 21.025C81.5411 22.1417 81.8078 23 82.3411 23.6C82.8911 24.2 83.5744 24.5 84.3911 24.5ZM111.759 13.9C113.492 13.9 114.867 14.425 115.884 15.475C116.917 16.525 117.434 17.9833 117.434 19.85V28H113.184V20.425C113.184 19.525 112.942 18.8333 112.459 18.35C111.992 17.85 111.342 17.6 110.509 17.6C109.676 17.6 109.017 17.85 108.534 18.35C108.067 18.8333 107.834 19.525 107.834 20.425V28H103.584V20.425C103.584 19.525 103.342 18.8333 102.859 18.35C102.392 17.85 101.742 17.6 100.909 17.6C100.076 17.6 99.4174 17.85 98.9341 18.35C98.4674 18.8333 98.2341 19.525 98.2341 20.425V28H93.9591V14.05H98.2341V15.8C98.6674 15.2167 99.2341 14.7583 99.9341 14.425C100.634 14.075 101.426 13.9 102.309 13.9C103.359 13.9 104.292 14.125 105.109 14.575C105.942 15.025 106.592 15.6667 107.059 16.5C107.542 15.7333 108.201 15.1083 109.034 14.625C109.867 14.1417 110.776 13.9 111.759 13.9ZM133.574 20.8C133.574 21.2 133.549 21.6167 133.499 22.05H123.824C123.891 22.9167 124.166 23.5833 124.649 24.05C125.149 24.5 125.757 24.725 126.474 24.725C127.541 24.725 128.282 24.275 128.699 23.375H133.249C133.016 24.2917 132.591 25.1167 131.974 25.85C131.374 26.5833 130.616 27.1583 129.699 27.575C128.782 27.9917 127.757 28.2 126.624 28.2C125.257 28.2 124.041 27.9083 122.974 27.325C121.907 26.7417 121.074 25.9083 120.474 24.825C119.874 23.7417 119.574 22.475 119.574 21.025C119.574 19.575 119.866 18.3083 120.449 17.225C121.049 16.1417 121.882 15.3083 122.949 14.725C124.016 14.1417 125.241 13.85 126.624 13.85C127.974 13.85 129.174 14.1333 130.224 14.7C131.274 15.2667 132.091 16.075 132.674 17.125C133.274 18.175 133.574 19.4 133.574 20.8ZM129.199 19.675C129.199 18.9417 128.949 18.3583 128.449 17.925C127.949 17.4917 127.324 17.275 126.574 17.275C125.857 17.275 125.249 17.4833 124.749 17.9C124.266 18.3167 123.966 18.9083 123.849 19.675H129.199Z" fill="black"/>
</svg>
