<svg width="197" height="42" viewBox="0 0 197 42" fill="none" xmlns="http://www.w3.org/2000/svg">
<rect x="0.151489" y="0.299561" width="196.329" height="41.4147" rx="20" fill="#9D5B5B"/>
<path d="M74.7671 10.7496V28.2996H70.4921V21.0746H63.8421V28.2996H59.5671V10.7496H63.8421V17.6246H70.4921V10.7496H74.7671ZM84.2032 28.4996C82.8366 28.4996 81.6032 28.2079 80.5032 27.6246C79.4199 27.0412 78.5616 26.2079 77.9282 25.1246C77.3116 24.0412 77.0032 22.7746 77.0032 21.3246C77.0032 19.8912 77.3199 18.6329 77.9532 17.5496C78.5866 16.4496 79.4532 15.6079 80.5532 15.0246C81.6532 14.4412 82.8866 14.1496 84.2532 14.1496C85.6199 14.1496 86.8532 14.4412 87.9532 15.0246C89.0532 15.6079 89.9199 16.4496 90.5532 17.5496C91.1866 18.6329 91.5032 19.8912 91.5032 21.3246C91.5032 22.7579 91.1782 24.0246 90.5282 25.1246C89.8949 26.2079 89.0199 27.0412 87.9032 27.6246C86.8032 28.2079 85.5699 28.4996 84.2032 28.4996ZM84.2032 24.7996C85.0199 24.7996 85.7116 24.4996 86.2782 23.8996C86.8616 23.2996 87.1532 22.4412 87.1532 21.3246C87.1532 20.2079 86.8699 19.3496 86.3032 18.7496C85.7532 18.1496 85.0699 17.8496 84.2532 17.8496C83.4199 17.8496 82.7282 18.1496 82.1782 18.7496C81.6282 19.3329 81.3532 20.1912 81.3532 21.3246C81.3532 22.4412 81.6199 23.2996 82.1532 23.8996C82.7032 24.4996 83.3866 24.7996 84.2032 24.7996ZM111.571 14.1996C113.305 14.1996 114.68 14.7246 115.696 15.7746C116.73 16.8246 117.246 18.2829 117.246 20.1496V28.2996H112.996V20.7246C112.996 19.8246 112.755 19.1329 112.271 18.6496C111.805 18.1496 111.155 17.8996 110.321 17.8996C109.488 17.8996 108.83 18.1496 108.346 18.6496C107.88 19.1329 107.646 19.8246 107.646 20.7246V28.2996H103.396V20.7246C103.396 19.8246 103.155 19.1329 102.671 18.6496C102.205 18.1496 101.555 17.8996 100.721 17.8996C99.8879 17.8996 99.2295 18.1496 98.7462 18.6496C98.2795 19.1329 98.0462 19.8246 98.0462 20.7246V28.2996H93.7712V14.3496H98.0462V16.0996C98.4795 15.5162 99.0462 15.0579 99.7462 14.7246C100.446 14.3746 101.238 14.1996 102.121 14.1996C103.171 14.1996 104.105 14.4246 104.921 14.8746C105.755 15.3246 106.405 15.9662 106.871 16.7996C107.355 16.0329 108.013 15.4079 108.846 14.9246C109.68 14.4412 110.588 14.1996 111.571 14.1996ZM133.386 21.0996C133.386 21.4996 133.361 21.9162 133.311 22.3496H123.636C123.703 23.2162 123.978 23.8829 124.461 24.3496C124.961 24.7996 125.569 25.0246 126.286 25.0246C127.353 25.0246 128.094 24.5746 128.511 23.6746H133.061C132.828 24.5912 132.403 25.4162 131.786 26.1496C131.186 26.8829 130.428 27.4579 129.511 27.8746C128.594 28.2912 127.569 28.4996 126.436 28.4996C125.069 28.4996 123.853 28.2079 122.786 27.6246C121.719 27.0412 120.886 26.2079 120.286 25.1246C119.686 24.0412 119.386 22.7746 119.386 21.3246C119.386 19.8746 119.678 18.6079 120.261 17.5246C120.861 16.4412 121.694 15.6079 122.761 15.0246C123.828 14.4412 125.053 14.1496 126.436 14.1496C127.786 14.1496 128.986 14.4329 130.036 14.9996C131.086 15.5662 131.903 16.3746 132.486 17.4246C133.086 18.4746 133.386 19.6996 133.386 21.0996ZM129.011 19.9746C129.011 19.2412 128.761 18.6579 128.261 18.2246C127.761 17.7912 127.136 17.5746 126.386 17.5746C125.669 17.5746 125.061 17.7829 124.561 18.1996C124.078 18.6162 123.778 19.2079 123.661 19.9746H129.011Z" fill="white"/>
</svg>
