<svg width="559" height="653" viewBox="0 0 559 653" fill="none" xmlns="http://www.w3.org/2000/svg">
<g filter="url(#filter0_d_74_109)">
<rect x="3" y="57" width="553" height="591" rx="20" fill="#F3F4F6"/>
</g>
<path d="M45.8331 277V255.909H60.0447V259.586H50.2923V264.611H59.3136V268.288H50.2923V273.324H60.0859V277H45.8331ZM63.5075 277V261.182H67.6887V263.973H67.874C68.2036 263.046 68.7528 262.315 69.5218 261.779C70.2907 261.244 71.2107 260.976 72.2817 260.976C73.3664 260.976 74.2899 261.247 75.0519 261.789C75.814 262.325 76.3221 263.053 76.5761 263.973H76.7409C77.0635 263.066 77.6471 262.342 78.4916 261.8C79.3429 261.25 80.3487 260.976 81.509 260.976C82.9851 260.976 84.1831 261.446 85.1031 262.387C86.0299 263.32 86.4933 264.645 86.4933 266.362V277H82.1166V267.227C82.1166 266.348 81.8831 265.689 81.4163 265.25C80.9494 264.81 80.3659 264.591 79.6656 264.591C78.8692 264.591 78.2478 264.845 77.8016 265.353C77.3553 265.854 77.1322 266.516 77.1322 267.34V277H72.879V267.134C72.879 266.358 72.6559 265.741 72.2096 265.281C71.7702 264.821 71.1901 264.591 70.4692 264.591C69.9817 264.591 69.5423 264.714 69.151 264.961C68.7665 265.202 68.461 265.541 68.2345 265.981C68.0079 266.413 67.8946 266.921 67.8946 267.505V277H63.5075ZM94.4694 277.299C93.4601 277.299 92.5608 277.124 91.7712 276.773C90.9817 276.416 90.3569 275.891 89.8969 275.198C89.4438 274.498 89.2172 273.626 89.2172 272.582C89.2172 271.703 89.3786 270.965 89.7013 270.368C90.0239 269.771 90.4633 269.29 91.0194 268.926C91.5756 268.562 92.2072 268.288 92.9143 268.102C93.6283 267.917 94.3767 267.786 95.1594 267.711C96.0793 267.615 96.8208 267.526 97.3838 267.443C97.9468 267.354 98.3553 267.223 98.6093 267.052C98.8633 266.88 98.9903 266.626 98.9903 266.29V266.228C98.9903 265.576 98.7844 265.071 98.3724 264.714C97.9674 264.357 97.3907 264.179 96.6423 264.179C95.8528 264.179 95.2246 264.354 94.7577 264.704C94.2909 265.047 93.9819 265.48 93.8309 266.001L89.7733 265.672C89.9793 264.711 90.3844 263.88 90.9885 263.18C91.5927 262.473 92.372 261.93 93.3263 261.553C94.2874 261.168 95.3997 260.976 96.6629 260.976C97.5417 260.976 98.3827 261.079 99.186 261.285C99.9961 261.491 100.714 261.81 101.338 262.243C101.97 262.675 102.468 263.231 102.832 263.911C103.195 264.584 103.377 265.39 103.377 266.331V277H99.2169V274.806H99.0933C98.8393 275.301 98.4994 275.737 98.0738 276.114C97.6481 276.485 97.1366 276.777 96.5393 276.99C95.942 277.196 95.252 277.299 94.4694 277.299ZM95.7258 274.271C96.3711 274.271 96.941 274.144 97.4353 273.89C97.9296 273.629 98.3175 273.279 98.599 272.839C98.8805 272.4 99.0212 271.902 99.0212 271.346V269.668C98.8839 269.757 98.6951 269.839 98.4548 269.915C98.2214 269.983 97.9571 270.049 97.6618 270.11C97.3666 270.165 97.0714 270.217 96.7762 270.265C96.481 270.306 96.2132 270.344 95.9729 270.378C95.458 270.454 95.0083 270.574 94.6238 270.739C94.2394 270.903 93.9407 271.127 93.7279 271.408C93.5151 271.683 93.4086 272.026 93.4086 272.438C93.4086 273.035 93.6249 273.492 94.0574 273.808C94.4968 274.116 95.0529 274.271 95.7258 274.271ZM106.781 277V261.182H111.168V277H106.781ZM108.985 259.143C108.333 259.143 107.773 258.926 107.306 258.494C106.846 258.055 106.616 257.529 106.616 256.918C106.616 256.314 106.846 255.796 107.306 255.363C107.773 254.924 108.333 254.704 108.985 254.704C109.637 254.704 110.193 254.924 110.653 255.363C111.12 255.796 111.353 256.314 111.353 256.918C111.353 257.529 111.12 258.055 110.653 258.494C110.193 258.926 109.637 259.143 108.985 259.143ZM119.069 255.909V277H114.682V255.909H119.069Z" fill="#9D5B5B"/>
<path d="M4.8331 28V6.90909H13.2777C14.8293 6.90909 16.1235 7.13909 17.1602 7.59908C18.1969 8.05907 18.9761 8.69756 19.4979 9.51456C20.0196 10.3247 20.2805 11.2584 20.2805 12.3157C20.2805 13.1396 20.1158 13.8639 19.7862 14.4886C19.4567 15.1065 19.0036 15.6146 18.4268 16.0128C17.857 16.4041 17.2048 16.6822 16.4702 16.8469V17.0529C17.2734 17.0872 18.0252 17.3138 18.7255 17.7326C19.4326 18.1514 20.0059 18.7384 20.4453 19.4936C20.8847 20.242 21.1044 21.1345 21.1044 22.1712C21.1044 23.2902 20.8264 24.2892 20.2702 25.168C19.721 26.0399 18.9074 26.7299 17.8295 27.2379C16.7517 27.746 15.4232 28 13.8441 28H4.8331ZM9.29226 24.3544H12.9276C14.1702 24.3544 15.0765 24.1175 15.6463 23.6438C16.2161 23.1632 16.5011 22.5247 16.5011 21.7283C16.5011 21.1448 16.3603 20.6299 16.0788 20.1836C15.7973 19.7373 15.3957 19.3872 14.8739 19.1332C14.359 18.8791 13.7446 18.7521 13.0305 18.7521H9.29226V24.3544ZM9.29226 15.7347H12.598C13.209 15.7347 13.7514 15.6283 14.2251 15.4155C14.7057 15.1958 15.0833 14.8868 15.358 14.4886C15.6394 14.0904 15.7802 13.6133 15.7802 13.0572C15.7802 12.2951 15.509 11.6806 14.9666 11.2138C14.4311 10.7469 13.669 10.5135 12.6804 10.5135H9.29226V15.7347ZM31.0706 28.3089C29.4709 28.3089 28.0875 27.9691 26.9204 27.2894C25.7601 26.6029 24.8641 25.6486 24.2325 24.4265C23.6009 23.1976 23.2851 21.773 23.2851 20.1527C23.2851 18.5187 23.6009 17.0907 24.2325 15.8686C24.8641 14.6397 25.7601 13.6854 26.9204 13.0057C28.0875 12.3191 29.4709 11.9759 31.0706 11.9759C32.6702 11.9759 34.0502 12.3191 35.2105 13.0057C36.3776 13.6854 37.277 14.6397 37.9086 15.8686C38.5403 17.0907 38.8561 18.5187 38.8561 20.1527C38.8561 21.773 38.5403 23.1976 37.9086 24.4265C37.277 25.6486 36.3776 26.6029 35.2105 27.2894C34.0502 27.9691 32.6702 28.3089 31.0706 28.3089ZM31.0912 24.9105C31.8189 24.9105 32.4265 24.7045 32.914 24.2926C33.4014 23.8738 33.7687 23.304 34.0159 22.5831C34.2699 21.8622 34.3969 21.0418 34.3969 20.1218C34.3969 19.2018 34.2699 18.3814 34.0159 17.6605C33.7687 16.9396 33.4014 16.3698 32.914 15.951C32.4265 15.5322 31.8189 15.3228 31.0912 15.3228C30.3566 15.3228 29.7387 15.5322 29.2375 15.951C28.7432 16.3698 28.369 16.9396 28.115 17.6605C27.8678 18.3814 27.7442 19.2018 27.7442 20.1218C27.7442 21.0418 27.8678 21.8622 28.115 22.5831C28.369 23.304 28.7432 23.8738 29.2375 24.2926C29.7387 24.7045 30.3566 24.9105 31.0912 24.9105ZM48.8557 28.3089C47.2561 28.3089 45.8727 27.9691 44.7055 27.2894C43.5452 26.6029 42.6493 25.6486 42.0177 24.4265C41.386 23.1976 41.0702 21.773 41.0702 20.1527C41.0702 18.5187 41.386 17.0907 42.0177 15.8686C42.6493 14.6397 43.5452 13.6854 44.7055 13.0057C45.8727 12.3191 47.2561 11.9759 48.8557 11.9759C50.4554 11.9759 51.8354 12.3191 52.9957 13.0057C54.1628 13.6854 55.0622 14.6397 55.6938 15.8686C56.3254 17.0907 56.6412 18.5187 56.6412 20.1527C56.6412 21.773 56.3254 23.1976 55.6938 24.4265C55.0622 25.6486 54.1628 26.6029 52.9957 27.2894C51.8354 27.9691 50.4554 28.3089 48.8557 28.3089ZM48.8763 24.9105C49.6041 24.9105 50.2117 24.7045 50.6991 24.2926C51.1866 23.8738 51.5539 23.304 51.801 22.5831C52.0551 21.8622 52.1821 21.0418 52.1821 20.1218C52.1821 19.2018 52.0551 18.3814 51.801 17.6605C51.5539 16.9396 51.1866 16.3698 50.6991 15.951C50.2117 15.5322 49.6041 15.3228 48.8763 15.3228C48.1417 15.3228 47.5238 15.5322 47.0226 15.951C46.5283 16.3698 46.1541 16.9396 45.9001 17.6605C45.653 18.3814 45.5294 19.2018 45.5294 20.1218C45.5294 21.0418 45.653 21.8622 45.9001 22.5831C46.1541 23.304 46.5283 23.8738 47.0226 24.2926C47.5238 24.7045 48.1417 24.9105 48.8763 24.9105ZM63.469 23.4482L63.4793 18.1857H64.1178L69.1846 12.1818H74.2204L67.4133 20.1321H66.3731L63.469 23.4482ZM59.4939 28V6.90909H63.8809V28H59.4939ZM69.3802 28L64.7254 21.1104L67.6501 18.0107L74.5191 28H69.3802ZM81.9313 6.90909H86.926L91.7353 15.9922H91.9412L96.7505 6.90909H101.745L94.0524 20.544V28H89.6241V20.544L81.9313 6.90909ZM107.932 28.3089C106.332 28.3089 104.949 27.9691 103.782 27.2894C102.621 26.6029 101.725 25.6486 101.094 24.4265C100.462 23.1976 100.146 21.773 100.146 20.1527C100.146 18.5187 100.462 17.0907 101.094 15.8686C101.725 14.6397 102.621 13.6854 103.782 13.0057C104.949 12.3191 106.332 11.9759 107.932 11.9759C109.532 11.9759 110.912 12.3191 112.072 13.0057C113.239 13.6854 114.138 14.6397 114.77 15.8686C115.402 17.0907 115.717 18.5187 115.717 20.1527C115.717 21.773 115.402 23.1976 114.77 24.4265C114.138 25.6486 113.239 26.6029 112.072 27.2894C110.912 27.9691 109.532 28.3089 107.932 28.3089ZM107.953 24.9105C108.68 24.9105 109.288 24.7045 109.775 24.2926C110.263 23.8738 110.63 23.304 110.877 22.5831C111.131 21.8622 111.258 21.0418 111.258 20.1218C111.258 19.2018 111.131 18.3814 110.877 17.6605C110.63 16.9396 110.263 16.3698 109.775 15.951C109.288 15.5322 108.68 15.3228 107.953 15.3228C107.218 15.3228 106.6 15.5322 106.099 15.951C105.604 16.3698 105.23 16.9396 104.976 17.6605C104.729 18.3814 104.606 19.2018 104.606 20.1218C104.606 21.0418 104.729 21.8622 104.976 22.5831C105.23 23.304 105.604 23.8738 106.099 24.2926C106.6 24.7045 107.218 24.9105 107.953 24.9105ZM128.714 21.2649V12.1818H133.101V28H128.889V25.1268H128.724C128.367 26.0536 127.773 26.7985 126.943 27.3615C126.119 27.9245 125.113 28.206 123.925 28.206C122.868 28.206 121.938 27.9657 121.134 27.4851C120.331 27.0045 119.703 26.3214 119.25 25.4357C118.803 24.5501 118.577 23.4893 118.57 22.2536V12.1818H122.957V21.4709C122.964 22.4046 123.215 23.1426 123.709 23.685C124.203 24.2274 124.866 24.4986 125.696 24.4986C126.225 24.4986 126.719 24.3784 127.179 24.1381C127.639 23.891 128.01 23.5271 128.292 23.0465C128.58 22.5659 128.721 21.9721 128.714 21.2649ZM136.61 28V12.1818H140.863V14.9418H141.028C141.316 13.96 141.8 13.2185 142.48 12.7173C143.16 12.2093 143.942 11.9553 144.828 11.9553C145.048 11.9553 145.285 11.969 145.539 11.9964C145.793 12.0239 146.016 12.0617 146.208 12.1097V16.0025C146.002 15.9407 145.717 15.8858 145.353 15.8377C144.989 15.7897 144.656 15.7656 144.354 15.7656C143.709 15.7656 143.132 15.9064 142.624 16.1879C142.123 16.4625 141.725 16.8469 141.43 17.3413C141.141 17.8356 140.997 18.4054 140.997 19.0508V28H136.61ZM155.271 28V6.90909H169.235V10.5856H159.73V15.6112H168.308V19.2876H159.73V28H155.271ZM171.897 28V12.1818H176.15V14.9418H176.315C176.604 13.96 177.088 13.2185 177.767 12.7173C178.447 12.2093 179.23 11.9553 180.115 11.9553C180.335 11.9553 180.572 11.969 180.826 11.9964C181.08 12.0239 181.303 12.0617 181.495 12.1097V16.0025C181.289 15.9407 181.004 15.8858 180.64 15.8377C180.277 15.7897 179.944 15.7656 179.642 15.7656C178.996 15.7656 178.419 15.9064 177.911 16.1879C177.41 16.4625 177.012 16.8469 176.717 17.3413C176.428 17.8356 176.284 18.4054 176.284 19.0508V28H171.897ZM190.236 28.3089C188.609 28.3089 187.208 27.9794 186.034 27.3203C184.867 26.6544 183.968 25.7138 183.336 24.4986C182.704 23.2765 182.389 21.8313 182.389 20.163C182.389 18.5359 182.704 17.1078 183.336 15.8789C183.968 14.65 184.857 13.6922 186.003 13.0057C187.157 12.3191 188.509 11.9759 190.061 11.9759C191.104 11.9759 192.076 12.1441 192.975 12.4805C193.881 12.81 194.671 13.3078 195.344 13.9737C196.024 14.6397 196.552 15.4773 196.93 16.4865C197.307 17.4889 197.496 18.6629 197.496 20.0085V21.2134H184.139V18.4947H193.367C193.367 17.863 193.229 17.3035 192.955 16.8161C192.68 16.3286 192.299 15.9476 191.812 15.6729C191.331 15.3915 190.771 15.2507 190.133 15.2507C189.467 15.2507 188.877 15.4052 188.362 15.7141C187.854 16.0162 187.455 16.4247 187.167 16.9396C186.879 17.4477 186.731 18.0141 186.724 18.6388V21.2237C186.724 22.0064 186.868 22.6826 187.157 23.2525C187.452 23.8223 187.867 24.2617 188.403 24.5707C188.938 24.8796 189.573 25.0341 190.308 25.0341C190.795 25.0341 191.242 24.9654 191.647 24.8281C192.052 24.6908 192.399 24.4848 192.687 24.2102C192.975 23.9356 193.195 23.5992 193.346 23.201L197.403 23.4688C197.198 24.4437 196.775 25.295 196.137 26.0227C195.505 26.7436 194.688 27.3066 193.686 27.7116C192.69 28.1098 191.54 28.3089 190.236 28.3089ZM207.568 28.3089C205.941 28.3089 204.54 27.9794 203.366 27.3203C202.199 26.6544 201.3 25.7138 200.668 24.4986C200.036 23.2765 199.721 21.8313 199.721 20.163C199.721 18.5359 200.036 17.1078 200.668 15.8789C201.3 14.65 202.189 13.6922 203.335 13.0057C204.489 12.3191 205.841 11.9759 207.393 11.9759C208.436 11.9759 209.408 12.1441 210.307 12.4805C211.214 12.81 212.003 13.3078 212.676 13.9737C213.356 14.6397 213.884 15.4773 214.262 16.4865C214.639 17.4889 214.828 18.6629 214.828 20.0085V21.2134H201.471V18.4947H210.699C210.699 17.863 210.561 17.3035 210.287 16.8161C210.012 16.3286 209.631 15.9476 209.144 15.6729C208.663 15.3915 208.103 15.2507 207.465 15.2507C206.799 15.2507 206.209 15.4052 205.694 15.7141C205.186 16.0162 204.787 16.4247 204.499 16.9396C204.211 17.4477 204.063 18.0141 204.056 18.6388V21.2237C204.056 22.0064 204.2 22.6826 204.489 23.2525C204.784 23.8223 205.199 24.2617 205.735 24.5707C206.27 24.8796 206.905 25.0341 207.64 25.0341C208.127 25.0341 208.574 24.9654 208.979 24.8281C209.384 24.6908 209.731 24.4848 210.019 24.2102C210.307 23.9356 210.527 23.5992 210.678 23.201L214.736 23.4688C214.53 24.4437 214.107 25.295 213.469 26.0227C212.837 26.7436 212.02 27.3066 211.018 27.7116C210.022 28.1098 208.872 28.3089 207.568 28.3089ZM243.094 14.293H238.584C238.501 13.7094 238.333 13.1911 238.079 12.7379C237.825 12.2779 237.499 11.8866 237.101 11.5639C236.703 11.2412 236.243 10.9941 235.721 10.8224C235.206 10.6508 234.646 10.565 234.042 10.565C232.951 10.565 232 10.8362 231.19 11.3786C230.379 11.9141 229.751 12.6967 229.305 13.7266C228.859 14.7495 228.636 15.9922 228.636 17.4545C228.636 18.9581 228.859 20.2214 229.305 21.2443C229.758 22.2673 230.39 23.0397 231.2 23.5614C232.01 24.0832 232.947 24.3441 234.011 24.3441C234.609 24.3441 235.161 24.2652 235.669 24.1072C236.184 23.9493 236.641 23.7193 237.039 23.4173C237.437 23.1083 237.767 22.7341 238.028 22.2947C238.295 21.8554 238.481 21.3542 238.584 20.7912L243.094 20.8118C242.978 21.7798 242.686 22.7135 242.219 23.6129C241.759 24.5054 241.138 25.3053 240.355 26.0124C239.579 26.7127 238.652 27.2688 237.575 27.6808C236.504 28.0858 235.292 28.2884 233.939 28.2884C232.058 28.2884 230.376 27.8627 228.893 27.0114C227.417 26.16 226.25 24.9277 225.392 23.3143C224.54 21.7009 224.115 19.7476 224.115 17.4545C224.115 15.1546 224.547 13.1979 225.412 11.5845C226.277 9.97112 227.451 8.74219 228.934 7.89773C230.417 7.0464 232.086 6.62074 233.939 6.62074C235.161 6.62074 236.294 6.79238 237.338 7.13565C238.388 7.47893 239.318 7.98011 240.129 8.6392C240.939 9.29143 241.598 10.0913 242.106 11.0387C242.621 11.9861 242.95 13.0709 243.094 14.293ZM250.597 6.90909V28H246.21V6.90909H250.597ZM258.622 28.2987C257.612 28.2987 256.713 28.1236 255.924 27.7734C255.134 27.4164 254.509 26.8912 254.049 26.1978C253.596 25.4975 253.37 24.6256 253.37 23.582C253.37 22.7032 253.531 21.9652 253.854 21.3679C254.176 20.7706 254.616 20.29 255.172 19.9261C255.728 19.5623 256.36 19.2876 257.067 19.1023C257.781 18.9169 258.529 18.7865 259.312 18.7109C260.232 18.6148 260.973 18.5256 261.536 18.4432C262.099 18.3539 262.508 18.2235 262.762 18.0518C263.016 17.8802 263.143 17.6262 263.143 17.2898V17.228C263.143 16.5758 262.937 16.0711 262.525 15.7141C262.12 15.3571 261.543 15.1786 260.795 15.1786C260.005 15.1786 259.377 15.3537 258.91 15.7038C258.443 16.0471 258.134 16.4796 257.983 17.0014L253.926 16.6719C254.132 15.7107 254.537 14.88 255.141 14.1797C255.745 13.4725 256.524 12.9302 257.479 12.5526C258.44 12.1681 259.552 11.9759 260.815 11.9759C261.694 11.9759 262.535 12.0788 263.338 12.2848C264.148 12.4908 264.866 12.81 265.491 13.2425C266.122 13.6751 266.62 14.2312 266.984 14.9109C267.348 15.5837 267.53 16.3904 267.53 17.331V28H263.369V25.8065H263.246C262.992 26.3008 262.652 26.7367 262.226 27.1143C261.8 27.4851 261.289 27.7769 260.692 27.9897C260.094 28.1957 259.404 28.2987 258.622 28.2987ZM259.878 25.271C260.523 25.271 261.093 25.1439 261.588 24.8899C262.082 24.629 262.47 24.2789 262.751 23.8395C263.033 23.4001 263.174 22.9023 263.174 22.3462V20.6676C263.036 20.7569 262.847 20.8393 262.607 20.9148C262.374 20.9834 262.109 21.0487 261.814 21.1104C261.519 21.1654 261.224 21.2169 260.929 21.2649C260.633 21.3061 260.366 21.3439 260.125 21.3782C259.61 21.4537 259.161 21.5739 258.776 21.7386C258.392 21.9034 258.093 22.1265 257.88 22.408C257.667 22.6826 257.561 23.0259 257.561 23.4379C257.561 24.0352 257.777 24.4917 258.21 24.8075C258.649 25.1165 259.205 25.271 259.878 25.271ZM284.095 16.6925L280.078 16.9396C280.01 16.5964 279.862 16.2874 279.635 16.0128C279.409 15.7313 279.11 15.5082 278.739 15.3434C278.376 15.1718 277.94 15.0859 277.432 15.0859C276.752 15.0859 276.179 15.2301 275.712 15.5185C275.245 15.8 275.011 16.1776 275.011 16.6513C275.011 17.0289 275.162 17.3481 275.465 17.609C275.767 17.8699 276.285 18.0793 277.02 18.2372L279.883 18.8139C281.42 19.1297 282.567 19.6378 283.322 20.3381C284.077 21.0384 284.455 21.9583 284.455 23.098C284.455 24.1347 284.149 25.0444 283.538 25.8271C282.934 26.6097 282.104 27.2208 281.046 27.6602C279.996 28.0927 278.784 28.3089 277.411 28.3089C275.317 28.3089 273.649 27.873 272.406 27.0011C271.17 26.1223 270.446 24.9277 270.233 23.4173L274.548 23.1907C274.678 23.8292 274.994 24.3166 275.495 24.6531C275.997 24.9826 276.639 25.1474 277.421 25.1474C278.19 25.1474 278.808 24.9998 279.275 24.7045C279.749 24.4025 279.989 24.0146 279.996 23.5408C279.989 23.1426 279.821 22.8165 279.491 22.5625C279.162 22.3016 278.654 22.1025 277.967 21.9652L275.228 21.4194C273.683 21.1104 272.533 20.5749 271.778 19.8129C271.029 19.0508 270.655 18.0793 270.655 16.8984C270.655 15.8823 270.93 15.007 271.479 14.2724C272.035 13.5378 272.814 12.9714 273.817 12.5732C274.826 12.175 276.007 11.9759 277.359 11.9759C279.357 11.9759 280.93 12.3981 282.076 13.2425C283.229 14.087 283.902 15.237 284.095 16.6925ZM300.379 16.6925L296.362 16.9396C296.294 16.5964 296.146 16.2874 295.92 16.0128C295.693 15.7313 295.394 15.5082 295.024 15.3434C294.66 15.1718 294.224 15.0859 293.716 15.0859C293.036 15.0859 292.463 15.2301 291.996 15.5185C291.529 15.8 291.296 16.1776 291.296 16.6513C291.296 17.0289 291.447 17.3481 291.749 17.609C292.051 17.8699 292.569 18.0793 293.304 18.2372L296.167 18.8139C297.705 19.1297 298.851 19.6378 299.606 20.3381C300.362 21.0384 300.739 21.9583 300.739 23.098C300.739 24.1347 300.434 25.0444 299.823 25.8271C299.218 26.6097 298.388 27.2208 297.33 27.6602C296.28 28.0927 295.068 28.3089 293.695 28.3089C291.601 28.3089 289.933 27.873 288.69 27.0011C287.454 26.1223 286.73 24.9277 286.517 23.4173L290.832 23.1907C290.963 23.8292 291.278 24.3166 291.78 24.6531C292.281 24.9826 292.923 25.1474 293.705 25.1474C294.474 25.1474 295.092 24.9998 295.559 24.7045C296.033 24.4025 296.273 24.0146 296.28 23.5408C296.273 23.1426 296.105 22.8165 295.775 22.5625C295.446 22.3016 294.938 22.1025 294.251 21.9652L291.512 21.4194C289.967 21.1104 288.817 20.5749 288.062 19.8129C287.314 19.0508 286.939 18.0793 286.939 16.8984C286.939 15.8823 287.214 15.007 287.763 14.2724C288.319 13.5378 289.099 12.9714 290.101 12.5732C291.11 12.175 292.291 11.9759 293.644 11.9759C295.642 11.9759 297.214 12.3981 298.36 13.2425C299.514 14.087 300.186 15.237 300.379 16.6925Z" fill="#9D5B5B"/>
<path d="M55.4741 99.9091V121H51.6225L42.4467 107.725H42.2923V121H37.8331V99.9091H41.7464L50.8501 113.173H51.0355V99.9091H55.4741ZM63.5866 121.299C62.5773 121.299 61.6779 121.124 60.8884 120.773C60.0989 120.416 59.4741 119.891 59.0141 119.198C58.561 118.498 58.3344 117.626 58.3344 116.582C58.3344 115.703 58.4958 114.965 58.8184 114.368C59.1411 113.771 59.5805 113.29 60.1366 112.926C60.6927 112.562 61.3244 112.288 62.0315 112.102C62.7455 111.917 63.4939 111.786 64.2765 111.711C65.1965 111.615 65.938 111.526 66.501 111.443C67.064 111.354 67.4724 111.223 67.7265 111.052C67.9805 110.88 68.1075 110.626 68.1075 110.29V110.228C68.1075 109.576 67.9015 109.071 67.4896 108.714C67.0845 108.357 66.5078 108.179 65.7595 108.179C64.97 108.179 64.3418 108.354 63.8749 108.704C63.4081 109.047 63.0991 109.48 62.9481 110.001L58.8905 109.672C59.0965 108.711 59.5016 107.88 60.1057 107.18C60.7099 106.473 61.4891 105.93 62.4434 105.553C63.4046 105.168 64.5168 104.976 65.7801 104.976C66.6589 104.976 67.4999 105.079 68.3032 105.285C69.1133 105.491 69.8308 105.81 70.4555 106.243C71.0872 106.675 71.5849 107.231 71.9488 107.911C72.3126 108.584 72.4946 109.39 72.4946 110.331V121H68.3341V118.806H68.2105C67.9565 119.301 67.6166 119.737 67.191 120.114C66.7653 120.485 66.2538 120.777 65.6565 120.99C65.0592 121.196 64.3692 121.299 63.5866 121.299ZM64.843 118.271C65.4883 118.271 66.0582 118.144 66.5525 117.89C67.0468 117.629 67.4347 117.279 67.7162 116.839C67.9977 116.4 68.1384 115.902 68.1384 115.346V113.668C68.0011 113.757 67.8123 113.839 67.572 113.915C67.3386 113.983 67.0742 114.049 66.779 114.11C66.4838 114.165 66.1886 114.217 65.8934 114.265C65.5982 114.306 65.3304 114.344 65.0901 114.378C64.5752 114.454 64.1255 114.574 63.741 114.739C63.3566 114.903 63.0579 115.127 62.8451 115.408C62.6323 115.683 62.5258 116.026 62.5258 116.438C62.5258 117.035 62.7421 117.492 63.1746 117.808C63.614 118.116 64.1701 118.271 64.843 118.271ZM75.8982 121V105.182H80.0793V107.973H80.2646C80.5942 107.046 81.1434 106.315 81.9124 105.779C82.6813 105.244 83.6013 104.976 84.6723 104.976C85.7571 104.976 86.6805 105.247 87.4426 105.789C88.2046 106.325 88.7127 107.053 88.9667 107.973H89.1315C89.4542 107.066 90.0377 106.342 90.8822 105.8C91.7335 105.25 92.7393 104.976 93.8996 104.976C95.3757 104.976 96.5737 105.446 97.4937 106.387C98.4205 107.32 98.884 108.645 98.884 110.362V121H94.5072V111.227C94.5072 110.348 94.2738 109.689 93.8069 109.25C93.3401 108.81 92.7565 108.591 92.0562 108.591C91.2598 108.591 90.6385 108.845 90.1922 109.353C89.7459 109.854 89.5228 110.516 89.5228 111.34V121H85.2696V111.134C85.2696 110.358 85.0465 109.741 84.6002 109.281C84.1608 108.821 83.5807 108.591 82.8598 108.591C82.3724 108.591 81.933 108.714 81.5416 108.961C81.1572 109.202 80.8517 109.541 80.6251 109.981C80.3985 110.413 80.2852 110.921 80.2852 111.505V121H75.8982ZM109.558 121.309C107.931 121.309 106.53 120.979 105.356 120.32C104.189 119.654 103.29 118.714 102.658 117.499C102.027 116.277 101.711 114.831 101.711 113.163C101.711 111.536 102.027 110.108 102.658 108.879C103.29 107.65 104.179 106.692 105.326 106.006C106.479 105.319 107.831 104.976 109.383 104.976C110.427 104.976 111.398 105.144 112.297 105.48C113.204 105.81 113.993 106.308 114.666 106.974C115.346 107.64 115.874 108.477 116.252 109.487C116.63 110.489 116.818 111.663 116.818 113.009V114.213H103.462V111.495H112.689C112.689 110.863 112.552 110.304 112.277 109.816C112.002 109.329 111.621 108.948 111.134 108.673C110.653 108.391 110.094 108.251 109.455 108.251C108.789 108.251 108.199 108.405 107.684 108.714C107.176 109.016 106.778 109.425 106.489 109.94C106.201 110.448 106.053 111.014 106.046 111.639V114.224C106.046 115.006 106.191 115.683 106.479 116.252C106.774 116.822 107.19 117.262 107.725 117.571C108.261 117.88 108.896 118.034 109.63 118.034C110.118 118.034 110.564 117.965 110.969 117.828C111.374 117.691 111.721 117.485 112.009 117.21C112.297 116.936 112.517 116.599 112.668 116.201L116.726 116.469C116.52 117.444 116.098 118.295 115.459 119.023C114.827 119.744 114.01 120.307 113.008 120.712C112.013 121.11 110.863 121.309 109.558 121.309Z" fill="#9D5B5B"/>
<rect x="36.5" y="155.5" width="500" height="58" rx="24.5" fill="#F3F4F6" stroke="#9D5B5B"/>
<path d="M62.1136 193V175.545H72.6477V177.42H64.2273V183.318H72.1023V185.193H64.2273V191.125H72.7841V193H62.1136ZM78.196 185.125V193H76.1847V179.909H78.1278V181.955H78.2983C78.6051 181.29 79.071 180.756 79.696 180.352C80.321 179.943 81.1278 179.739 82.1165 179.739C83.0028 179.739 83.7784 179.92 84.4432 180.284C85.108 180.642 85.625 181.188 85.9943 181.92C86.3636 182.648 86.5483 183.568 86.5483 184.682V193H84.5369V184.818C84.5369 183.79 84.2699 182.989 83.7358 182.415C83.2017 181.835 82.4688 181.545 81.5369 181.545C80.8949 181.545 80.321 181.685 79.8153 181.963C79.3153 182.241 78.9205 182.648 78.6307 183.182C78.3409 183.716 78.196 184.364 78.196 185.125ZM95.9169 179.909V181.614H89.1328V179.909H95.9169ZM91.1101 176.773H93.1214V189.25C93.1214 189.818 93.2038 190.244 93.3686 190.528C93.5391 190.807 93.755 190.994 94.0163 191.091C94.2834 191.182 94.5646 191.227 94.8601 191.227C95.0817 191.227 95.2635 191.216 95.4055 191.193C95.5476 191.165 95.6612 191.142 95.7464 191.125L96.1555 192.932C96.0192 192.983 95.8288 193.034 95.5845 193.085C95.3402 193.142 95.0305 193.17 94.6555 193.17C94.0874 193.17 93.5305 193.048 92.9851 192.804C92.4453 192.56 91.9964 192.188 91.6385 191.688C91.2862 191.188 91.1101 190.557 91.1101 189.795V176.773ZM104.29 193.273C103.029 193.273 101.941 192.994 101.026 192.438C100.117 191.875 99.4155 191.091 98.9212 190.085C98.4325 189.074 98.1882 187.898 98.1882 186.557C98.1882 185.216 98.4325 184.034 98.9212 183.011C99.4155 181.983 100.103 181.182 100.984 180.608C101.87 180.028 102.904 179.739 104.086 179.739C104.768 179.739 105.441 179.852 106.106 180.08C106.771 180.307 107.376 180.676 107.921 181.188C108.467 181.693 108.901 182.364 109.225 183.199C109.549 184.034 109.711 185.062 109.711 186.284V187.136H99.62V185.398H107.665C107.665 184.659 107.518 184 107.222 183.42C106.933 182.841 106.518 182.384 105.978 182.048C105.444 181.713 104.813 181.545 104.086 181.545C103.285 181.545 102.592 181.744 102.006 182.142C101.427 182.534 100.981 183.045 100.668 183.676C100.356 184.307 100.2 184.983 100.2 185.705V186.864C100.2 187.852 100.37 188.69 100.711 189.378C101.058 190.06 101.538 190.58 102.151 190.938C102.765 191.29 103.478 191.466 104.29 191.466C104.819 191.466 105.296 191.392 105.722 191.244C106.154 191.091 106.526 190.864 106.839 190.562C107.151 190.256 107.393 189.875 107.563 189.42L109.506 189.966C109.302 190.625 108.958 191.205 108.475 191.705C107.992 192.199 107.396 192.585 106.685 192.864C105.975 193.136 105.177 193.273 104.29 193.273ZM112.771 193V179.909H114.714V181.886H114.85C115.089 181.239 115.521 180.713 116.146 180.31C116.771 179.906 117.475 179.705 118.259 179.705C118.407 179.705 118.592 179.707 118.813 179.713C119.035 179.719 119.202 179.727 119.316 179.739V181.784C119.248 181.767 119.092 181.741 118.847 181.707C118.609 181.668 118.356 181.648 118.089 181.648C117.452 181.648 116.884 181.781 116.384 182.048C115.89 182.31 115.498 182.673 115.208 183.139C114.924 183.599 114.782 184.125 114.782 184.716V193H112.771ZM127.223 175.545H129.643L134.484 183.693H134.689L139.53 175.545H141.95L135.643 185.807V193H133.53V185.807L127.223 175.545ZM147.878 193.273C146.696 193.273 145.659 192.991 144.767 192.429C143.881 191.866 143.188 191.08 142.688 190.068C142.193 189.057 141.946 187.875 141.946 186.523C141.946 185.159 142.193 183.969 142.688 182.952C143.188 181.935 143.881 181.145 144.767 180.582C145.659 180.02 146.696 179.739 147.878 179.739C149.06 179.739 150.094 180.02 150.98 180.582C151.872 181.145 152.565 181.935 153.06 182.952C153.56 183.969 153.81 185.159 153.81 186.523C153.81 187.875 153.56 189.057 153.06 190.068C152.565 191.08 151.872 191.866 150.98 192.429C150.094 192.991 149.06 193.273 147.878 193.273ZM147.878 191.466C148.776 191.466 149.514 191.236 150.094 190.776C150.673 190.315 151.102 189.71 151.381 188.96C151.659 188.21 151.798 187.398 151.798 186.523C151.798 185.648 151.659 184.832 151.381 184.077C151.102 183.321 150.673 182.71 150.094 182.244C149.514 181.778 148.776 181.545 147.878 181.545C146.98 181.545 146.241 181.778 145.662 182.244C145.082 182.71 144.653 183.321 144.375 184.077C144.097 184.832 143.957 185.648 143.957 186.523C143.957 187.398 144.097 188.21 144.375 188.96C144.653 189.71 145.082 190.315 145.662 190.776C146.241 191.236 146.98 191.466 147.878 191.466ZM165.13 187.648V179.909H167.141V193H165.13V190.784H164.994C164.687 191.449 164.21 192.014 163.562 192.48C162.914 192.94 162.096 193.17 161.107 193.17C160.289 193.17 159.562 192.991 158.925 192.634C158.289 192.27 157.789 191.724 157.425 190.997C157.062 190.264 156.88 189.341 156.88 188.227V179.909H158.891V188.091C158.891 189.045 159.158 189.807 159.692 190.375C160.232 190.943 160.92 191.227 161.755 191.227C162.255 191.227 162.763 191.099 163.281 190.844C163.803 190.588 164.241 190.196 164.593 189.668C164.951 189.139 165.13 188.466 165.13 187.648ZM170.825 193V179.909H172.768V181.886H172.905C173.143 181.239 173.575 180.713 174.2 180.31C174.825 179.906 175.53 179.705 176.314 179.705C176.462 179.705 176.646 179.707 176.868 179.713C177.089 179.719 177.257 179.727 177.371 179.739V181.784C177.303 181.767 177.146 181.741 176.902 181.707C176.663 181.668 176.411 181.648 176.143 181.648C175.507 181.648 174.939 181.781 174.439 182.048C173.945 182.31 173.553 182.673 173.263 183.139C172.979 183.599 172.837 184.125 172.837 184.716V193H170.825ZM200.619 175.545V193H198.573L189.062 179.295H188.891V193H186.778V175.545H188.823L198.369 189.284H198.539V175.545H200.619ZM208.428 193.307C207.598 193.307 206.845 193.151 206.169 192.838C205.493 192.52 204.956 192.062 204.558 191.466C204.161 190.864 203.962 190.136 203.962 189.284C203.962 188.534 204.109 187.926 204.405 187.46C204.7 186.989 205.095 186.619 205.589 186.352C206.084 186.085 206.629 185.886 207.226 185.756C207.828 185.619 208.433 185.511 209.041 185.432C209.837 185.33 210.482 185.253 210.976 185.202C211.476 185.145 211.839 185.051 212.067 184.92C212.3 184.79 212.416 184.562 212.416 184.239V184.17C212.416 183.33 212.186 182.676 211.726 182.21C211.271 181.744 210.581 181.511 209.655 181.511C208.695 181.511 207.942 181.722 207.396 182.142C206.851 182.562 206.467 183.011 206.246 183.489L204.337 182.807C204.678 182.011 205.132 181.392 205.7 180.949C206.274 180.5 206.899 180.187 207.575 180.011C208.257 179.83 208.928 179.739 209.587 179.739C210.007 179.739 210.49 179.79 211.036 179.892C211.587 179.989 212.118 180.19 212.629 180.497C213.146 180.804 213.575 181.267 213.916 181.886C214.257 182.506 214.428 183.335 214.428 184.375V193H212.416V191.227H212.314C212.178 191.511 211.95 191.815 211.632 192.139C211.314 192.463 210.891 192.739 210.362 192.966C209.834 193.193 209.189 193.307 208.428 193.307ZM208.734 191.5C209.53 191.5 210.2 191.344 210.746 191.031C211.297 190.719 211.712 190.315 211.99 189.821C212.274 189.327 212.416 188.807 212.416 188.261V186.42C212.331 186.523 212.143 186.616 211.854 186.702C211.57 186.781 211.24 186.852 210.865 186.915C210.496 186.972 210.135 187.023 209.783 187.068C209.436 187.108 209.155 187.142 208.939 187.17C208.416 187.239 207.928 187.349 207.473 187.503C207.024 187.651 206.661 187.875 206.382 188.176C206.109 188.472 205.973 188.875 205.973 189.386C205.973 190.085 206.232 190.614 206.749 190.972C207.271 191.324 207.933 191.5 208.734 191.5ZM218.099 193V179.909H220.042V181.955H220.212C220.485 181.256 220.925 180.713 221.533 180.327C222.141 179.935 222.871 179.739 223.724 179.739C224.587 179.739 225.306 179.935 225.88 180.327C226.46 180.713 226.911 181.256 227.235 181.955H227.371C227.707 181.278 228.21 180.741 228.88 180.344C229.55 179.94 230.354 179.739 231.292 179.739C232.462 179.739 233.42 180.105 234.164 180.838C234.908 181.565 235.281 182.699 235.281 184.239V193H233.269V184.239C233.269 183.273 233.005 182.582 232.477 182.168C231.948 181.753 231.326 181.545 230.61 181.545C229.69 181.545 228.977 181.824 228.471 182.381C227.965 182.932 227.712 183.631 227.712 184.477V193H225.667V184.034C225.667 183.29 225.425 182.69 224.942 182.236C224.46 181.776 223.837 181.545 223.076 181.545C222.553 181.545 222.065 181.685 221.61 181.963C221.161 182.241 220.798 182.628 220.519 183.122C220.246 183.611 220.11 184.176 220.11 184.818V193H218.099ZM244.447 193.273C243.185 193.273 242.097 192.994 241.183 192.438C240.273 191.875 239.572 191.091 239.077 190.085C238.589 189.074 238.344 187.898 238.344 186.557C238.344 185.216 238.589 184.034 239.077 183.011C239.572 181.983 240.259 181.182 241.14 180.608C242.026 180.028 243.06 179.739 244.242 179.739C244.924 179.739 245.597 179.852 246.262 180.08C246.927 180.307 247.532 180.676 248.077 181.188C248.623 181.693 249.058 182.364 249.381 183.199C249.705 184.034 249.867 185.062 249.867 186.284V187.136H239.776V185.398H247.822C247.822 184.659 247.674 184 247.379 183.42C247.089 182.841 246.674 182.384 246.134 182.048C245.6 181.713 244.969 181.545 244.242 181.545C243.441 181.545 242.748 181.744 242.163 182.142C241.583 182.534 241.137 183.045 240.825 183.676C240.512 184.307 240.356 184.983 240.356 185.705V186.864C240.356 187.852 240.526 188.69 240.867 189.378C241.214 190.06 241.694 190.58 242.308 190.938C242.921 191.29 243.634 191.466 244.447 191.466C244.975 191.466 245.452 191.392 245.879 191.244C246.31 191.091 246.683 190.864 246.995 190.562C247.308 190.256 247.549 189.875 247.719 189.42L249.663 189.966C249.458 190.625 249.114 191.205 248.631 191.705C248.148 192.199 247.552 192.585 246.842 192.864C246.131 193.136 245.333 193.273 244.447 193.273Z" fill="black"/>
<rect x="36.5" y="302.5" width="500" height="58" rx="24.5" fill="#F3F4F6" stroke="#9D5B5B"/>
<path d="M62.1136 340V322.545H72.6477V324.42H64.2273V330.318H72.1023V332.193H64.2273V338.125H72.7841V340H62.1136ZM78.196 332.125V340H76.1847V326.909H78.1278V328.955H78.2983C78.6051 328.29 79.071 327.756 79.696 327.352C80.321 326.943 81.1278 326.739 82.1165 326.739C83.0028 326.739 83.7784 326.92 84.4432 327.284C85.108 327.642 85.625 328.188 85.9943 328.92C86.3636 329.648 86.5483 330.568 86.5483 331.682V340H84.5369V331.818C84.5369 330.79 84.2699 329.989 83.7358 329.415C83.2017 328.835 82.4688 328.545 81.5369 328.545C80.8949 328.545 80.321 328.685 79.8153 328.963C79.3153 329.241 78.9205 329.648 78.6307 330.182C78.3409 330.716 78.196 331.364 78.196 332.125ZM95.9169 326.909V328.614H89.1328V326.909H95.9169ZM91.1101 323.773H93.1214V336.25C93.1214 336.818 93.2038 337.244 93.3686 337.528C93.5391 337.807 93.755 337.994 94.0163 338.091C94.2834 338.182 94.5646 338.227 94.8601 338.227C95.0817 338.227 95.2635 338.216 95.4055 338.193C95.5476 338.165 95.6612 338.142 95.7464 338.125L96.1555 339.932C96.0192 339.983 95.8288 340.034 95.5845 340.085C95.3402 340.142 95.0305 340.17 94.6555 340.17C94.0874 340.17 93.5305 340.048 92.9851 339.804C92.4453 339.56 91.9964 339.188 91.6385 338.688C91.2862 338.188 91.1101 337.557 91.1101 336.795V323.773ZM104.29 340.273C103.029 340.273 101.941 339.994 101.026 339.438C100.117 338.875 99.4155 338.091 98.9212 337.085C98.4325 336.074 98.1882 334.898 98.1882 333.557C98.1882 332.216 98.4325 331.034 98.9212 330.011C99.4155 328.983 100.103 328.182 100.984 327.608C101.87 327.028 102.904 326.739 104.086 326.739C104.768 326.739 105.441 326.852 106.106 327.08C106.771 327.307 107.376 327.676 107.921 328.188C108.467 328.693 108.901 329.364 109.225 330.199C109.549 331.034 109.711 332.062 109.711 333.284V334.136H99.62V332.398H107.665C107.665 331.659 107.518 331 107.222 330.42C106.933 329.841 106.518 329.384 105.978 329.048C105.444 328.713 104.813 328.545 104.086 328.545C103.285 328.545 102.592 328.744 102.006 329.142C101.427 329.534 100.981 330.045 100.668 330.676C100.356 331.307 100.2 331.983 100.2 332.705V333.864C100.2 334.852 100.37 335.69 100.711 336.378C101.058 337.06 101.538 337.58 102.151 337.938C102.765 338.29 103.478 338.466 104.29 338.466C104.819 338.466 105.296 338.392 105.722 338.244C106.154 338.091 106.526 337.864 106.839 337.562C107.151 337.256 107.393 336.875 107.563 336.42L109.506 336.966C109.302 337.625 108.958 338.205 108.475 338.705C107.992 339.199 107.396 339.585 106.685 339.864C105.975 340.136 105.177 340.273 104.29 340.273ZM112.771 340V326.909H114.714V328.886H114.85C115.089 328.239 115.521 327.713 116.146 327.31C116.771 326.906 117.475 326.705 118.259 326.705C118.407 326.705 118.592 326.707 118.813 326.713C119.035 326.719 119.202 326.727 119.316 326.739V328.784C119.248 328.767 119.092 328.741 118.847 328.707C118.609 328.668 118.356 328.648 118.089 328.648C117.452 328.648 116.884 328.781 116.384 329.048C115.89 329.31 115.498 329.673 115.208 330.139C114.924 330.599 114.782 331.125 114.782 331.716V340H112.771ZM127.223 322.545H129.643L134.484 330.693H134.689L139.53 322.545H141.95L135.643 332.807V340H133.53V332.807L127.223 322.545ZM147.878 340.273C146.696 340.273 145.659 339.991 144.767 339.429C143.881 338.866 143.188 338.08 142.688 337.068C142.193 336.057 141.946 334.875 141.946 333.523C141.946 332.159 142.193 330.969 142.688 329.952C143.188 328.935 143.881 328.145 144.767 327.582C145.659 327.02 146.696 326.739 147.878 326.739C149.06 326.739 150.094 327.02 150.98 327.582C151.872 328.145 152.565 328.935 153.06 329.952C153.56 330.969 153.81 332.159 153.81 333.523C153.81 334.875 153.56 336.057 153.06 337.068C152.565 338.08 151.872 338.866 150.98 339.429C150.094 339.991 149.06 340.273 147.878 340.273ZM147.878 338.466C148.776 338.466 149.514 338.236 150.094 337.776C150.673 337.315 151.102 336.71 151.381 335.96C151.659 335.21 151.798 334.398 151.798 333.523C151.798 332.648 151.659 331.832 151.381 331.077C151.102 330.321 150.673 329.71 150.094 329.244C149.514 328.778 148.776 328.545 147.878 328.545C146.98 328.545 146.241 328.778 145.662 329.244C145.082 329.71 144.653 330.321 144.375 331.077C144.097 331.832 143.957 332.648 143.957 333.523C143.957 334.398 144.097 335.21 144.375 335.96C144.653 336.71 145.082 337.315 145.662 337.776C146.241 338.236 146.98 338.466 147.878 338.466ZM165.13 334.648V326.909H167.141V340H165.13V337.784H164.994C164.687 338.449 164.21 339.014 163.562 339.48C162.914 339.94 162.096 340.17 161.107 340.17C160.289 340.17 159.562 339.991 158.925 339.634C158.289 339.27 157.789 338.724 157.425 337.997C157.062 337.264 156.88 336.341 156.88 335.227V326.909H158.891V335.091C158.891 336.045 159.158 336.807 159.692 337.375C160.232 337.943 160.92 338.227 161.755 338.227C162.255 338.227 162.763 338.099 163.281 337.844C163.803 337.588 164.241 337.196 164.593 336.668C164.951 336.139 165.13 335.466 165.13 334.648ZM170.825 340V326.909H172.768V328.886H172.905C173.143 328.239 173.575 327.713 174.2 327.31C174.825 326.906 175.53 326.705 176.314 326.705C176.462 326.705 176.646 326.707 176.868 326.713C177.089 326.719 177.257 326.727 177.371 326.739V328.784C177.303 328.767 177.146 328.741 176.902 328.707C176.663 328.668 176.411 328.648 176.143 328.648C175.507 328.648 174.939 328.781 174.439 329.048C173.945 329.31 173.553 329.673 173.263 330.139C172.979 330.599 172.837 331.125 172.837 331.716V340H170.825ZM186.778 340V322.545H197.312V324.42H188.891V330.318H196.766V332.193H188.891V338.125H197.448V340H186.778ZM200.849 340V326.909H202.792V328.955H202.962C203.235 328.256 203.675 327.713 204.283 327.327C204.891 326.935 205.621 326.739 206.474 326.739C207.337 326.739 208.056 326.935 208.63 327.327C209.21 327.713 209.661 328.256 209.985 328.955H210.121C210.457 328.278 210.96 327.741 211.63 327.344C212.3 326.94 213.104 326.739 214.042 326.739C215.212 326.739 216.17 327.105 216.914 327.838C217.658 328.565 218.031 329.699 218.031 331.239V340H216.019V331.239C216.019 330.273 215.755 329.582 215.227 329.168C214.698 328.753 214.076 328.545 213.36 328.545C212.44 328.545 211.727 328.824 211.221 329.381C210.715 329.932 210.462 330.631 210.462 331.477V340H208.417V331.034C208.417 330.29 208.175 329.69 207.692 329.236C207.21 328.776 206.587 328.545 205.826 328.545C205.303 328.545 204.815 328.685 204.36 328.963C203.911 329.241 203.548 329.628 203.269 330.122C202.996 330.611 202.86 331.176 202.86 331.818V340H200.849ZM225.56 340.307C224.731 340.307 223.978 340.151 223.302 339.838C222.626 339.52 222.089 339.062 221.691 338.466C221.293 337.864 221.094 337.136 221.094 336.284C221.094 335.534 221.242 334.926 221.538 334.46C221.833 333.989 222.228 333.619 222.722 333.352C223.217 333.085 223.762 332.886 224.359 332.756C224.961 332.619 225.566 332.511 226.174 332.432C226.969 332.33 227.614 332.253 228.109 332.202C228.609 332.145 228.972 332.051 229.2 331.92C229.433 331.79 229.549 331.562 229.549 331.239V331.17C229.549 330.33 229.319 329.676 228.859 329.21C228.404 328.744 227.714 328.511 226.788 328.511C225.827 328.511 225.075 328.722 224.529 329.142C223.984 329.562 223.6 330.011 223.379 330.489L221.469 329.807C221.81 329.011 222.265 328.392 222.833 327.949C223.407 327.5 224.032 327.187 224.708 327.011C225.39 326.83 226.06 326.739 226.719 326.739C227.14 326.739 227.623 326.79 228.168 326.892C228.719 326.989 229.251 327.19 229.762 327.497C230.279 327.804 230.708 328.267 231.049 328.886C231.39 329.506 231.56 330.335 231.56 331.375V340H229.549V338.227H229.447C229.31 338.511 229.083 338.815 228.765 339.139C228.447 339.463 228.023 339.739 227.495 339.966C226.967 340.193 226.322 340.307 225.56 340.307ZM225.867 338.5C226.663 338.5 227.333 338.344 227.879 338.031C228.43 337.719 228.844 337.315 229.123 336.821C229.407 336.327 229.549 335.807 229.549 335.261V333.42C229.464 333.523 229.276 333.616 228.987 333.702C228.702 333.781 228.373 333.852 227.998 333.915C227.629 333.972 227.268 334.023 226.915 334.068C226.569 334.108 226.288 334.142 226.072 334.17C225.549 334.239 225.06 334.349 224.606 334.503C224.157 334.651 223.793 334.875 223.515 335.176C223.242 335.472 223.106 335.875 223.106 336.386C223.106 337.085 223.364 337.614 223.881 337.972C224.404 338.324 225.066 338.5 225.867 338.5ZM235.232 340V326.909H237.243V340H235.232ZM236.254 324.727C235.862 324.727 235.524 324.594 235.24 324.327C234.962 324.06 234.822 323.739 234.822 323.364C234.822 322.989 234.962 322.668 235.24 322.401C235.524 322.134 235.862 322 236.254 322C236.646 322 236.982 322.134 237.26 322.401C237.544 322.668 237.686 322.989 237.686 323.364C237.686 323.739 237.544 324.06 237.26 324.327C236.982 324.594 236.646 324.727 236.254 324.727ZM242.938 322.545V340H240.927V322.545H242.938Z" fill="black"/>
<rect x="34.5" y="448.5" width="500" height="58" rx="24.5" fill="#F3F4F6" stroke="#9D5B5B"/>
<path d="M64.9545 482.932V471.682H66.8636V482.932H64.9545ZM60.2841 478.261V476.352H71.5341V478.261H60.2841ZM81.1839 468.307C81.8999 468.312 82.6158 468.449 83.3317 468.716C84.0476 468.983 84.701 469.426 85.2919 470.045C85.8828 470.659 86.3572 471.497 86.7152 472.56C87.0732 473.622 87.2521 474.955 87.2521 476.557C87.2521 478.108 87.1044 479.486 86.8089 480.69C86.5192 481.889 86.0987 482.901 85.5476 483.724C85.0021 484.548 84.3374 485.173 83.5533 485.599C82.7749 486.026 81.8942 486.239 80.9112 486.239C79.9339 486.239 79.0618 486.045 78.2947 485.659C77.5334 485.267 76.9084 484.724 76.4197 484.031C75.9368 483.332 75.6271 482.523 75.4908 481.602H77.5703C77.7578 482.403 78.13 483.065 78.6868 483.588C79.2493 484.105 79.9908 484.364 80.9112 484.364C82.2578 484.364 83.3203 483.776 84.0987 482.599C84.8828 481.423 85.2749 479.761 85.2749 477.614H85.1385C84.8203 478.091 84.4425 478.503 84.005 478.849C83.5675 479.196 83.0817 479.463 82.5476 479.651C82.0135 479.838 81.4453 479.932 80.843 479.932C79.843 479.932 78.9254 479.685 78.0902 479.19C77.2607 478.69 76.5959 478.006 76.0959 477.136C75.6016 476.261 75.3544 475.261 75.3544 474.136C75.3544 473.068 75.593 472.091 76.0703 471.205C76.5533 470.312 77.2294 469.602 78.0987 469.074C78.9737 468.545 80.0021 468.29 81.1839 468.307ZM81.1839 470.182C80.468 470.182 79.8232 470.361 79.2493 470.719C78.6811 471.071 78.2294 471.548 77.8942 472.151C77.5646 472.747 77.3999 473.409 77.3999 474.136C77.3999 474.864 77.5589 475.526 77.8771 476.122C78.201 476.713 78.6413 477.185 79.1982 477.537C79.7607 477.884 80.3999 478.057 81.1158 478.057C81.6555 478.057 82.1584 477.952 82.6243 477.741C83.0902 477.526 83.4964 477.233 83.843 476.864C84.1953 476.489 84.4709 476.065 84.6697 475.594C84.8686 475.116 84.968 474.619 84.968 474.102C84.968 473.42 84.8033 472.781 84.4737 472.185C84.1499 471.588 83.701 471.105 83.1271 470.736C82.5589 470.366 81.9112 470.182 81.1839 470.182ZM96.7401 468.545V486H94.6264V470.761H94.5241L90.2628 473.591V471.443L94.6264 468.545H96.7401Z" fill="black"/>
<path d="M37.8331 424V402.909H46.1541C47.7538 402.909 49.1166 403.215 50.2425 403.826C51.3685 404.43 52.2267 405.271 52.8171 406.349C53.4144 407.42 53.7131 408.656 53.7131 410.056C53.7131 411.457 53.411 412.692 52.8068 413.763C52.2027 414.835 51.3273 415.669 50.1808 416.266C49.0411 416.863 47.6611 417.162 46.0408 417.162H40.7372V413.588H45.32C46.1781 413.588 46.8853 413.441 47.4414 413.146C48.0044 412.844 48.4232 412.428 48.6978 411.9C48.9793 411.364 49.12 410.75 49.12 410.056C49.12 409.356 48.9793 408.745 48.6978 408.223C48.4232 407.694 48.0044 407.286 47.4414 406.998C46.8784 406.702 46.1644 406.555 45.2994 406.555H42.2923V424H37.8331ZM60.9142 414.855V424H56.5271V402.909H60.7906V410.973H60.9759C61.3329 410.039 61.9097 409.308 62.7061 408.779C63.5025 408.244 64.5014 407.976 65.7029 407.976C66.8013 407.976 67.7591 408.216 68.5761 408.697C69.3999 409.17 70.0384 409.854 70.4916 410.746C70.9516 411.632 71.1781 412.692 71.1713 413.928V424H66.7842V414.711C66.791 413.736 66.5439 412.977 66.0427 412.435C65.5484 411.893 64.855 411.621 63.9624 411.621C63.3651 411.621 62.8365 411.748 62.3765 412.002C61.9234 412.257 61.5664 412.627 61.3055 413.115C61.0515 413.595 60.921 414.175 60.9142 414.855ZM81.7708 424.309C80.1711 424.309 78.7877 423.969 77.6206 423.289C76.4603 422.603 75.5643 421.649 74.9327 420.426C74.3011 419.198 73.9853 417.773 73.9853 416.153C73.9853 414.519 74.3011 413.091 74.9327 411.869C75.5643 410.64 76.4603 409.685 77.6206 409.006C78.7877 408.319 80.1711 407.976 81.7708 407.976C83.3704 407.976 84.7504 408.319 85.9107 409.006C87.0778 409.685 87.9772 410.64 88.6088 411.869C89.2405 413.091 89.5563 414.519 89.5563 416.153C89.5563 417.773 89.2405 419.198 88.6088 420.426C87.9772 421.649 87.0778 422.603 85.9107 423.289C84.7504 423.969 83.3704 424.309 81.7708 424.309ZM81.7914 420.911C82.5191 420.911 83.1267 420.705 83.6142 420.293C84.1016 419.874 84.4689 419.304 84.7161 418.583C84.9701 417.862 85.0971 417.042 85.0971 416.122C85.0971 415.202 84.9701 414.381 84.7161 413.661C84.4689 412.94 84.1016 412.37 83.6142 411.951C83.1267 411.532 82.5191 411.323 81.7914 411.323C81.0568 411.323 80.4389 411.532 79.9377 411.951C79.4434 412.37 79.0692 412.94 78.8152 413.661C78.568 414.381 78.4444 415.202 78.4444 416.122C78.4444 417.042 78.568 417.862 78.8152 418.583C79.0692 419.304 79.4434 419.874 79.9377 420.293C80.4389 420.705 81.0568 420.911 81.7914 420.911ZM96.796 414.855V424H92.4089V408.182H96.59V410.973H96.7754C97.1255 410.053 97.7125 409.325 98.5364 408.789C99.3603 408.247 100.359 407.976 101.533 407.976C102.632 407.976 103.589 408.216 104.406 408.697C105.223 409.177 105.858 409.864 106.312 410.756C106.765 411.642 106.991 412.699 106.991 413.928V424H102.604V414.711C102.611 413.743 102.364 412.988 101.863 412.445C101.362 411.896 100.672 411.621 99.7928 411.621C99.2024 411.621 98.6806 411.748 98.2275 412.002C97.7812 412.257 97.431 412.627 97.177 413.115C96.9299 413.595 96.8029 414.175 96.796 414.855ZM117.658 424.309C116.031 424.309 114.63 423.979 113.456 423.32C112.289 422.654 111.39 421.714 110.758 420.499C110.126 419.277 109.81 417.831 109.81 416.163C109.81 414.536 110.126 413.108 110.758 411.879C111.39 410.65 112.279 409.692 113.425 409.006C114.579 408.319 115.931 407.976 117.483 407.976C118.526 407.976 119.498 408.144 120.397 408.48C121.303 408.81 122.093 409.308 122.766 409.974C123.445 410.64 123.974 411.477 124.352 412.487C124.729 413.489 124.918 414.663 124.918 416.009V417.213H111.561V414.495H120.788C120.788 413.863 120.651 413.304 120.377 412.816C120.102 412.329 119.721 411.948 119.233 411.673C118.753 411.391 118.193 411.251 117.555 411.251C116.889 411.251 116.298 411.405 115.783 411.714C115.275 412.016 114.877 412.425 114.589 412.94C114.301 413.448 114.153 414.014 114.146 414.639V417.224C114.146 418.006 114.29 418.683 114.579 419.252C114.874 419.822 115.289 420.262 115.825 420.571C116.36 420.88 116.995 421.034 117.73 421.034C118.217 421.034 118.664 420.965 119.069 420.828C119.474 420.691 119.82 420.485 120.109 420.21C120.397 419.936 120.617 419.599 120.768 419.201L124.825 419.469C124.619 420.444 124.197 421.295 123.559 422.023C122.927 422.744 122.11 423.307 121.108 423.712C120.112 424.11 118.962 424.309 117.658 424.309ZM152.216 402.909V424H148.365L139.189 410.725H139.034V424H134.575V402.909H138.489L147.592 416.173H147.778V402.909H152.216ZM165.962 417.265V408.182H170.349V424H166.137V421.127H165.972C165.615 422.054 165.021 422.799 164.191 423.362C163.367 423.924 162.361 424.206 161.173 424.206C160.116 424.206 159.186 423.966 158.382 423.485C157.579 423.004 156.951 422.321 156.498 421.436C156.052 420.55 155.825 419.489 155.818 418.254V408.182H160.205V417.471C160.212 418.405 160.463 419.143 160.957 419.685C161.451 420.227 162.114 420.499 162.945 420.499C163.473 420.499 163.967 420.378 164.427 420.138C164.887 419.891 165.258 419.527 165.54 419.047C165.828 418.566 165.969 417.972 165.962 417.265ZM173.858 424V408.182H178.039V410.973H178.225C178.554 410.046 179.103 409.315 179.872 408.779C180.641 408.244 181.561 407.976 182.632 407.976C183.717 407.976 184.64 408.247 185.403 408.789C186.165 409.325 186.673 410.053 186.927 410.973H187.091C187.414 410.066 187.998 409.342 188.842 408.8C189.693 408.25 190.699 407.976 191.86 407.976C193.336 407.976 194.534 408.446 195.454 409.387C196.381 410.32 196.844 411.645 196.844 413.362V424H192.467V414.227C192.467 413.348 192.234 412.689 191.767 412.25C191.3 411.81 190.716 411.591 190.016 411.591C189.22 411.591 188.598 411.845 188.152 412.353C187.706 412.854 187.483 413.516 187.483 414.34V424H183.23V414.134C183.23 413.358 183.006 412.741 182.56 412.281C182.121 411.821 181.541 411.591 180.82 411.591C180.332 411.591 179.893 411.714 179.502 411.961C179.117 412.202 178.812 412.541 178.585 412.981C178.358 413.413 178.245 413.921 178.245 414.505V424H173.858ZM200.392 424V402.909H204.779V410.839H204.913C205.105 410.413 205.383 409.981 205.747 409.541C206.118 409.095 206.598 408.724 207.189 408.429C207.786 408.127 208.527 407.976 209.413 407.976C210.566 407.976 211.631 408.278 212.605 408.882C213.58 409.479 214.36 410.382 214.943 411.591C215.527 412.792 215.819 414.299 215.819 416.112C215.819 417.876 215.534 419.366 214.964 420.581C214.401 421.789 213.632 422.706 212.657 423.331C211.689 423.949 210.604 424.257 209.403 424.257C208.551 424.257 207.827 424.117 207.23 423.835C206.639 423.554 206.155 423.2 205.778 422.775C205.4 422.342 205.112 421.906 204.913 421.467H204.717V424H200.392ZM204.686 416.091C204.686 417.031 204.817 417.852 205.077 418.552C205.338 419.252 205.716 419.798 206.21 420.19C206.705 420.574 207.305 420.766 208.012 420.766C208.726 420.766 209.331 420.571 209.825 420.179C210.319 419.781 210.693 419.232 210.947 418.532C211.208 417.824 211.339 417.011 211.339 416.091C211.339 415.178 211.212 414.375 210.958 413.681C210.704 412.988 210.33 412.445 209.835 412.054C209.341 411.663 208.733 411.467 208.012 411.467C207.298 411.467 206.694 411.656 206.2 412.033C205.712 412.411 205.338 412.946 205.077 413.64C204.817 414.333 204.686 415.15 204.686 416.091ZM225.955 424.309C224.328 424.309 222.927 423.979 221.753 423.32C220.586 422.654 219.686 421.714 219.055 420.499C218.423 419.277 218.107 417.831 218.107 416.163C218.107 414.536 218.423 413.108 219.055 411.879C219.686 410.65 220.575 409.692 221.722 409.006C222.875 408.319 224.228 407.976 225.78 407.976C226.823 407.976 227.795 408.144 228.694 408.48C229.6 408.81 230.39 409.308 231.063 409.974C231.742 410.64 232.271 411.477 232.649 412.487C233.026 413.489 233.215 414.663 233.215 416.009V417.213H219.858V414.495H229.085C229.085 413.863 228.948 413.304 228.673 412.816C228.399 412.329 228.018 411.948 227.53 411.673C227.05 411.391 226.49 411.251 225.852 411.251C225.186 411.251 224.595 411.405 224.08 411.714C223.572 412.016 223.174 412.425 222.886 412.94C222.597 413.448 222.45 414.014 222.443 414.639V417.224C222.443 418.006 222.587 418.683 222.875 419.252C223.171 419.822 223.586 420.262 224.122 420.571C224.657 420.88 225.292 421.034 226.027 421.034C226.514 421.034 226.96 420.965 227.366 420.828C227.771 420.691 228.117 420.485 228.406 420.21C228.694 419.936 228.914 419.599 229.065 419.201L233.122 419.469C232.916 420.444 232.494 421.295 231.856 422.023C231.224 422.744 230.407 423.307 229.405 423.712C228.409 424.11 227.259 424.309 225.955 424.309ZM236.078 424V408.182H240.331V410.942H240.496C240.784 409.96 241.268 409.219 241.948 408.717C242.628 408.209 243.41 407.955 244.296 407.955C244.516 407.955 244.752 407.969 245.006 407.996C245.261 408.024 245.484 408.062 245.676 408.11V412.002C245.47 411.941 245.185 411.886 244.821 411.838C244.457 411.79 244.124 411.766 243.822 411.766C243.177 411.766 242.6 411.906 242.092 412.188C241.591 412.462 241.193 412.847 240.897 413.341C240.609 413.836 240.465 414.405 240.465 415.051V424H236.078Z" fill="#9D5B5B"/>
<path d="M155.114 483V465.545H165.648V467.42H157.227V473.318H165.102V475.193H157.227V481.125H165.784V483H155.114ZM171.196 475.125V483H169.185V469.909H171.128V471.955H171.298C171.605 471.29 172.071 470.756 172.696 470.352C173.321 469.943 174.128 469.739 175.116 469.739C176.003 469.739 176.778 469.92 177.443 470.284C178.108 470.642 178.625 471.188 178.994 471.92C179.364 472.648 179.548 473.568 179.548 474.682V483H177.537V474.818C177.537 473.79 177.27 472.989 176.736 472.415C176.202 471.835 175.469 471.545 174.537 471.545C173.895 471.545 173.321 471.685 172.815 471.963C172.315 472.241 171.92 472.648 171.631 473.182C171.341 473.716 171.196 474.364 171.196 475.125ZM188.917 469.909V471.614H182.133V469.909H188.917ZM184.11 466.773H186.121V479.25C186.121 479.818 186.204 480.244 186.369 480.528C186.539 480.807 186.755 480.994 187.016 481.091C187.283 481.182 187.565 481.227 187.86 481.227C188.082 481.227 188.263 481.216 188.406 481.193C188.548 481.165 188.661 481.142 188.746 481.125L189.156 482.932C189.019 482.983 188.829 483.034 188.585 483.085C188.34 483.142 188.031 483.17 187.656 483.17C187.087 483.17 186.531 483.048 185.985 482.804C185.445 482.56 184.996 482.188 184.638 481.688C184.286 481.188 184.11 480.557 184.11 479.795V466.773ZM197.29 483.273C196.029 483.273 194.941 482.994 194.026 482.438C193.117 481.875 192.415 481.091 191.921 480.085C191.433 479.074 191.188 477.898 191.188 476.557C191.188 475.216 191.433 474.034 191.921 473.011C192.415 471.983 193.103 471.182 193.984 470.608C194.87 470.028 195.904 469.739 197.086 469.739C197.768 469.739 198.441 469.852 199.106 470.08C199.771 470.307 200.376 470.676 200.921 471.188C201.467 471.693 201.901 472.364 202.225 473.199C202.549 474.034 202.711 475.062 202.711 476.284V477.136H192.62V475.398H200.665C200.665 474.659 200.518 474 200.222 473.42C199.933 472.841 199.518 472.384 198.978 472.048C198.444 471.713 197.813 471.545 197.086 471.545C196.285 471.545 195.592 471.744 195.006 472.142C194.427 472.534 193.981 473.045 193.668 473.676C193.356 474.307 193.2 474.983 193.2 475.705V476.864C193.2 477.852 193.37 478.69 193.711 479.378C194.058 480.06 194.538 480.58 195.151 480.938C195.765 481.29 196.478 481.466 197.29 481.466C197.819 481.466 198.296 481.392 198.722 481.244C199.154 481.091 199.526 480.864 199.839 480.562C200.151 480.256 200.393 479.875 200.563 479.42L202.506 479.966C202.302 480.625 201.958 481.205 201.475 481.705C200.992 482.199 200.396 482.585 199.685 482.864C198.975 483.136 198.177 483.273 197.29 483.273ZM205.771 483V469.909H207.714V471.886H207.85C208.089 471.239 208.521 470.713 209.146 470.31C209.771 469.906 210.475 469.705 211.259 469.705C211.407 469.705 211.592 469.707 211.813 469.713C212.035 469.719 212.202 469.727 212.316 469.739V471.784C212.248 471.767 212.092 471.741 211.847 471.707C211.609 471.668 211.356 471.648 211.089 471.648C210.452 471.648 209.884 471.781 209.384 472.048C208.89 472.31 208.498 472.673 208.208 473.139C207.924 473.599 207.782 474.125 207.782 474.716V483H205.771ZM222.746 487.909C222.405 487.909 222.101 487.881 221.834 487.824C221.567 487.773 221.382 487.722 221.28 487.67L221.791 485.898C222.28 486.023 222.712 486.068 223.087 486.034C223.462 486 223.794 485.832 224.084 485.531C224.379 485.236 224.649 484.756 224.893 484.091L225.268 483.068L220.428 469.909H222.609L226.223 480.341H226.359L229.973 469.909H232.155L226.598 484.909C226.348 485.585 226.038 486.145 225.669 486.588C225.3 487.037 224.871 487.369 224.382 487.585C223.899 487.801 223.354 487.909 222.746 487.909ZM239.659 483.273C238.477 483.273 237.44 482.991 236.548 482.429C235.662 481.866 234.969 481.08 234.469 480.068C233.974 479.057 233.727 477.875 233.727 476.523C233.727 475.159 233.974 473.969 234.469 472.952C234.969 471.935 235.662 471.145 236.548 470.582C237.44 470.02 238.477 469.739 239.659 469.739C240.841 469.739 241.875 470.02 242.761 470.582C243.653 471.145 244.347 471.935 244.841 472.952C245.341 473.969 245.591 475.159 245.591 476.523C245.591 477.875 245.341 479.057 244.841 480.068C244.347 481.08 243.653 481.866 242.761 482.429C241.875 482.991 240.841 483.273 239.659 483.273ZM239.659 481.466C240.557 481.466 241.295 481.236 241.875 480.776C242.455 480.315 242.884 479.71 243.162 478.96C243.44 478.21 243.58 477.398 243.58 476.523C243.58 475.648 243.44 474.832 243.162 474.077C242.884 473.321 242.455 472.71 241.875 472.244C241.295 471.778 240.557 471.545 239.659 471.545C238.761 471.545 238.023 471.778 237.443 472.244C236.864 472.71 236.435 473.321 236.156 474.077C235.878 474.832 235.739 475.648 235.739 476.523C235.739 477.398 235.878 478.21 236.156 478.96C236.435 479.71 236.864 480.315 237.443 480.776C238.023 481.236 238.761 481.466 239.659 481.466ZM256.911 477.648V469.909H258.923V483H256.911V480.784H256.775C256.468 481.449 255.991 482.014 255.343 482.48C254.695 482.94 253.877 483.17 252.888 483.17C252.07 483.17 251.343 482.991 250.707 482.634C250.07 482.27 249.57 481.724 249.207 480.997C248.843 480.264 248.661 479.341 248.661 478.227V469.909H250.673V478.091C250.673 479.045 250.94 479.807 251.474 480.375C252.013 480.943 252.701 481.227 253.536 481.227C254.036 481.227 254.545 481.099 255.062 480.844C255.585 480.588 256.022 480.196 256.374 479.668C256.732 479.139 256.911 478.466 256.911 477.648ZM262.607 483V469.909H264.55V471.886H264.686C264.925 471.239 265.357 470.713 265.982 470.31C266.607 469.906 267.311 469.705 268.095 469.705C268.243 469.705 268.428 469.707 268.649 469.713C268.871 469.719 269.038 469.727 269.152 469.739V471.784C269.084 471.767 268.928 471.741 268.683 471.707C268.445 471.668 268.192 471.648 267.925 471.648C267.288 471.648 266.72 471.781 266.22 472.048C265.726 472.31 265.334 472.673 265.044 473.139C264.76 473.599 264.618 474.125 264.618 474.716V483H262.607ZM280.298 475.125V483H278.286V469.909H280.229V471.955H280.4C280.707 471.29 281.173 470.756 281.798 470.352C282.423 469.943 283.229 469.739 284.218 469.739C285.104 469.739 285.88 469.92 286.545 470.284C287.21 470.642 287.727 471.188 288.096 471.92C288.465 472.648 288.65 473.568 288.65 474.682V483H286.638V474.818C286.638 473.79 286.371 472.989 285.837 472.415C285.303 471.835 284.57 471.545 283.638 471.545C282.996 471.545 282.423 471.685 281.917 471.963C281.417 472.241 281.022 472.648 280.732 473.182C280.442 473.716 280.298 474.364 280.298 475.125ZM300.575 477.648V469.909H302.587V483H300.575V480.784H300.439C300.132 481.449 299.655 482.014 299.007 482.48C298.359 482.94 297.541 483.17 296.553 483.17C295.734 483.17 295.007 482.991 294.371 482.634C293.734 482.27 293.234 481.724 292.871 480.997C292.507 480.264 292.325 479.341 292.325 478.227V469.909H294.337V478.091C294.337 479.045 294.604 479.807 295.138 480.375C295.678 480.943 296.365 481.227 297.2 481.227C297.7 481.227 298.209 481.099 298.726 480.844C299.249 480.588 299.686 480.196 300.038 479.668C300.396 479.139 300.575 478.466 300.575 477.648ZM306.271 483V469.909H308.214V471.955H308.384C308.657 471.256 309.097 470.713 309.705 470.327C310.313 469.935 311.043 469.739 311.896 469.739C312.759 469.739 313.478 469.935 314.052 470.327C314.631 470.713 315.083 471.256 315.407 471.955H315.543C315.879 471.278 316.381 470.741 317.052 470.344C317.722 469.94 318.526 469.739 319.464 469.739C320.634 469.739 321.592 470.105 322.336 470.838C323.08 471.565 323.452 472.699 323.452 474.239V483H321.441V474.239C321.441 473.273 321.177 472.582 320.648 472.168C320.12 471.753 319.498 471.545 318.782 471.545C317.862 471.545 317.148 471.824 316.643 472.381C316.137 472.932 315.884 473.631 315.884 474.477V483H313.839V474.034C313.839 473.29 313.597 472.69 313.114 472.236C312.631 471.776 312.009 471.545 311.248 471.545C310.725 471.545 310.237 471.685 309.782 471.963C309.333 472.241 308.969 472.628 308.691 473.122C308.418 473.611 308.282 474.176 308.282 474.818V483H306.271ZM327.403 483V465.545H329.414V471.989H329.585C329.732 471.761 329.937 471.472 330.198 471.119C330.465 470.761 330.846 470.443 331.34 470.165C331.84 469.881 332.516 469.739 333.369 469.739C334.471 469.739 335.442 470.014 336.283 470.565C337.124 471.116 337.781 471.898 338.252 472.909C338.724 473.92 338.96 475.114 338.96 476.489C338.96 477.875 338.724 479.077 338.252 480.094C337.781 481.105 337.127 481.889 336.292 482.446C335.457 482.997 334.494 483.273 333.403 483.273C332.562 483.273 331.888 483.134 331.383 482.855C330.877 482.571 330.488 482.25 330.215 481.892C329.942 481.528 329.732 481.227 329.585 480.989H329.346V483H327.403ZM329.38 476.455C329.38 477.443 329.525 478.315 329.815 479.071C330.104 479.821 330.528 480.409 331.085 480.835C331.641 481.256 332.323 481.466 333.13 481.466C333.971 481.466 334.673 481.244 335.235 480.801C335.803 480.352 336.229 479.75 336.513 478.994C336.803 478.233 336.948 477.386 336.948 476.455C336.948 475.534 336.806 474.705 336.522 473.966C336.244 473.222 335.82 472.634 335.252 472.202C334.69 471.764 333.982 471.545 333.13 471.545C332.312 471.545 331.624 471.753 331.067 472.168C330.511 472.577 330.09 473.151 329.806 473.889C329.522 474.622 329.38 475.477 329.38 476.455ZM347.525 483.273C346.263 483.273 345.175 482.994 344.261 482.438C343.352 481.875 342.65 481.091 342.156 480.085C341.667 479.074 341.423 477.898 341.423 476.557C341.423 475.216 341.667 474.034 342.156 473.011C342.65 471.983 343.337 471.182 344.218 470.608C345.104 470.028 346.138 469.739 347.32 469.739C348.002 469.739 348.675 469.852 349.34 470.08C350.005 470.307 350.61 470.676 351.156 471.188C351.701 471.693 352.136 472.364 352.46 473.199C352.783 474.034 352.945 475.062 352.945 476.284V477.136H342.854V475.398H350.9C350.9 474.659 350.752 474 350.457 473.42C350.167 472.841 349.752 472.384 349.212 472.048C348.678 471.713 348.048 471.545 347.32 471.545C346.519 471.545 345.826 471.744 345.241 472.142C344.661 472.534 344.215 473.045 343.903 473.676C343.59 474.307 343.434 474.983 343.434 475.705V476.864C343.434 477.852 343.604 478.69 343.945 479.378C344.292 480.06 344.772 480.58 345.386 480.938C345.999 481.29 346.712 481.466 347.525 481.466C348.053 481.466 348.531 481.392 348.957 481.244C349.388 481.091 349.761 480.864 350.073 480.562C350.386 480.256 350.627 479.875 350.798 479.42L352.741 479.966C352.536 480.625 352.192 481.205 351.71 481.705C351.227 482.199 350.63 482.585 349.92 482.864C349.21 483.136 348.411 483.273 347.525 483.273ZM356.005 483V469.909H357.948V471.886H358.085C358.323 471.239 358.755 470.713 359.38 470.31C360.005 469.906 360.71 469.705 361.494 469.705C361.641 469.705 361.826 469.707 362.048 469.713C362.269 469.719 362.437 469.727 362.55 469.739V471.784C362.482 471.767 362.326 471.741 362.082 471.707C361.843 471.668 361.59 471.648 361.323 471.648C360.687 471.648 360.119 471.781 359.619 472.048C359.124 472.31 358.732 472.673 358.442 473.139C358.158 473.599 358.016 474.125 358.016 474.716V483H356.005Z" fill="black"/>
<rect x="175" y="563" width="255" height="51" rx="25.5" fill="#9D5B5B"/>
<path d="M212.317 599V577.909H219.835C221.469 577.909 222.825 578.191 223.903 578.754C224.987 579.317 225.798 580.096 226.333 581.091C226.869 582.08 227.136 583.223 227.136 584.521C227.136 585.811 226.865 586.948 226.323 587.929C225.787 588.904 224.977 589.663 223.892 590.205C222.815 590.748 221.459 591.019 219.825 591.019H214.13V588.279H219.536C220.566 588.279 221.404 588.132 222.049 587.837C222.701 587.541 223.178 587.112 223.48 586.549C223.783 585.986 223.934 585.31 223.934 584.521C223.934 583.724 223.779 583.034 223.47 582.451C223.168 581.867 222.691 581.421 222.039 581.112C221.393 580.796 220.545 580.638 219.495 580.638H215.499V599H212.317ZM222.729 589.484L227.94 599H224.315L219.207 589.484H222.729ZM237.381 599.319C235.822 599.319 234.48 598.986 233.354 598.32C232.235 597.647 231.37 596.703 230.759 595.488C230.155 594.266 229.853 592.835 229.853 591.194C229.853 589.574 230.155 588.146 230.759 586.91C231.37 585.674 232.221 584.709 233.313 584.016C234.411 583.323 235.695 582.976 237.164 582.976C238.057 582.976 238.922 583.123 239.759 583.419C240.597 583.714 241.349 584.177 242.015 584.809C242.681 585.441 243.206 586.261 243.59 587.27C243.975 588.273 244.167 589.491 244.167 590.926V592.018H231.593V589.711H241.15C241.15 588.901 240.985 588.183 240.655 587.559C240.326 586.927 239.862 586.429 239.265 586.065C238.675 585.701 237.981 585.52 237.185 585.52C236.32 585.52 235.565 585.732 234.919 586.158C234.281 586.577 233.786 587.126 233.436 587.806C233.093 588.479 232.921 589.21 232.921 589.999V591.801C232.921 592.859 233.107 593.758 233.478 594.5C233.855 595.241 234.38 595.808 235.053 596.199C235.726 596.583 236.512 596.776 237.411 596.776C237.995 596.776 238.527 596.693 239.008 596.528C239.488 596.357 239.904 596.103 240.254 595.766C240.604 595.43 240.872 595.015 241.057 594.52L243.972 595.045C243.738 595.904 243.319 596.655 242.715 597.301C242.118 597.939 241.366 598.437 240.46 598.794C239.56 599.144 238.534 599.319 237.381 599.319ZM254.216 605.261C252.959 605.261 251.878 605.097 250.972 604.767C250.072 604.438 249.338 604.002 248.768 603.459C248.198 602.917 247.772 602.323 247.491 601.678L250.138 600.586C250.323 600.888 250.57 601.207 250.879 601.544C251.195 601.887 251.621 602.179 252.156 602.419C252.698 602.659 253.395 602.779 254.247 602.779C255.414 602.779 256.378 602.495 257.14 601.925C257.903 601.362 258.284 600.462 258.284 599.227V596.116H258.088C257.903 596.453 257.635 596.827 257.285 597.239C256.941 597.651 256.468 598.008 255.863 598.31C255.259 598.612 254.473 598.763 253.505 598.763C252.256 598.763 251.13 598.471 250.127 597.888C249.132 597.297 248.342 596.429 247.759 595.282C247.182 594.129 246.894 592.711 246.894 591.029C246.894 589.347 247.179 587.905 247.748 586.704C248.325 585.502 249.115 584.582 250.117 583.944C251.119 583.299 252.256 582.976 253.526 582.976C254.508 582.976 255.3 583.141 255.905 583.47C256.509 583.793 256.979 584.17 257.316 584.603C257.659 585.036 257.923 585.417 258.108 585.746H258.335V583.182H261.352V599.35C261.352 600.71 261.037 601.825 260.405 602.697C259.773 603.569 258.919 604.214 257.841 604.633C256.77 605.052 255.561 605.261 254.216 605.261ZM254.185 596.209C255.07 596.209 255.819 596.003 256.43 595.591C257.048 595.172 257.515 594.575 257.83 593.799C258.153 593.017 258.314 592.08 258.314 590.988C258.314 589.924 258.157 588.987 257.841 588.176C257.525 587.366 257.061 586.735 256.45 586.282C255.839 585.822 255.084 585.592 254.185 585.592C253.258 585.592 252.486 585.832 251.868 586.312C251.25 586.786 250.783 587.432 250.467 588.249C250.158 589.066 250.004 589.979 250.004 590.988C250.004 592.025 250.162 592.934 250.477 593.717C250.793 594.5 251.26 595.111 251.878 595.55C252.503 595.989 253.272 596.209 254.185 596.209ZM265.482 599V583.182H268.561V599H265.482ZM267.037 580.741C266.502 580.741 266.042 580.563 265.657 580.206C265.28 579.842 265.091 579.409 265.091 578.908C265.091 578.4 265.28 577.967 265.657 577.61C266.042 577.247 266.502 577.065 267.037 577.065C267.573 577.065 268.029 577.247 268.407 577.61C268.791 577.967 268.983 578.4 268.983 578.908C268.983 579.409 268.791 579.842 268.407 580.206C268.029 580.563 267.573 580.741 267.037 580.741ZM284.557 587.044L281.766 587.538C281.65 587.181 281.464 586.841 281.21 586.518C280.963 586.196 280.627 585.931 280.201 585.725C279.775 585.52 279.243 585.417 278.605 585.417C277.733 585.417 277.005 585.612 276.421 586.004C275.838 586.388 275.546 586.886 275.546 587.497C275.546 588.025 275.742 588.451 276.133 588.774C276.524 589.096 277.156 589.361 278.028 589.567L280.541 590.143C281.996 590.48 283.081 590.998 283.795 591.699C284.509 592.399 284.866 593.308 284.866 594.428C284.866 595.375 284.591 596.219 284.042 596.961C283.5 597.696 282.741 598.272 281.766 598.691C280.798 599.11 279.676 599.319 278.399 599.319C276.627 599.319 275.182 598.942 274.063 598.186C272.944 597.424 272.257 596.343 272.003 594.942L274.98 594.489C275.165 595.265 275.546 595.852 276.123 596.25C276.699 596.642 277.451 596.837 278.378 596.837C279.387 596.837 280.194 596.628 280.798 596.209C281.402 595.783 281.704 595.265 281.704 594.654C281.704 594.16 281.519 593.744 281.148 593.408C280.784 593.072 280.225 592.818 279.47 592.646L276.792 592.059C275.316 591.723 274.224 591.187 273.517 590.452C272.817 589.718 272.467 588.788 272.467 587.662C272.467 586.728 272.728 585.911 273.25 585.211C273.771 584.51 274.492 583.964 275.412 583.573C276.332 583.175 277.386 582.976 278.574 582.976C280.283 582.976 281.629 583.347 282.611 584.088C283.592 584.823 284.241 585.808 284.557 587.044ZM295.635 583.182V585.653H286.995V583.182H295.635ZM289.312 579.392H292.392V594.355C292.392 594.953 292.481 595.402 292.659 595.705C292.838 596 293.068 596.202 293.349 596.312C293.638 596.415 293.95 596.467 294.286 596.467C294.534 596.467 294.75 596.449 294.935 596.415C295.121 596.381 295.265 596.353 295.368 596.333L295.924 598.876C295.745 598.945 295.491 599.014 295.162 599.082C294.832 599.158 294.42 599.199 293.926 599.206C293.116 599.22 292.361 599.076 291.66 598.773C290.96 598.471 290.394 598.004 289.961 597.373C289.529 596.741 289.312 595.948 289.312 594.994V579.392ZM305.689 599.319C304.131 599.319 302.789 598.986 301.663 598.32C300.543 597.647 299.678 596.703 299.067 595.488C298.463 594.266 298.161 592.835 298.161 591.194C298.161 589.574 298.463 588.146 299.067 586.91C299.678 585.674 300.53 584.709 301.621 584.016C302.72 583.323 304.004 582.976 305.473 582.976C306.365 582.976 307.23 583.123 308.068 583.419C308.906 583.714 309.657 584.177 310.323 584.809C310.989 585.441 311.515 586.261 311.899 587.27C312.284 588.273 312.476 589.491 312.476 590.926V592.018H299.902V589.711H309.458C309.458 588.901 309.294 588.183 308.964 587.559C308.634 586.927 308.171 586.429 307.574 586.065C306.983 585.701 306.29 585.52 305.494 585.52C304.628 585.52 303.873 585.732 303.228 586.158C302.589 586.577 302.095 587.126 301.745 587.806C301.402 588.479 301.23 589.21 301.23 589.999V591.801C301.23 592.859 301.415 593.758 301.786 594.5C302.164 595.241 302.689 595.808 303.362 596.199C304.035 596.583 304.821 596.776 305.72 596.776C306.304 596.776 306.836 596.693 307.316 596.528C307.797 596.357 308.212 596.103 308.562 595.766C308.913 595.43 309.18 595.015 309.366 594.52L312.28 595.045C312.047 595.904 311.628 596.655 311.024 597.301C310.426 597.939 309.675 598.437 308.768 598.794C307.869 599.144 306.843 599.319 305.689 599.319ZM315.892 599V583.182H318.868V585.695H319.033C319.322 584.843 319.83 584.174 320.557 583.686C321.292 583.192 322.123 582.945 323.05 582.945C323.242 582.945 323.468 582.952 323.729 582.966C323.997 582.979 324.206 582.996 324.357 583.017V585.962C324.234 585.928 324.014 585.89 323.698 585.849C323.383 585.801 323.067 585.777 322.751 585.777C322.023 585.777 321.374 585.931 320.805 586.24C320.242 586.542 319.795 586.965 319.466 587.507C319.136 588.043 318.971 588.654 318.971 589.34V599H315.892ZM351.967 577.909V599H349.042L338.322 583.532H338.126V599H334.944V577.909H337.889L348.62 593.398H348.816V577.909H351.967ZM363.025 599.319C361.542 599.319 360.248 598.979 359.142 598.3C358.037 597.62 357.179 596.669 356.568 595.447C355.957 594.225 355.651 592.797 355.651 591.163C355.651 589.522 355.957 588.087 356.568 586.858C357.179 585.629 358.037 584.675 359.142 583.995C360.248 583.316 361.542 582.976 363.025 582.976C364.508 582.976 365.802 583.316 366.907 583.995C368.013 584.675 368.871 585.629 369.482 586.858C370.093 588.087 370.399 589.522 370.399 591.163C370.399 592.797 370.093 594.225 369.482 595.447C368.871 596.669 368.013 597.62 366.907 598.3C365.802 598.979 364.508 599.319 363.025 599.319ZM363.035 596.734C363.996 596.734 364.793 596.48 365.424 595.972C366.056 595.464 366.523 594.788 366.825 593.944C367.134 593.099 367.288 592.169 367.288 591.153C367.288 590.143 367.134 589.217 366.825 588.372C366.523 587.521 366.056 586.838 365.424 586.323C364.793 585.808 363.996 585.55 363.035 585.55C362.067 585.55 361.264 585.808 360.625 586.323C359.994 586.838 359.524 587.521 359.215 588.372C358.912 589.217 358.761 590.143 358.761 591.153C358.761 592.169 358.912 593.099 359.215 593.944C359.524 594.788 359.994 595.464 360.625 595.972C361.264 596.48 362.067 596.734 363.035 596.734ZM376.783 599L372.129 583.182H375.311L378.411 594.798H378.565L381.675 583.182H384.857L387.947 594.747H388.101L391.18 583.182H394.363L389.718 599H386.577L383.364 587.579H383.127L379.914 599H376.783Z" fill="white"/>
<defs>
<filter id="filter0_d_74_109" x="0" y="56" width="559" height="597" filterUnits="userSpaceOnUse" color-interpolation-filters="sRGB">
<feFlood flood-opacity="0" result="BackgroundImageFix"/>
<feColorMatrix in="SourceAlpha" type="matrix" values="0 0 0 0 0 0 0 0 0 0 0 0 0 0 0 0 0 0 127 0" result="hardAlpha"/>
<feOffset dy="2"/>
<feGaussianBlur stdDeviation="1.5"/>
<feComposite in2="hardAlpha" operator="out"/>
<feColorMatrix type="matrix" values="0 0 0 0 0.615686 0 0 0 0 0.356863 0 0 0 0 0.356863 0 0 0 0.7 0"/>
<feBlend mode="normal" in2="BackgroundImageFix" result="effect1_dropShadow_74_109"/>
<feBlend mode="normal" in="SourceGraphic" in2="effect1_dropShadow_74_109" result="shape"/>
</filter>
</defs>
</svg>
